<svg fill="none" height="150" viewBox="0 0 82 150" width="82" xmlns="http://www.w3.org/2000/svg" xmlns:xlink="http://www.w3.org/1999/xlink"><clipPath id="a"><path d="m0 0h82v150h-82z"/></clipPath><g clip-path="url(#a)"><path d="m0 0h82v150h-82z" fill="#fff"/><path d="m85 0h-88v150h88z" fill="#ef4123"/><path clip-rule="evenodd" d="m5.82812 8.81055h70.34128v26.26895h-70.34128zm3 2.99995v20.269h64.34128v-20.269z" fill="#fff" fill-rule="evenodd"/><path d="m59.4349 14.4531v7.8062l-2.4619-7.8062h-2.4339v14.3181h2.4339v-7.016l2.1983 7.016h2.6954v-14.3181z" fill="#231f20"/><path d="m14.3107 14.4531h-2.2304-.2014v14.3181h2.4318v-6.1382h2.2562v-2.4262h-2.2562v-3.3296h3.501v-2.4241z" fill="#231f20"/><path d="m43.4771 14.4531h-6.7427v2.4241h2.1554v11.894h2.4318v-11.894h2.1555z" fill="#231f20"/><path d="m64.25 14.4531v14.3181h5.9328v-2.4262h-3.4988v-3.712h2.2561v-2.4262h-2.2561v-3.3296h3.4988v-2.4241z" fill="#231f20"/><path d="m35.6238 28.7763h-2.5047l-1.7997-6.7981s1.5469-.2776 1.5469-1.9222v-2.2404c0-.2488-.099-.4875-.2753-.6637-.1764-.1762-.4156-.2754-.6653-.276h-.9491v11.9004h-2.4297v-14.3095h3.3681c.8669.0001 1.7004.333 2.3276.9296.6272.5965.9998 1.4109 1.0405 2.274v2.3493c0 1.4118-.4627 2.4327-1.3112 3.0798z" fill="#231f20"/><path d="m49.806 14.4531v11.1529c0 .2498-.0996.4894-.2768.666s-.4175.2759-.6681.2759-.4909-.0993-.6681-.2759-.2768-.4162-.2768-.666v-11.1529h-2.4318v11.1529c0 .8927.3557 1.7488.989 2.3801.6332.6312 1.4921.9858 2.3877.9858.8955 0 1.7544-.3546 2.3877-.9858.6332-.6313.989-1.4874.989-2.3801v-11.1529z" fill="#231f20"/><path d="m19.3867 17.6156v7.9898c0 .8927.3558 1.7489.989 2.3801.6333.6312 1.4922.9858 2.3877.9858.8956 0 1.7545-.3546 2.3877-.9858.6333-.6312.989-1.4874.989-2.3801v-7.9898c-.0011-.892-.3574-1.747-.9905-2.3773-.6331-.6304-1.4914-.9844-2.3862-.9844-.8955 0-1.7544.3546-2.3877.9859-.6332.6312-.989 1.4873-.989 2.38zm2.4318 7.9941v-7.9941c.0006-.2495.1004-.4885.2776-.6646.1771-.1762.4171-.2752.6673-.2752.1237-.0002.2463.0238.3606.0708.1144.047.2183.116.3059.2031s.1571.1906.2045.3044c.0474.1139.0718.236.0718.3593v7.992c0 .1237-.0245.2462-.072.3604-.0475.1143-.117.2181-.2048.3056-.0877.0875-.1919.1568-.3065.2042-.1147.0473-.2375.0717-.3616.0717s-.247-.0244-.3616-.0717c-.1146-.0474-.2188-.1167-.3065-.2042-.0878-.0875-.1574-.1913-.2049-.3056-.0475-.1142-.0719-.2367-.0719-.3604" fill="#231f20"/><path d="m60.3134 62.4449c-.0004-3.785-1.1268-7.485-3.2366-10.6319-2.1099-3.147-5.1085-5.5997-8.6167-7.048s-7.3684-1.8271-11.0926-1.0886c-3.7241.7386-7.145 2.5613-9.83 5.2377-2.685 2.6765-4.5135 6.0864-5.2544 9.7987s-.3609 7.5602 1.092 11.0572c1.453 3.497 3.9135 6.4861 7.0705 8.5892 3.1571 2.1031 6.8688 3.2259 10.666 3.2263 2.5217.0003 5.0187-.4946 7.3485-1.4564s4.4467-2.3717 6.2298-4.1491c1.7831-1.7775 3.1975-3.8876 4.1624-6.21.9649-2.3223 1.4614-4.8114 1.4611-7.3251" fill="#fff"/><path d="m41.1157 44.4261c-3.5753 0-7.0703 1.0569-10.043 3.0368-2.9727 1.98-5.2897 4.7943-6.6579 8.0869s-1.7262 6.9156-1.0287 10.411 2.4192 6.7062 4.9473 9.2262c2.5281 2.5201 5.7491 4.2362 9.2557 4.9315s7.1412.3385 10.4444-1.0254c3.3031-1.3638 6.1263-3.6734 8.1126-6.6367 1.9864-2.9632 3.0466-6.4471 3.0466-10.011-.0057-4.7772-1.9121-9.3572-5.3009-12.7353-3.3889-3.378-7.9835-5.2783-12.7761-5.284zm0 38.2769c-4.02.0004-7.9498-1.1875-11.2925-3.4135s-5.948-5.3901-7.4866-9.0921c-1.5386-3.7021-1.9413-7.7758-1.1571-11.706s2.7199-7.5404 5.5625-10.3739c2.8425-2.8335 6.4642-4.7631 10.407-5.5447 3.9428-.7817 8.0295-.3803 11.7434 1.1534s6.8882 4.1307 9.1213 7.4628c2.2331 3.332 3.4248 7.2493 3.4244 11.2564-.0085 5.3701-2.1523 10.5178-5.9617 14.315-3.8093 3.7971-8.9735 5.9341-14.3607 5.9426" fill="#231f20"/><path d="m51.4502 102.057-10.3872-9.4421-10.3872 9.4421v-36.2308h20.7744z" fill="#fff"/><path d="m31.7962 66.9435v32.5745l9.2667-8.4213 9.2623 8.4213v-32.5745zm20.783 37.6465-11.5163-10.4605-11.5121 10.4655v-39.8919h23.022z" fill="#231f20"/><path d="m41.1138 33.8008 6.4513 19.792h20.8772l-16.8899 12.2335 6.4513 19.792-16.8899-12.2336-16.89 12.2336 6.4513-19.792-16.8899-12.2335h20.8772z" fill="#fff"/><path d="m17.2383 54.7125 14.7538 10.6787-5.635 17.2996 14.7538-10.6788 14.7538 10.6788-5.635-17.2996 14.7517-10.6787h-18.2355l-5.635-17.2889-5.6414 17.2889zm42.9009 33.8366-19.0283-13.7777-19.0239 13.7777 7.2633-22.2972-19.0261-13.7691h23.5191l7.2676-22.2973 7.2655 22.2973h23.517l-19.0283 13.7798z" fill="#231f20"/><path d="m42.1829 74.6074h-2.2454v18.0044h2.2454z" fill="#231f20"/><path d="m45.8894 57.7963-1.8191-1.3177 2.584-3.5411 1.8147 1.3135z" fill="#231f20"/><path d="m35.7719 52.865-1.8188 1.3205 2.5927 3.5482 1.8188-1.3206z" fill="#231f20"/><path d="m42.2337 69.3262h-2.2454v4.06h2.2454z" fill="#231f20"/><path d="m51.0972 66.8863-3.8824-1.2687.7007-2.1293 3.8823 1.2729z" fill="#231f20"/><path d="m31.1264 66.8863-.7006-2.1251 3.8866-1.2729.6985 2.1293z" fill="#231f20"/><g fill="#fff"><path d="m74.607 138.287h.6085v-4.972h-.5656l-1.1592.835v.561l1.1163-.798zm-4.7929 0h3.3424v-.494h-2.4061l1.3734-1.335c.6149-.598 1.0048-1.196 1.0048-1.808 0-.855-.5849-1.397-1.4998-1.397-.9148 0-1.5426.617-1.6198 1.591h.5657c.0985-.778.4735-1.106 1.0541-1.106.1203-.012.2416.003.3552.044.1137.04.217.106.3024.191s.1508.188.1916.301.0559.234.0443.354c0 .508-.2657.961-.7199 1.44l-1.9819 2.08zm-2.2669.055c1.2277 0 1.9283-.972 1.9283-2.42v-.277c0-1.418-.7177-2.399-1.9476-2.399-1.2298 0-1.9669.944-1.9669 2.412v.279c0 1.446.7885 2.405 1.9819 2.405zm-.0043-.5c-.8313 0-1.3605-.653-1.3605-1.922v-.277c0-1.224.5014-1.923 1.3455-1.923.8442 0 1.3327.752 1.3327 1.908v.277c0 1.258-.4456 1.923-1.3177 1.923zm-5.9863.413h3.3424v-.494h-2.404l1.3756-1.335c.6127-.598 1.0048-1.196 1.0048-1.809 0-.854-.587-1.396-1.4998-1.396-.9127 0-1.5405.617-1.6176 1.591h.5656c.0964-.778.4735-1.106 1.052-1.106.1202-.012.2415.003.3552.044.1137.04.2169.106.3024.191.0854.085.1508.188.1916.301s.0559.234.0443.354c0 .508-.2657.961-.7178 1.44l-1.9819 2.08zm-9.3095-2.689v-1.068h.3771c.4285 0 .6427.141.6427.502v.028c0 .36-.2142.542-.6427.542zm-1.577 2.719h1.577v-1.709h.2528l.9277 1.709h1.6605l-1.1377-2.032c.2605-.1.4824-.28.6341-.513.1516-.234.2252-.509.2101-.787v-.028c0-1.068-.7113-1.612-2.0869-1.612h-2.0376zm-3.2353.091c1.6391 0 2.7061-1.038 2.7061-2.588v-.056c0-1.572-1.1441-2.496-2.6782-2.496-1.4998 0-2.6654 1.001-2.6654 2.539v.056c0 1.507 1.0049 2.545 2.6375 2.545zm.0407-1.238c-.6277 0-1.0262-.466-1.0262-1.316v-.043c0-.854.3985-1.3 1.0134-1.3s1.0327.459 1.0327 1.3v.056c0 .829-.3985 1.315-1.0199 1.315zm-6.4534 1.159h1.5834v-1.668h1.4998v-1.161h-1.4998v-.925h1.8662v-1.218h-3.4496zm-6.657 0h1.5834v-1.988l1.2984 1.988h1.8212l-1.8491-2.678 1.7526-2.294h-1.6412l-1.3819 1.884v-1.884h-1.5834zm-3.4045-2.731v-1.068h.377c.4286 0 .6428.141.6428.502v.028c0 .36-.2142.542-.6428.542zm-1.577 2.719h1.577v-1.709h.2506l.9278 1.709h1.6605l-1.1356-2.032c.2605-.1.4824-.28.6341-.513.1516-.234.2252-.509.2101-.787v-.028c0-1.068-.7114-1.612-2.0869-1.612h-2.0376zm-3.2374.091c1.639 0 2.7082-1.038 2.7082-2.588v-.056c0-1.572-1.1441-2.496-2.6804-2.496-1.4998 0-2.6653 1.001-2.6653 2.539v.056c0 1.507 1.0048 2.545 2.6375 2.545zm.0428-1.238c-.6277 0-1.0263-.466-1.0263-1.316v-.043c0-.854.3986-1.3 1.0113-1.3.6128 0 1.0328.459 1.0328 1.3v.056c0 .829-.3964 1.315-1.0178 1.315zm-8.4996 1.149h1.577l.7049-2.969.6984 2.969h1.5984l1.157-4.972h-1.4655l-.6064 3.005-.677-3.005h-1.3734l-.5999 2.968-.5721-2.968h-1.5984zm-5.4421.092c1.6412 0 2.7082-1.038 2.7082-2.589v-.056c0-1.571-1.1442-2.496-2.6804-2.496-1.4998 0-2.6632 1.001-2.6632 2.539v.056c0 1.508 1.0027 2.546 2.6354 2.546zm.0428-1.239c-.6278 0-1.0263-.466-1.0263-1.316v-.045c0-.854.3985-1.3 1.0113-1.3s1.0327.459 1.0327 1.3v.056c0 .829-.3963 1.315-1.0177 1.315zm-5.71424 1.157h1.5898v-3.773h1.26412v-1.209h-4.10947v1.209h1.25555z"/><path d="m69.7512 128.731c1.3391 0 2.0654-.767 2.0654-1.692 0-1.106-.6984-1.424-1.954-1.557-.5506-.07-.6963-.181-.6963-.427 0-.245.1671-.361.4949-.361.0681-.007.137 0 .2022.02.0653.021.1255.055.1767.1.0513.046.0925.101.121.163.0284.062.0435.13.0443.198h1.4741c-.0835-1.085-.7756-1.587-2.0097-1.587-1.2342 0-1.9969.669-1.9969 1.587 0 1.021.4885 1.439 1.9283 1.6.5378.077.7113.16.7113.427s-.1799.412-.5506.412c-.5164 0-.6706-.258-.6985-.57h-1.4998c.0364 1.119.7885 1.683 2.1983 1.683zm-6.2542-.096h3.6552v-1.209h-2.0783v-.745h1.562v-1.107h-1.562v-.687h1.9669v-1.209h-3.5545zm-2.1426 0h1.5984v-4.964h-1.5984zm-5.1207 0h1.3948v-2.969l1.669 2.977h1.5127v-4.972h-1.3884v2.629l-1.4162-2.629h-1.7719zm-3.2311-3.699.4886 1.8h-.9835zm-2.4896 3.699h1.4548l.2142-.827h1.577l.2292.827h1.6755l-1.5533-4.964h-2.0441zm-2.0655-2.678v-1.12h.3343c.4113 0 .6277.154.6277.537v.027c0 .37-.2142.556-.6427.556zm-1.5769 2.678h1.5769v-1.613h.48c1.2855 0 1.9819-.583 1.9819-1.619v-.027c0-1.068-.6128-1.709-2.0505-1.709h-1.9883zm-6.2928 0h1.4077v-2.926l1.1163 2.934h.5314l1.1377-2.934v2.934h1.5683v-4.972h-2.0076l-.857 2.414-.8442-2.414h-2.0504zm-3.2138.092c1.639 0 2.706-1.038 2.706-2.589v-.055c0-1.572-1.1441-2.497-2.6782-2.497-1.4998 0-2.6653 1.002-2.6653 2.539v.056c0 1.508 1.0048 2.546 2.6375 2.546zm.0407-1.239c-.6278 0-1.0242-.466-1.0242-1.316v-.055c0-.854.3964-1.301 1.0113-1.301s1.0327.459 1.0327 1.301v.055c0 .829-.3985 1.316-1.0198 1.316zm-5.3779 1.239c1.3177 0 2.2819-.69 2.3568-1.997h-1.5769c-.0031.103-.0273.204-.071.297-.0438.094-.1062.177-.1834.245-.0772.069-.1677.121-.2658.153s-.2018.044-.3047.035c-.6128 0-.947-.459-.947-1.281v-.056c0-.841.3471-1.281.9192-1.281.4413 0 .6856.256.7327.715h1.6327c-.1179-1.347-1.0242-1.96-2.3719-1.96-1.4719 0-2.5818 1.001-2.5818 2.539v.056c0 1.522.8571 2.545 2.6525 2.545zm-7.2376-.081h1.5919v-3.759h1.262v-1.209h-4.1009v1.209h1.2555zm-3.5803.091c1.3413 0 2.0655-.766 2.0655-1.691 0-1.106-.6964-1.425-1.9519-1.557-.5528-.071-.6985-.182-.6985-.427 0-.246.1671-.361.4949-.361.0681-.008.137-.001.2023.02.0652.021.1254.055.1767.1.0512.045.0924.101.1209.163s.0436.129.0444.197h1.4655c-.0836-1.085-.7735-1.587-2.0098-1.587-1.2362 0-1.9947.669-1.9947 1.587 0 1.021.4885 1.44 1.9283 1.6.5357.077.7114.16.7114.427s-.1822.412-.5528.412c-.5143 0-.6685-.258-.6964-.57h-1.4998c.0343 1.119.7885 1.683 2.1962 1.683zm-6.3077-.094h3.6424v-1.208h-2.0783v-.746h1.5619v-1.106h-1.5619v-.696h1.9668v-1.209h-3.5309zm-3.1603-3.032v-.91h.4735c.3921 0 .5506.145.5506.444v.028c0 .307-.1521.427-.5442.427zm0 1.997v-1.068h.4671c.4456 0 .6277.181.6277.508v.028c0 .333-.1885.521-.5935.521zm-1.5427 1.035h2.344c1.2855 0 1.849-.499 1.849-1.384v-.023c0-.694-.4113-1.068-.9963-1.162.2505-.04.4771-.171.6356-.369.1585-.197.2374-.446.2215-.699v-.028c0-.736-.4735-1.3-1.7012-1.3h-2.3633z"/><path d="m75.5102 130.186h-70.20161v.296h70.20161z"/><path clip-rule="evenodd" d="m5.05859 129.936h70.70161v.796h-70.70161z" fill-rule="evenodd"/><path d="m75.5402 140.4h-70.23161v.297h70.23161z"/><path clip-rule="evenodd" d="m5.05859 140.15h70.73161v.797h-70.73161z" fill-rule="evenodd"/><path d="m62.419 116.369c-3.7709 0-5.5493-1.833-5.5493-5.408v-1.467c0-3.575 1.7484-5.44 5.4572-5.44s5.4571 1.895 5.4571 5.44v1.495c0 3.483-1.5641 5.378-5.3564 5.378zm-.2057 5.194c8.7075 0 13.3676-4.156 13.3676-10.758v-1.435c0-6.478-5.0587-10.3583-13.284-10.3583-8.2254 0-13.2733 3.8183-13.2733 10.5103v1.467c0 6.388 4.4759 10.574 13.1812 10.574zm-27.3243-5.194c-3.7688 0-5.5471-1.833-5.5471-5.408v-1.467c0-3.575 1.7462-5.44 5.4571-5.44 3.6767 0 5.455 1.895 5.455 5.44v1.495c0 3.483-1.5619 5.378-5.3564 5.378zm-.2057 5.194c8.7075 0 13.3654-4.156 13.3654-10.758v-1.435c0-6.478-5.0564-10.3583-13.284-10.3583-8.2275 0-13.2732 3.8183-13.2732 10.5103v1.467c0 6.388 4.4758 10.574 13.1811 10.574zm-22.4499-.397h7.8118v-21.8467h-6.7362l-6.65275 4.6367v5.929l5.57075-3.881z"/><path d="m57.4857 134.542c.0055.208-.0513.413-.1632.588-.1119.176-.2737.314-.4649.397-.1911.083-.4028.108-.608.07-.2052-.037-.3944-.135-.5436-.28s-.2514-.332-.2937-.535c-.0422-.204-.0225-.416.0565-.608.0791-.192.214-.357.3874-.472.1734-.116.3775-.177.5861-.176.1357-.003.2706.021.3968.071s.2412.125.3383.219c.0971.095.1744.208.2273.332.0529.125.0805.259.081.394zm-1.8319 0c.0055.154.0561.302.1457.428.0895.125.214.221.358.276s.301.067.4516.034.2881-.11.3954-.22c.1073-.111.1796-.25.208-.401s.0116-.307-.0483-.449c-.06-.142-.1603-.263-.2887-.348s-.279-.131-.4332-.131c-.1057 0-.2102.021-.3075.062-.0972.042-.1852.102-.2587.177-.0735.076-.131.166-.1692.264s-.0563.203-.0531.308zm.6278.532h-.2421v-1.006c.1295-.021.2607-.031.392-.03.1234-.01.2471.016.3557.075.031.026.0559.059.0729.096s.0258.077.0257.117c-.0048.058-.0284.112-.0671.154-.0388.043-.0905.071-.1472.081v.013c.0511.02.0956.054.1285.098.0329.043.053.096.0579.15.011.088.0364.174.075.254h-.2507c-.0386-.078-.0654-.162-.0792-.248-.0193-.111-.0815-.16-.2143-.16h-.1114zm0-.577h.1114c.1307 0 .2357-.042.2357-.147s-.0686-.156-.2143-.156c-.0439-.001-.0878.003-.1307.013z"/></g></g></svg>