<?xml version="1.0" encoding="UTF-8" standalone="no"?>
<!-- Created with Inkscape (http://www.inkscape.org/) -->

<svg
   xmlns:dc="http://purl.org/dc/elements/1.1/"
   xmlns:cc="http://creativecommons.org/ns#"
   xmlns:rdf="http://www.w3.org/1999/02/22-rdf-syntax-ns#"
   xmlns:svg="http://www.w3.org/2000/svg"
   xmlns="http://www.w3.org/2000/svg"
   xmlns:xlink="http://www.w3.org/1999/xlink"
   xmlns:sodipodi="http://sodipodi.sourceforge.net/DTD/sodipodi-0.dtd"
   xmlns:inkscape="http://www.inkscape.org/namespaces/inkscape"
   width="100mm"
   height="100mm"
   viewBox="0 0 354.33071 354.33071"
   id="svg2"
   version="1.1"
   inkscape:version="0.91 r13725"
   sodipodi:docname="blissarts.svg"
   style="shape-rendering:crispEdges">
  <defs
     id="defs4">
    <linearGradient
       inkscape:collect="always"
       id="linearGradient4172">
      <stop
         style="stop-color:#1cffe2;stop-opacity:1"
         offset="0"
         id="stop4174" />
      <stop
         id="stop4214"
         offset="0.31994447"
         style="stop-color:#00c6ff;stop-opacity:1" />
      <stop
         id="stop4243"
         offset="0.71433198"
         style="stop-color:#008dff;stop-opacity:1" />
      <stop
         style="stop-color:#008dff;stop-opacity:1"
         offset="1"
         id="stop4216" />
      <stop
         style="stop-color:#00c8fc;stop-opacity:1"
         offset="1"
         id="stop4176" />
    </linearGradient>
    <inkscape:path-effect
       effect="curvestitching"
       id="path-effect4166"
       is_visible="true"
       count="5"
       startpoint_edge_variation="0;1"
       startpoint_spacing_variation="0;1"
       endpoint_edge_variation="0;1"
       endpoint_spacing_variation="0;1"
       strokepath="m 109.3821,847.92188 516.90955,0"
       prop_scale="1"
       scale_y_rel="false" />
    <inkscape:path-effect
       effect="sketch"
       id="path-effect4164"
       is_visible="true"
       nbiter_approxstrokes="5"
       strokelength="100"
       strokelength_rdm="0.3;1"
       strokeoverlap="0.3"
       strokeoverlap_rdm="0.3;1"
       ends_tolerance="0.1;1"
       parallel_offset="5;1"
       tremble_size="5;1"
       tremble_frequency="1"
       nbtangents="5"
       tgt_places_rdmness="1;1"
       tgtscale="10"
       tgtlength="100"
       tgtlength_rdm="0.3;1" />
    <inkscape:path-effect
       effect="envelope"
       id="path-effect4158"
       is_visible="true"
       yy="true"
       xx="true"
       bendpath1="M 0,0 317.08854,0"
       bendpath2="m 317.08854,0 0,1060.1942"
       bendpath3="m 0,1060.1942 317.08854,0"
       bendpath4="M 0,0 0,1060.1942" />
    <inkscape:path-effect
       effect="gears"
       id="path-effect4156"
       is_visible="false"
       teeth="10"
       phi="5" />
    <inkscape:path-effect
       effect="rough_hatches"
       id="path-effect4154"
       is_visible="false"
       direction="372.58409,847.12892 , 130.36407,0"
       dist_rdm="3.9;1"
       growth="0"
       do_bend="true"
       bender="372.58409,852.12892 , 5,0"
       bottom_edge_variation="300.16;1"
       top_edge_variation="30.158689;1"
       bottom_tgt_variation="0;1"
       top_tgt_variation="0;1"
       scale_bf="1"
       scale_bb="0.3"
       scale_tf="1"
       scale_tb="1"
       top_smth_variation="0;1"
       bottom_smth_variation="0;1"
       fat_output="true"
       stroke_width_top="1"
       stroke_width_bottom="1"
       front_thickness="1.9"
       back_thickness="0.25" />
    <inkscape:path-effect
       strokepath-nodetypes="cc"
       scale_y_rel="false"
       prop_scale="1"
       strokepath="M -122.2637,65.54825 C 77.175916,141.36136 537.4232,-46.38295 691.69829,78.8065"
       endpoint_spacing_variation="0;1"
       endpoint_edge_variation="0;1"
       startpoint_spacing_variation="0;1"
       startpoint_edge_variation="0;1"
       count="800"
       is_visible="true"
       id="path-effect5150"
       effect="curvestitching" />
    <inkscape:path-effect
       effect="curvestitching"
       id="path-effect5146"
       is_visible="true"
       count="900"
       startpoint_edge_variation="0;1"
       startpoint_spacing_variation="0;1"
       endpoint_edge_variation="0;1"
       endpoint_spacing_variation="0;1"
       strokepath="M -126.68312,104.21815 C 60.6031,204.33806 514.22126,-15.447029 668.49635,109.74242"
       prop_scale="1"
       scale_y_rel="false"
       strokepath-nodetypes="cc" />
    <inkscape:path-effect
       strokepath-nodetypes="cc"
       scale_y_rel="false"
       prop_scale="1"
       strokepath="M -62.601565,124.10553 C 136.83805,199.91864 597.08533,12.17433 751.36042,137.36378"
       endpoint_spacing_variation="0;1"
       endpoint_edge_variation="0;1"
       startpoint_spacing_variation="0;1"
       startpoint_edge_variation="0;1"
       count="700"
       is_visible="true"
       id="path-effect5142"
       effect="curvestitching" />
    <inkscape:path-effect
       effect="curvestitching"
       id="path-effect5126"
       is_visible="true"
       count="2000"
       startpoint_edge_variation="0;1"
       startpoint_spacing_variation="0;1"
       endpoint_edge_variation="0;1"
       endpoint_spacing_variation="0;1"
       strokepath="M -25.036513,153.93659 C 174.4031,229.7497 634.65038,42.005399 788.92548,167.19484"
       prop_scale="1"
       scale_y_rel="false"
       strokepath-nodetypes="cc" />
    <inkscape:path-effect
       effect="curvestitching"
       id="path-effect4175"
       is_visible="true"
       count="150"
       startpoint_edge_variation="0;1"
       startpoint_spacing_variation="0;1"
       endpoint_edge_variation="0;1"
       endpoint_spacing_variation="0;1"
       strokepath="M 197.91399,559.48962 C 251.94721,767.22503 347.43819,342.74127 491.69974,402.60419"
       prop_scale="1"
       scale_y_rel="false"
       strokepath-nodetypes="cc" />
    <linearGradient
       inkscape:collect="always"
       xlink:href="#linearGradient4172"
       id="linearGradient4177"
       gradientUnits="userSpaceOnUse"
       gradientTransform="matrix(1.0915739,0,0,1.0915739,-197.11412,-38.343667)"
       x1="426.06622"
       y1="773.11646"
       x2="223.24959"
       y2="986.45087" />
  </defs>
  <sodipodi:namedview
     id="base"
     pagecolor="#ffffff"
     bordercolor="#666666"
     borderopacity="1.0"
     inkscape:pageopacity="0.0"
     inkscape:pageshadow="2"
     inkscape:zoom="1.28"
     inkscape:cx="121.9591"
     inkscape:cy="86.914089"
     inkscape:document-units="px"
     inkscape:current-layer="layer1"
     showgrid="false"
     showborder="true"
     inkscape:window-width="1392"
     inkscape:window-height="856"
     inkscape:window-x="48"
     inkscape:window-y="0"
     inkscape:window-maximized="1"
     units="px"
     inkscape:snap-bbox="true"
     inkscape:snap-grids="true" />
  <metadata
     id="metadata7">
    <rdf:RDF>
      <cc:Work
         rdf:about="">
        <dc:format>image/svg+xml</dc:format>
        <dc:type
           rdf:resource="http://purl.org/dc/dcmitype/StillImage" />
        <dc:title />
      </cc:Work>
    </rdf:RDF>
  </metadata>
  <g
     inkscape:label="Layer 1"
     inkscape:groupmode="layer"
     id="layer1"
     transform="translate(0,-698.0315)">
    <g
       id="g4190"
       transform="translate(-26.514443,29.718446)">
      <g
         id="text4157"
         style="font-style:normal;font-variant:normal;font-weight:normal;font-stretch:normal;font-size:40px;line-height:125%;font-family:Vibur;-inkscape-font-specification:Vibur;letter-spacing:0px;word-spacing:0px;fill:#ffffff;fill-opacity:1;stroke:none;stroke-width:1px;stroke-linecap:butt;stroke-linejoin:miter;stroke-opacity:1" />
    </g>
    <path
       inkscape:connector-curvature="0"
       id="path4175"
       d="m 44.665349,732.54063 23.4375,285.31247 216.562511,-45.31242 25,-204.8438 z m 62.795981,128.1113 c 0.24673,0 0.50499,0.0131 0.7764,0.0378 4.26856,0.27141 6.40367,2.7503 6.40367,7.43832 0,5.03344 -2.14663,10.63439 -6.43986,16.80283 -2.81281,4.02183 -5.78683,7.3166 -8.920391,9.88267 0.19738,1.57913 0.44412,3.04643 0.740211,4.40343 1.75183,8.3891 4.89856,12.5837 9.43854,12.5837 1.75184,0 3.4165,-0.505 4.99562,-1.5166 2.86215,-1.8506 5.1453,-5.0582 6.84779,-9.6228 -1.20901,-0.1727 -2.31933,-0.5313 -3.33096,-1.0742 -2.61542,-1.431 -3.92312,-3.75039 -3.92312,-6.95798 0,-1.62847 0.59217,-3.04638 1.77651,-4.2554 1.33238,-1.35706 2.89834,-2.03641 4.69953,-2.03641 1.7765,0 3.30628,0.49347 4.58932,1.48042 1.72716,1.35706 2.59075,3.23227 2.59075,5.62562 -0.0248,0.98696 -0.0362,1.49358 -0.0362,1.51827 0.3371,-0.15865 0.75594,-0.38921 1.22052,-0.65962 -0.23971,-2.30328 -0.3701,-4.72763 -0.3701,-7.2985 0,-0.39478 0.0247,-0.89978 0.074,-1.51661 0.34543,-5.20617 1.30771,-9.98137 2.88683,-14.32395 2.56607,-7.00735 6.19311,-10.51103 10.88113,-10.51103 0.24674,0 0.50664,0.0131 0.77805,0.0378 4.26856,0.27141 6.40202,2.7503 6.40202,7.43832 0,5.10747 -2.19597,10.78244 -6.5879,17.0249 -2.78813,3.97248 -5.71116,7.19323 -8.7707,9.6606 0.8389,4.68807 1.76335,8.20327 2.77497,10.54727 1.87521,4.3426 4.66335,6.5138 8.36441,6.5138 0.24674,0 0.50664,-0.024 0.77805,-0.074 0.77815,-0.1415 1.85832,-0.7004 3.22239,-1.6531 -0.38837,-1.6028 -0.59546,-3.4352 -0.59546,-5.5269 0,-1.6285 0.32077,-4.8229 0.96228,-9.58499 0.32076,-2.31934 0.54282,-4.01031 0.6662,-5.07129 0.0247,-0.2714 0.0625,-0.54282 0.11185,-0.81423 0.39478,-2.34401 1.39324,-3.51519 2.99704,-3.51519 0.32076,0 0.63,0.0362 0.92609,0.11021 1.06097,0.29609 1.59063,1.34554 1.59063,3.14673 0,0.71554 -0.12336,2.25683 -0.3701,4.62551 -0.76489,7.00735 -1.14651,11.36315 -1.14651,13.06565 0,1.1596 0.23358,2.2321 0.70238,3.2191 0.69087,1.4557 1.6038,2.1844 2.73879,2.1844 1.55445,-0.024 2.96086,-1.1481 4.21922,-3.3688 1.01162,-1.8258 2.13511,-5.1321 3.36879,-9.9188 0.0494,-0.2221 0.92445,-3.71264 2.62693,-10.47325 0.44413,-1.28304 1.35706,-1.93771 2.73879,-1.96239 l 0.22206,0 c 0.54283,0.0247 1.08564,0.0871 1.62848,0.18587 3.99715,0.6662 7.25409,2.77499 9.77081,6.328 2.36868,3.33097 3.55302,7.10607 3.55302,11.32527 0,4.0219 -1.13499,7.5502 -3.40498,10.5851 -0.0494,0.05 -0.0987,0.1234 -0.14804,0.222 -0.9376,1.1597 -1.96075,1.7403 -3.07107,1.7403 -0.39477,0 -0.78955,-0.1365 -1.18434,-0.4079 -0.76488,-0.5675 -1.14815,-1.3324 -1.14815,-2.2946 0,-0.3208 0.0625,-0.653 0.18587,-0.9985 l 0.4063,-0.778 c 1.80119,-2.9115 2.71411,-5.7852 2.73879,-8.6227 0,-0.3208 -0.0115,-0.6547 -0.0362,-1.0001 -0.24674,-3.1583 -1.48043,-5.8592 -3.70107,-8.10456 -1.45576,-1.48043 -2.77663,-2.2338 -3.96096,-2.25847 -0.24674,0.96227 -0.69087,2.72727 -1.33239,5.29333 -1.35705,5.6503 -2.70095,9.9683 -4.03334,12.9537 -2.04792,4.5894 -5.49073,6.9087 -10.32679,6.958 -2.0726,0 -3.7866,-0.7155 -5.14366,-2.1466 -0.037,-0.039 -0.0672,-0.087 -0.10363,-0.1266 -2.11991,1.4357 -4.40315,2.1614 -6.85438,2.1614 -5.94637,-0.2467 -10.35146,-3.8738 -13.21362,-10.8811 -0.84639,-2.1061 -1.51611,-4.4092 -2.0249,-6.8922 -0.88587,0.3298 -1.89543,0.6183 -3.04474,0.8603 -1.11031,4.0218 -2.86216,7.537 -5.25552,10.5471 -3.3803,4.244 -7.20473,6.3659 -11.4733,6.3659 -6.1191,-0.024 -10.598211,-3.8359 -13.435701,-11.4354 -0.96352,-2.6101 -1.68734,-5.4651 -2.17458,-8.5635 -0.75536,0.3935 -1.53951,0.7663 -2.38513,1.0972 -3.57491,1.4218 -6.09326,1.2982 -7.55511,-0.3734 -0.25987,-0.2972 -0.42492,-0.6932 -0.49676,-1.1877 -0.074,-0.98416 0.24169,-1.78435 0.94747,-2.40157 0.24145,-0.21115 0.54065,-0.37424 0.89812,-0.49019 l 0.82411,-0.18258 c 2.78352,-0.46894 5.15625,-1.39461 7.12743,-2.76675 -0.0681,-1.2903 -0.10857,-2.61076 -0.10857,-3.97083 0,-0.41946 0.0247,-0.94913 0.074,-1.59065 0.34543,-5.18149 1.31922,-9.94353 2.92302,-14.28611 2.59074,-6.98267 6.230951,-10.47484 10.918971,-10.47484 z m 0.074,5.58944 c -1.99857,0.0247 -3.67638,1.35704 -5.03344,3.99715 -1.23369,2.46738 -2.22064,6.48921 -2.960861,12.06548 -0.27142,1.99857 -0.44412,3.92313 -0.51815,5.77366 1.554461,-1.55444 3.120421,-3.42966 4.699541,-5.62562 3.92312,-5.45291 5.88551,-10.08006 5.88551,-13.87982 0,-0.19739 -0.0494,-0.43096 -0.14804,-0.70238 -0.39478,-1.08564 -1.03629,-1.62847 -1.92456,-1.62847 z m 34.86405,0 c -1.45576,0.0247 -2.73879,0.653 -3.84911,1.88672 -2.81281,3.18292 -4.35574,9.83332 -4.62715,19.94957 1.48042,-1.5051 2.96085,-3.28162 4.44127,-5.32954 4.09586,-5.60094 6.14378,-10.3268 6.14378,-14.1759 0,-0.19739 -0.0494,-0.43097 -0.14804,-0.70238 -0.39479,-1.08564 -1.04782,-1.62847 -1.96075,-1.62847 z m 12.06547,10.25113 c 0.44414,0 0.87511,0.11185 1.29456,0.33392 0.9376,0.51815 1.4064,1.31922 1.4064,2.40487 0,0.44413 -0.1102,0.87674 -0.33227,1.29619 -0.49348,0.9376 -1.28304,1.40641 -2.36869,1.4064 -0.4688,0 -0.90141,-0.11185 -1.29619,-0.33391 -0.9376,-0.51815 -1.4064,-1.30771 -1.4064,-2.36868 0,-0.44413 0.11185,-0.8751 0.33391,-1.29455 0.49348,-0.96228 1.28304,-1.44424 2.36868,-1.44424 z m 42.67247,9.51256 c 0.49348,0.0247 1.00011,0.074 1.51827,0.14804 4.1452,0.64152 7.51234,2.75031 10.10308,6.328 2.39336,3.33096 3.59086,7.13068 3.59086,11.39928 0,2.2453 -0.44413,4.6025 -1.33239,7.0698 -1.28303,3.6271 -3.03487,5.4398 -5.25551,5.4398 -0.39478,0 -0.80272,-0.1348 -1.22218,-0.4063 -0.78956,-0.5921 -1.18434,-1.357 -1.18434,-2.2946 0,-0.3208 0.074,-0.6548 0.22207,-1.0002 l 0.40794,-0.7402 c 1.77651,-2.8868 2.67628,-5.7605 2.70095,-8.6226 0,-0.3208 -0.0115,-0.6547 -0.0362,-1.0001 -0.24673,-3.183 -1.48043,-5.8971 -3.70107,-8.14238 -1.45574,-1.48044 -2.76346,-2.23217 -3.92312,-2.25683 -0.41946,0.78956 -1.32087,2.55291 -2.70261,5.29171 l -0.0362,0.076 c -0.0247,0.049 -0.0494,0.086 -0.074,0.1102 -1.06096,2.0479 -2.18445,3.0711 -3.3688,3.0711 -0.34543,0 -0.70237,-0.074 -1.07248,-0.2221 -0.98695,-0.4441 -1.48042,-1.1843 -1.48042,-2.2206 0,-0.3948 0.12336,-0.9491 0.3701,-1.6647 0.0494,-0.1727 0.0855,-0.29606 0.11021,-0.37009 0.0247,-0.0493 0.074,-0.1612 0.14805,-0.33391 2.24531,-5.08279 3.36879,-7.64887 3.36879,-7.69822 0,-0.0247 0.0115,-0.0494 0.0362,-0.074 0.49348,-1.25836 1.43108,-1.88672 2.81281,-1.88672 z m -76.09391,5.47758 c -0.24674,0 -0.50499,0.0494 -0.77641,0.14804 -0.78956,0.2961 -1.18434,0.83891 -1.18434,1.62847 0.0247,1.4064 1.20899,2.22064 3.55303,2.4427 0,-0.17272 0.0115,-0.43262 0.0362,-0.77805 0.0494,-0.51815 0.074,-0.88825 0.074,-1.11032 0,-0.12337 -0.0115,-0.25825 -0.0362,-0.40629 -0.12337,-1.28304 -0.67934,-1.92455 -1.66629,-1.92455 z m 39.28229,28.66114 c 0.27141,0 0.54282,0.024 0.81423,0.074 1.135,0.2713 1.7025,1.3439 1.7025,3.219 0,0.7402 -0.50499,4.9101 -1.51662,12.5096 l 4.03334,0 c 0.5675,0 1.06098,0.099 1.48042,0.2961 1.01164,0.4441 1.51827,1.2962 1.51827,2.5546 0,0.2221 -0.0378,0.4556 -0.11186,0.7024 -0.41945,1.2336 -1.40641,1.8504 -2.96085,1.8504 l -4.69953,0 c -1.94923,14.5823 -2.92467,22.8727 -2.92467,24.8713 0,1.135 0.23522,2.1959 0.70403,3.1829 0.69087,1.4804 1.61531,2.2206 2.77497,2.2206 0.81424,0 1.61696,-0.3701 2.40652,-1.1103 2.02325,-1.8999 3.93464,-6.5879 5.73583,-14.0641 0.22207,-0.9376 0.38326,-1.6399 0.48196,-2.1088 0.41945,-1.9245 0.9376,-4.0958 1.55445,-6.5138 0.54282,-1.2831 1.45574,-1.9377 2.73878,-1.9624 0.49348,0.024 0.98696,0.074 1.48044,0.1481 4.14519,0.6661 7.51234,2.7765 10.10308,6.3296 2.41803,3.331 3.62704,7.1307 3.62704,11.3992 0,4.0219 -1.13498,7.5502 -3.40498,10.5851 -0.98694,1.283 -2.05943,1.9361 -3.2191,1.9607 -0.49348,0 -0.95076,-0.1974 -1.37022,-0.5921 -0.66619,-0.6168 -0.99846,-1.3077 -0.99846,-2.0726 0,-0.3208 0.0609,-0.653 0.18423,-0.9985 l 0.44413,-0.8142 c 1.7765,-2.8375 2.67792,-5.7128 2.7026,-8.6243 0,-0.3208 -0.0132,-0.653 -0.0378,-0.9985 -0.24673,-3.1829 -1.49194,-5.897 -3.73726,-8.1423 -1.43108,-1.4557 -2.73878,-2.2092 -3.92313,-2.2585 -0.24673,0.9869 -0.7287,2.9608 -1.44423,5.9217 -1.25837,5.3295 -2.55292,9.4385 -3.8853,12.3253 -0.51815,1.1104 -1.17282,2.122 -1.96238,3.035 -2.27,2.64 -5.05813,3.9592 -8.36441,3.9592 -2.46739,-0.024 -4.47747,-1.0609 -6.03192,-3.1089 -1.57912,-2.1465 -2.36868,-4.8113 -2.36868,-7.9943 0,-2.5907 0.45564,-6.8839 1.36857,-12.8796 l 1.62847,-11.7316 -3.21911,0 c -0.34544,0 -0.69087,-0.038 -1.03629,-0.1118 -1.35706,-0.3455 -2.03641,-1.2831 -2.03641,-2.8129 0,-0.4441 0.11186,-0.8504 0.33391,-1.2205 0.56751,-0.8636 1.48043,-1.2962 2.73879,-1.2962 l 0.33228,0 c 1.35705,0.024 2.57923,0.038 3.66487,0.038 l 1.59064,-11.3993 c 0.0987,-0.6415 0.19739,-1.1843 0.29608,-1.6284 0.4688,-1.8259 1.40641,-2.7389 2.81282,-2.7389 z m -34.82621,22.0204 c 1.20902,0 2.35552,0.3208 3.44117,0.9623 1.77651,1.1103 2.66476,2.6401 2.66476,4.5893 0,0.7896 -0.0609,1.8012 -0.18423,3.0349 0.59217,-0.3207 1.45576,-0.8635 2.59076,-1.6284 1.33238,-0.9376 2.33085,-1.4065 2.99703,-1.4065 0.76489,0 1.45575,0.1974 2.0726,0.5922 0.71553,0.4441 1.07413,0.9014 1.07413,1.3702 0,0.1481 -0.0872,0.5428 -0.2599,1.1844 -1.28303,4.2685 -1.92455,8.0304 -1.92455,11.2874 0,2.418 0.24674,4.392 0.74021,5.9217 0.69087,2.0232 1.71566,3.0349 3.07271,3.0349 0.76489,-0.05 2.01009,-0.5922 3.73725,-1.6285 1.5051,-1.0116 2.62859,-1.5166 3.3688,-1.5166 0.37011,0 0.74021,0.1348 1.11032,0.4063 0.64152,0.4688 0.96228,1.0247 0.96228,1.6663 -0.074,1.3817 -1.03631,2.7881 -2.88683,4.2192 -2.19598,1.6038 -4.53998,2.4049 -7.03203,2.4049 -0.29609,0 -0.60534,-0.012 -0.92609,-0.036 -2.73879,-0.3455 -4.74887,-1.9246 -6.03191,-4.7374 -0.93761,-1.6531 -1.4064,-4.5153 -1.40641,-8.5864 0,-0.7896 0.0247,-1.6285 0.074,-2.5168 0.14805,-2.6895 0.37011,-4.614 0.66619,-5.7737 -0.76488,0.3702 -1.69097,0.6662 -2.77662,0.8883 -0.14805,0.7649 -0.3076,1.5182 -0.48032,2.2584 -3.03488,12.8304 -8.26571,19.2456 -15.69252,19.2456 -3.10889,-0.024 -5.37888,-1.5923 -6.80996,-4.7011 -0.32076,0.37 -0.69086,0.7533 -1.11032,1.148 -2.49206,2.3687 -5.00878,3.5531 -7.550181,3.5531 -1.57912,0 -2.94934,-0.408 -4.109,-1.2222 -0.92394,-0.677 -1.67544,-1.5889 -2.25683,-2.7339 -0.15293,0.1841 -0.28994,0.3699 -0.45071,0.5528 -2.52354,2.904 -4.81963,3.9494 -6.88563,3.1351 -0.36728,-0.1446 -0.69458,-0.421 -0.9853,-0.8273 -0.51747,-0.8405 -0.60367,-1.6971 -0.2599,-2.5694 0.11761,-0.2984 0.30806,-0.58 0.57243,-0.8471 l 0.64975,-0.5396 c 2.71123,-2.0344 4.60424,-4.3782 5.67661,-7.032 0.0812,-0.2059 0.15442,-0.4303 0.22864,-0.6514 0.005,-0.1242 0.003,-0.2422 0.01,-0.3684 -0.0561,-0.047 -0.11169,-0.094 -0.17272,-0.1431 l 0.1793,0.071 c 0.0246,-0.4218 0.0585,-0.8522 0.10527,-1.2962 0.51815,-4.2192 1.85054,-7.9696 3.99715,-11.2513 2.61542,-4.0217 5.760501,-6.0319 9.436901,-6.0319 1.60379,0 2.99868,0.2945 4.18303,0.8867 0.4688,-0.5676 1.12184,-0.862 1.96074,-0.8867 0.39478,0 0.76489,0.048 1.11032,0.1465 0.9376,0.3454 1.40641,1.3817 1.40641,3.1089 0,0.7155 -0.12338,2.2453 -0.37011,4.5893 -0.74021,7.0567 -1.11032,11.4239 -1.11032,13.1017 0,1.1351 0.22206,2.196 0.66619,3.1829 0.69087,1.4805 1.61696,2.2207 2.77662,2.2207 0.46881,0 0.93761,-0.086 1.40641,-0.2582 3.479,-1.2091 6.42669,-6.5386 8.84472,-15.9887 -0.98695,-0.2467 -1.89988,-0.6546 -2.73879,-1.2222 -2.2453,-1.5051 -3.36715,-3.6879 -3.36715,-6.55 0,-1.061 0.27142,-2.0611 0.81424,-2.9986 1.08565,-1.8753 2.81281,-2.8129 5.18149,-2.8129 z m 0.0362,4.5532 c -0.14804,0 -0.30759,0.024 -0.48031,0.074 -0.71497,0.2218 -1.07356,0.7034 -1.07413,1.4426 0.0253,1.3808 0.88892,2.3689 2.59074,2.9608 0.24674,-1.5297 0.37012,-2.5167 0.37011,-2.9608 0,-0.1481 -0.0247,-0.3077 -0.074,-0.4803 -0.17271,-0.6909 -0.61684,-1.0363 -1.33239,-1.0363 z m -19.54163,3.775 c -0.4688,0 -0.9376,0.061 -1.4064,0.1843 -2.26999,0.6909 -4.19455,2.8375 -5.773671,6.4398 -1.43108,3.2323 -2.14662,6.4531 -2.14662,9.6606 0,0.4689 0.0247,0.9129 0.074,1.3324 0.22207,2.3934 0.97544,3.5908 2.25847,3.5908 0.69088,0 1.529781,-0.347 2.516731,-1.0379 1.15967,-0.8142 2.08411,-1.6646 2.77498,-2.5529 0.1974,-0.2961 0.4688,-1.0725 0.81424,-2.3308 0.96228,-3.6024 1.67781,-7.3166 2.14661,-11.141 0.0247,-0.1481 0.17269,-1.3818 0.44413,-3.7011 -0.61684,-0.2961 -1.18434,-0.4442 -1.7025,-0.4442 z"
       style="opacity:1;fill:url(#linearGradient4177);fill-opacity:1;stroke:none;stroke-width:1;stroke-miterlimit:4;stroke-dasharray:none;stroke-opacity:1"
       sodipodi:nodetypes="cccccccscccscccscsccccsccscscccsccscccscscscccccccccsccscsccccccccccccccccccccscscccscccccccccsccccccsccscscscscscccscscscccccccccscscccscccsccccscssccscscscscscscccccccscccscccccccccccsccscscsccccccscsccscscscccscccsccscccccccscccccccccccccccscccscscscccscsscccccccccccscscccccsc" />
  </g>
</svg>
