<?xml version="1.0" encoding="UTF-8" standalone="no"?>
<!-- Created with Inkscape (http://www.inkscape.org/) -->

<svg
   xmlns:osb="http://www.openswatchbook.org/uri/2009/osb"
   xmlns:dc="http://purl.org/dc/elements/1.1/"
   xmlns:cc="http://creativecommons.org/ns#"
   xmlns:rdf="http://www.w3.org/1999/02/22-rdf-syntax-ns#"
   xmlns:svg="http://www.w3.org/2000/svg"
   xmlns="http://www.w3.org/2000/svg"
   xmlns:xlink="http://www.w3.org/1999/xlink"
   xmlns:sodipodi="http://sodipodi.sourceforge.net/DTD/sodipodi-0.dtd"
   xmlns:inkscape="http://www.inkscape.org/namespaces/inkscape"
   width="10in"
   height="10in"
   viewBox="0 0 900.00002 900.00002"
   id="svg2"
   version="1.1"
   inkscape:version="0.91 r13725"
   sodipodi:docname="BROSIS.svg"
   inkscape:export-filename="/Users/westworld/Documents/BROSIS.png"
   inkscape:export-xdpi="50"
   inkscape:export-ydpi="50">
  <defs
     id="defs4">
    <linearGradient
       inkscape:collect="always"
       id="linearGradient4403">
      <stop
         style="stop-color:#4e0056;stop-opacity:0.99607843"
         offset="0"
         id="stop4405" />
      <stop
         style="stop-color:#000000;stop-opacity:1"
         offset="1"
         id="stop4407" />
    </linearGradient>
    <linearGradient
       id="linearGradient4397"
       inkscape:collect="always">
      <stop
         id="stop4399"
         offset="0"
         style="stop-color:#4e0056;stop-opacity:0.99607843" />
      <stop
         id="stop4401"
         offset="1"
         style="stop-color:#ffffff;stop-opacity:1" />
    </linearGradient>
    <linearGradient
       inkscape:collect="always"
       id="linearGradient4887">
      <stop
         style="stop-color:#b50000;stop-opacity:1"
         offset="0"
         id="stop4889" />
      <stop
         style="stop-color:#0e232e;stop-opacity:1"
         offset="1"
         id="stop4891" />
    </linearGradient>
    <linearGradient
       osb:paint="gradient"
       id="linearGradient5221">
      <stop
         id="stop5223"
         offset="0"
         style="stop-color:#3f0060;stop-opacity:0.93725491" />
      <stop
         id="stop5225"
         offset="1"
         style="stop-color:#dc0000;stop-opacity:0;" />
    </linearGradient>
    <linearGradient
       osb:paint="gradient"
       id="linearGradient5215">
      <stop
         id="stop5217"
         offset="0"
         style="stop-color:#47005c;stop-opacity:0.89019608" />
      <stop
         id="stop5219"
         offset="1"
         style="stop-color:#dc0000;stop-opacity:0;" />
    </linearGradient>
    <linearGradient
       id="linearGradient5209"
       inkscape:collect="always">
      <stop
         id="stop5211"
         offset="0"
         style="stop-color:#340067;stop-opacity:1" />
      <stop
         id="stop5213"
         offset="1"
         style="stop-color:#dc0000;stop-opacity:0;" />
    </linearGradient>
    <linearGradient
       id="linearGradient5063"
       osb:paint="gradient">
      <stop
         style="stop-color:#dc0000;stop-opacity:1;"
         offset="0"
         id="stop5065" />
      <stop
         style="stop-color:#dc0000;stop-opacity:0;"
         offset="1"
         id="stop5067" />
    </linearGradient>
    <linearGradient
       inkscape:collect="always"
       xlink:href="#linearGradient4403"
       id="linearGradient4170"
       x1="238.74013"
       y1="536.80902"
       x2="239.10515"
       y2="599.35883"
       gradientUnits="userSpaceOnUse"
       gradientTransform="matrix(0.76339203,0,0,0.76339203,165.90828,400.60712)" />
    <linearGradient
       inkscape:collect="always"
       xlink:href="#linearGradient5209"
       id="linearGradient4161"
       x1="280.7868"
       y1="530.97546"
       x2="280.67178"
       y2="496.12695"
       gradientUnits="userSpaceOnUse"
       gradientTransform="translate(130.09552,0)" />
    <radialGradient
       inkscape:collect="always"
       xlink:href="#linearGradient5209"
       id="radialGradient5195"
       cx="372.04724"
       cy="516.99811"
       fx="372.04724"
       fy="516.99811"
       r="66.240234"
       gradientTransform="matrix(1,0,0,0.22069881,0,402.89724)"
       gradientUnits="userSpaceOnUse" />
    <linearGradient
       inkscape:collect="always"
       xlink:href="#linearGradient4397"
       id="linearGradient5338"
       gradientUnits="userSpaceOnUse"
       gradientTransform="translate(109.54807,271.289)"
       x1="280.7868"
       y1="530.97546"
       x2="280.67178"
       y2="489.07248" />
    <linearGradient
       inkscape:collect="always"
       xlink:href="#linearGradient4887"
       id="linearGradient4833"
       gradientUnits="userSpaceOnUse"
       gradientTransform="translate(-35.00831,-5.2255547)"
       x1="280.7868"
       y1="530.97546"
       x2="281.04376"
       y2="495.75497" />
    <linearGradient
       inkscape:collect="always"
       xlink:href="#linearGradient5209"
       id="linearGradient4367"
       gradientUnits="userSpaceOnUse"
       gradientTransform="matrix(5.4341823,0,0,5.4341823,-864.80989,-2045.8752)"
       x1="280.7868"
       y1="530.97546"
       x2="280.37592"
       y2="487.25122" />
    <linearGradient
       inkscape:collect="always"
       xlink:href="#linearGradient5209"
       id="linearGradient4369"
       gradientUnits="userSpaceOnUse"
       gradientTransform="matrix(4.1156006,0,0,4.1156006,-550.56183,-1319.1773)"
       x1="238.74013"
       y1="536.80902"
       x2="239.10515"
       y2="559.52179" />
    <linearGradient
       inkscape:collect="always"
       xlink:href="#linearGradient4397"
       id="linearGradient4774"
       gradientUnits="userSpaceOnUse"
       gradientTransform="translate(761.16593,-181.38452)"
       x1="280.7868"
       y1="530.97546"
       x2="280.67178"
       y2="478.28326" />
    <linearGradient
       inkscape:collect="always"
       xlink:href="#linearGradient4397"
       id="linearGradient4812"
       gradientUnits="userSpaceOnUse"
       gradientTransform="matrix(0.99533142,0,0,0.99533142,280.18927,356.69255)"
       x1="280.7868"
       y1="530.97546"
       x2="280.67178"
       y2="478.28326" />
    <linearGradient
       inkscape:collect="always"
       xlink:href="#linearGradient4403"
       id="linearGradient4880"
       gradientUnits="userSpaceOnUse"
       gradientTransform="matrix(0.76339203,0,0,0.76339203,817.52614,-52.0664)"
       x1="238.74013"
       y1="536.80902"
       x2="239.10515"
       y2="599.35883" />
    <linearGradient
       inkscape:collect="always"
       xlink:href="#linearGradient5209"
       id="linearGradient4526"
       gradientUnits="userSpaceOnUse"
       gradientTransform="matrix(0.8284356,0,0,0.8284356,-57.60662,185.81792)"
       x1="353.59058"
       y1="746.83966"
       x2="354.65857"
       y2="693.96039" />
    <linearGradient
       inkscape:collect="always"
       xlink:href="#linearGradient5209"
       id="linearGradient4528"
       gradientUnits="userSpaceOnUse"
       gradientTransform="matrix(0.8284356,0,0,0.8284356,-57.60662,185.81792)"
       x1="354.4205"
       y1="683.39392"
       x2="353.59058"
       y2="804.10541" />
  </defs>
  <sodipodi:namedview
     id="base"
     pagecolor="#ffffff"
     bordercolor="#666666"
     borderopacity="1.0"
     inkscape:pageopacity="0.0"
     inkscape:pageshadow="2"
     inkscape:zoom="0.4225"
     inkscape:cx="447.19753"
     inkscape:cy="318.31937"
     inkscape:document-units="px"
     inkscape:current-layer="layer1"
     showgrid="false"
     inkscape:window-width="1392"
     inkscape:window-height="856"
     inkscape:window-x="47"
     inkscape:window-y="0"
     inkscape:window-maximized="0"
     inkscape:object-nodes="true"
     inkscape:snap-bbox="true"
     inkscape:snap-bbox-midpoints="true"
     inkscape:snap-nodes="true"
     inkscape:bbox-nodes="true"
     inkscape:snap-global="true"
     units="in" />
  <metadata
     id="metadata7">
    <rdf:RDF>
      <cc:Work
         rdf:about="">
        <dc:format>image/svg+xml</dc:format>
        <dc:type
           rdf:resource="http://purl.org/dc/dcmitype/StillImage" />
        <dc:title />
      </cc:Work>
    </rdf:RDF>
  </metadata>
  <g
     inkscape:label="Layer 1"
     inkscape:groupmode="layer"
     id="layer1"
     transform="translate(0,-152.36217)">
    <text
       xml:space="preserve"
       style="font-style:normal;font-weight:normal;font-size:40px;line-height:125%;font-family:sans-serif;letter-spacing:0px;word-spacing:0px;fill:#000000;fill-opacity:1;stroke:none;stroke-width:1px;stroke-linecap:butt;stroke-linejoin:miter;stroke-opacity:1"
       x="464.03232"
       y="521.56134"
       id="text5263"
       sodipodi:linespacing="125%"><tspan
         sodipodi:role="line"
         id="tspan5265"
         x="464.03232"
         y="521.56134" /></text>
    <text
       xml:space="preserve"
       style="font-style:normal;font-weight:normal;font-size:40px;line-height:125%;font-family:sans-serif;letter-spacing:0px;word-spacing:0px;fill:#000000;fill-opacity:1;stroke:none;stroke-width:1px;stroke-linecap:butt;stroke-linejoin:miter;stroke-opacity:1"
       x="469.33032"
       y="815.82971"
       id="text4377"
       sodipodi:linespacing="125%"><tspan
         sodipodi:role="line"
         id="tspan4379"
         x="469.33032"
         y="815.82971" /></text>
    <g
       style="font-style:normal;font-weight:normal;font-size:217.36729431px;line-height:125%;font-family:sans-serif;letter-spacing:0px;word-spacing:0px;fill:url(#linearGradient4367);fill-opacity:1;stroke:none;stroke-width:0.5;stroke-linecap:butt;stroke-linejoin:miter;stroke-miterlimit:4;stroke-dasharray:none;stroke-opacity:1"
       id="text4359">
      <path
         d="m 90.038475,839.31488 0,-4.77614 16.345005,-1.06136 0,-139.7816 -16.345005,-1.06137 0,-4.77614 56.782965,0 q 9.12772,0 16.55727,0.8491 7.53568,0.84909 14.85909,3.18409 7.32341,2.22886 12.20568,5.94363 4.98841,3.71478 7.96023,9.87069 3.07796,6.04977 3.07796,14.22227 0,6.47432 -2.86568,11.99341 -2.86569,5.41296 -7.32341,9.02159 -4.3516,3.60864 -10.1891,6.47432 -5.8375,2.75955 -11.25045,4.24546 -5.41296,1.48591 -10.82591,2.22886 l 0,0.42455 q 10.71977,0 19.74136,2.54727 9.0216,2.44114 15.70819,7.32341 6.79273,4.88227 10.61363,12.8425 3.82091,7.85409 3.82091,17.93705 0,9.12773 -3.29022,16.45114 -3.29023,7.21727 -8.80932,11.99341 -5.51909,4.77613 -13.05478,7.96022 -7.42954,3.18409 -15.49591,4.56387 -8.06636,1.37977 -16.87568,1.37977 l -61.346825,0 z m 43.515915,-6.89886 q 5.73136,1.06136 11.03818,1.06136 16.87568,0 26.42796,-9.76455 9.65841,-9.76454 9.65841,-26.53409 0,-17.93705 -9.97682,-27.38318 -9.87068,-9.55228 -27.38319,-9.55228 -4.9884,0 -9.76454,0.74296 l 0,71.42978 z m 0,-78.64706 q 4.45773,0.63682 8.1725,0.63682 32.15932,0 32.15932,-31.84091 0,-13.58546 -7.21727,-21.22728 -7.21728,-7.64181 -22.07637,-7.64181 -5.30682,0 -11.03818,1.06136 l 0,59.01182 z"
         style="font-style:normal;font-variant:normal;font-weight:normal;font-stretch:normal;font-family:Vidaloka;-inkscape-font-specification:Vidaloka;fill:url(#linearGradient4367);fill-opacity:1;stroke:none;stroke-width:0.5;stroke-miterlimit:4;stroke-dasharray:none;stroke-opacity:1"
         id="path4222" />
      <path
         d="m 225.04394,839.31488 0,-4.77614 16.345,-1.06136 0,-139.7816 -16.345,-1.06137 0,-4.77614 56.57069,0 q 11.78113,0 21.22727,2.0166 9.55227,2.01659 16.98182,6.36818 7.53568,4.35159 11.56886,11.78114 4.13932,7.32341 4.13932,17.40636 0,18.14932 -12.20568,28.33841 -12.20568,10.08296 -33.00841,13.05478 l 0,0.21227 q 8.91545,0.10614 15.38977,2.86568 6.58046,2.75955 10.40137,7.11114 3.92704,4.24545 7.42954,11.03818 2.335,4.67 6.58046,14.32841 4.35159,9.55228 8.59704,16.98182 3.39637,6.04978 7.11114,9.34 3.71477,3.29023 6.26205,4.03319 2.54727,0.74295 5.8375,0.74295 l 0,5.8375 -17.61864,0 q -8.06636,0 -12.73636,-0.95523 -4.67001,-1.06136 -9.34001,-4.88227 -4.56386,-3.82091 -8.1725,-10.5075 -3.60863,-6.79273 -12.31182,-28.23228 -1.27363,-3.18409 -3.71477,-8.1725 -2.335,-5.09454 -4.13932,-7.64182 -1.69818,-2.65341 -4.13932,-5.51909 -2.335,-2.86568 -4.88227,-4.03318 -2.44114,-1.27364 -5.20068,-1.27364 -4.67,0 -7.11114,0.10614 l 0,65.27387 16.345,1.06136 0,4.77614 -59.86091,0 z m 43.51591,-77.16114 q 1.1675,0.10613 4.35159,0.10613 18.89228,0 26.5341,-9.12773 7.74795,-9.23386 7.74795,-27.48932 0,-9.12772 -2.22886,-15.49591 -2.12273,-6.36818 -6.15591,-9.87068 -4.03318,-3.5025 -8.91546,-4.98841 -4.88227,-1.48591 -11.14432,-1.48591 -4.13932,0 -10.18909,0.84909 l 0,67.50274 z"
         style="font-style:normal;font-variant:normal;font-weight:normal;font-stretch:normal;font-family:Vidaloka;-inkscape-font-specification:Vidaloka;fill:url(#linearGradient4367);fill-opacity:1;stroke:none;stroke-width:0.5;stroke-miterlimit:4;stroke-dasharray:none;stroke-opacity:1"
         id="path4224" />
      <path
         d="m 362.49054,764.06419 q 0,-21.86409 7.85409,-39.90728 7.85409,-18.04318 23.03159,-28.97523 15.28364,-11.03818 35.13114,-11.03818 29.93046,0 48.18592,21.12114 18.36159,21.12114 18.36159,55.40319 0,12.52409 -2.54727,24.30523 -2.44114,11.78113 -7.74796,22.39477 -5.30682,10.5075 -12.94864,18.46773 -7.53568,7.85409 -18.57386,12.52409 -11.03819,4.67 -24.09296,4.67 -31.09796,0 -48.92887,-21.65182 -17.72477,-21.65182 -17.72477,-57.31364 z m 28.44455,-2.335 q 0,20.90887 4.13931,37.78455 4.13932,16.76955 12.73637,27.27705 8.70318,10.40136 20.69659,10.40136 17.83091,0 27.91387,-20.69659 10.18909,-20.69659 10.18909,-54.97864 0,-35.66182 -9.97682,-53.59887 -9.87068,-17.93705 -27.48932,-17.93705 -6.15591,0 -11.78114,2.54727 -5.51909,2.54728 -10.40136,8.17251 -4.88228,5.62522 -8.38478,13.90386 -3.5025,8.1725 -5.62522,20.27205 -2.01659,12.09954 -2.01659,26.8525 z"
         style="font-style:normal;font-variant:normal;font-weight:normal;font-stretch:normal;font-family:Vidaloka;-inkscape-font-specification:Vidaloka;fill:url(#linearGradient4367);fill-opacity:1;stroke:none;stroke-width:0.5;stroke-miterlimit:4;stroke-dasharray:none;stroke-opacity:1"
         id="path4226" />
      <path
         d="m 566.16622,689.981 q -7.64181,0 -13.47931,1.80432 -5.73137,1.80432 -9.65841,5.09455 -3.92705,3.29022 -5.94364,7.96022 -1.91046,4.56387 -1.91046,10.08296 0,3.92705 1.06137,7.74796 1.06136,3.8209 4.56386,7.85409 3.5025,3.92704 10.08296,8.1725 6.68659,4.24545 17.93704,9.12773 12.94864,5.94363 21.8641,11.14432 9.02159,5.20068 14.64682,11.03818 5.62522,5.8375 8.06636,13.16091 2.54727,7.21727 2.54727,17.30023 0,7.64182 -3.07795,15.28364 -3.07796,7.64181 -9.34,13.69159 -6.15591,6.04977 -15.60205,9.87068 -9.34,3.71477 -21.97023,3.71477 -14.01,0 -23.56227,-2.65341 -9.55228,-2.54727 -15.38978,-6.68659 -5.73136,-4.13932 -8.27863,-9.34 -2.54728,-5.30682 -2.54728,-10.61364 0,-3.5025 1.06137,-6.47431 1.06136,-3.07796 3.07795,-5.30682 2.12273,-2.335 5.09455,-3.60864 3.07795,-1.37977 6.89886,-1.37977 3.5025,0 6.36818,1.27363 2.86569,1.1675 4.77614,3.29023 2.01659,2.01659 3.07796,4.88227 1.1675,2.75955 1.1675,6.04978 0,7.53568 -4.3516,11.35659 -4.35159,3.82091 -11.25045,3.82091 l 0,0.42454 q 0.74295,0.8491 2.86568,2.335 2.22886,1.48591 6.04977,2.97182 3.92705,1.48591 9.55228,2.65341 5.73136,1.06137 13.47932,1.06137 6.36818,0 12.63023,-1.69819 6.36818,-1.69818 11.25045,-4.88227 4.98841,-3.18409 8.06637,-7.74795 3.07795,-4.56387 3.07795,-10.29523 0,-4.88228 -1.80432,-9.12773 -1.80432,-4.24546 -6.79273,-8.59705 -4.9884,-4.45772 -13.90386,-9.44613 -8.80932,-5.09455 -23.03159,-11.46273 -10.5075,-4.45773 -17.30023,-9.76455 -6.68659,-5.41295 -10.61364,-11.35659 -3.82091,-6.04977 -5.30682,-12.52409 -1.48591,-6.58046 -1.48591,-13.47932 0,-8.70319 3.18409,-16.45114 3.18409,-7.74796 9.23387,-13.47932 6.04977,-5.8375 14.85909,-9.23386 8.91546,-3.39637 20.27205,-3.39637 10.93204,0 18.99841,2.54727 8.1725,2.54728 13.47932,6.79273 5.30682,4.13932 7.96023,9.76455 2.65341,5.51909 2.65341,11.56886 0,3.18409 -1.06137,6.15591 -1.06136,2.86569 -3.07795,5.09455 -2.01659,2.12273 -4.98841,3.5025 -2.97182,1.27364 -6.79273,1.27364 -3.5025,0 -6.36818,-1.1675 -2.86569,-1.1675 -4.98841,-3.1841 -2.01659,-2.01659 -3.18409,-4.77613 -1.06137,-2.75955 -1.06137,-6.04978 0,-3.71477 1.27364,-6.58045 1.27364,-2.97182 3.39636,-4.88227 2.22887,-2.0166 5.20069,-2.97182 2.97181,-1.06137 6.36818,-1.06137 l 0,-0.42454 q -0.63682,-0.74296 -2.54728,-2.335 -1.91045,-1.69818 -5.30681,-3.29023 -3.39637,-1.69818 -8.38478,-2.86568 -4.98841,-1.27364 -11.78114,-1.27364 z"
         style="font-style:normal;font-variant:normal;font-weight:normal;font-stretch:normal;font-family:Vidaloka;-inkscape-font-specification:Vidaloka;fill:url(#linearGradient4367);fill-opacity:1;stroke:none;stroke-width:0.5;stroke-miterlimit:4;stroke-dasharray:none;stroke-opacity:1"
         id="path4228" />
      <path
         d="m 631.75851,839.31488 0,-4.77614 16.345,-1.06136 0,-139.7816 -16.345,-1.06137 0,-4.77614 59.86091,0 0,4.77614 -16.345,1.06137 0,139.7816 16.345,1.06136 0,4.77614 -59.86091,0 z"
         style="font-style:normal;font-variant:normal;font-weight:normal;font-stretch:normal;font-family:Vidaloka;-inkscape-font-specification:Vidaloka;fill:url(#linearGradient4367);fill-opacity:1;stroke:none;stroke-width:0.5;stroke-miterlimit:4;stroke-dasharray:none;stroke-opacity:1"
         id="path4230" />
      <path
         d="m 760.18356,689.981 q -7.64182,0 -13.47932,1.80432 -5.73136,1.80432 -9.65841,5.09455 -3.92705,3.29022 -5.94364,7.96022 -1.91045,4.56387 -1.91045,10.08296 0,3.92705 1.06136,7.74796 1.06137,3.8209 4.56387,7.85409 3.5025,3.92704 10.08295,8.1725 6.68659,4.24545 17.93705,9.12773 12.94864,5.94363 21.86409,11.14432 9.02159,5.20068 14.64682,11.03818 5.62523,5.8375 8.06637,13.16091 2.54727,7.21727 2.54727,17.30023 0,7.64182 -3.07796,15.28364 -3.07795,7.64181 -9.34,13.69159 -6.15591,6.04977 -15.60204,9.87068 -9.34001,3.71477 -21.97023,3.71477 -14.01001,0 -23.56228,-2.65341 -9.55227,-2.54727 -15.38977,-6.68659 -5.73137,-4.13932 -8.27864,-9.34 -2.54727,-5.30682 -2.54727,-10.61364 0,-3.5025 1.06136,-6.47431 1.06136,-3.07796 3.07796,-5.30682 2.12272,-2.335 5.09454,-3.60864 3.07796,-1.37977 6.89887,-1.37977 3.5025,0 6.36818,1.27363 2.86568,1.1675 4.77613,3.29023 2.0166,2.01659 3.07796,4.88227 1.1675,2.75955 1.1675,6.04978 0,7.53568 -4.35159,11.35659 -4.35159,3.82091 -11.25046,3.82091 l 0,0.42454 q 0.74296,0.8491 2.86568,2.335 2.22887,1.48591 6.04978,2.97182 3.92704,1.48591 9.55227,2.65341 5.73137,1.06137 13.47932,1.06137 6.36818,0 12.63023,-1.69819 6.36818,-1.69818 11.25046,-4.88227 4.98841,-3.18409 8.06636,-7.74795 3.07795,-4.56387 3.07795,-10.29523 0,-4.88228 -1.80431,-9.12773 -1.80432,-4.24546 -6.79273,-8.59705 -4.98841,-4.45772 -13.90387,-9.44613 -8.80932,-5.09455 -23.03159,-11.46273 -10.5075,-4.45773 -17.30023,-9.76455 -6.68659,-5.41295 -10.61364,-11.35659 -3.82091,-6.04977 -5.30681,-12.52409 -1.48591,-6.58046 -1.48591,-13.47932 0,-8.70319 3.18409,-16.45114 3.18409,-7.74796 9.23386,-13.47932 6.04978,-5.8375 14.85909,-9.23386 8.91546,-3.39637 20.27205,-3.39637 10.93205,0 18.99841,2.54727 8.1725,2.54728 13.47932,6.79273 5.30682,4.13932 7.96023,9.76455 2.65341,5.51909 2.65341,11.56886 0,3.18409 -1.06136,6.15591 -1.06137,2.86569 -3.07796,5.09455 -2.01659,2.12273 -4.98841,3.5025 -2.97182,1.27364 -6.79273,1.27364 -3.5025,0 -6.36818,-1.1675 -2.86568,-1.1675 -4.98841,-3.1841 -2.01659,-2.01659 -3.18409,-4.77613 -1.06136,-2.75955 -1.06136,-6.04978 0,-3.71477 1.27363,-6.58045 1.27364,-2.97182 3.39637,-4.88227 2.22886,-2.0166 5.20068,-2.97182 2.97182,-1.06137 6.36818,-1.06137 l 0,-0.42454 q -0.63682,-0.74296 -2.54727,-2.335 -1.91046,-1.69818 -5.30682,-3.29023 -3.39636,-1.69818 -8.38477,-2.86568 -4.98841,-1.27364 -11.78114,-1.27364 z"
         style="font-style:normal;font-variant:normal;font-weight:normal;font-stretch:normal;font-family:Vidaloka;-inkscape-font-specification:Vidaloka;fill:url(#linearGradient4367);fill-opacity:1;stroke:none;stroke-width:0.5;stroke-miterlimit:4;stroke-dasharray:none;stroke-opacity:1"
         id="path4232" />
    </g>
    <g
       style="font-style:normal;font-weight:normal;font-size:83.99185181px;line-height:125%;font-family:sans-serif;letter-spacing:0px;word-spacing:0px;fill:url(#linearGradient4369);fill-opacity:1;stroke:none;stroke-width:1px;stroke-linecap:butt;stroke-linejoin:miter;stroke-opacity:1"
       id="text4363">
      <path
         d="m 215.37236,930.15097 q 0,0.90225 -1.7635,2.87081 -6.76692,7.58716 -16.07656,7.58716 -10.00684,0 -17.18388,-9.02256 -4.88039,-6.06973 -4.88039,-13.0007 l 0,-7.01299 q 0,-8.65345 5.94669,-15.01026 5.94669,-6.39782 14.51812,-6.39782 8.53043,0 14.68217,5.82366 l 0,-2.91183 q 0.28708,-1.80451 1.72249,-1.80451 1.72249,0 1.72249,2.29665 l 0,9.55571 q 0,2.33767 -1.72249,2.33767 -0.6972,0 -1.14832,-0.49214 l -0.82024,-2.91183 q -0.6972,-2.66576 -3.48599,-4.79836 -4.75735,-3.65004 -10.82707,-3.65004 -7.30008,0 -12.3035,5.6186 -4.83937,5.45455 -4.83937,12.83664 l 0,6.02871 q 0,7.62817 5.45455,13.28778 5.49556,5.78264 13.08271,5.78264 4.42926,0 8.28436,-2.21463 2.41968,-1.39439 5.20848,-4.18319 2.25564,-2.21463 2.78879,-2.21463 1.64046,0 1.64046,1.59946 z"
         style="font-style:normal;font-variant:normal;font-weight:normal;font-stretch:normal;font-family:'Serto Batnan';-inkscape-font-specification:'Serto Batnan';fill:url(#linearGradient4369);fill-opacity:1;stroke:none;stroke-opacity:1"
         id="path4235" />
      <path
         d="m 268.93357,915.30475 q 0,9.8428 -5.45455,17.14287 -6.02871,8.0793 -15.54341,8.0793 -9.5147,0 -15.54341,-8.0793 -5.45455,-7.34108 -5.45455,-17.14287 0,-9.80178 5.45455,-17.14287 6.02871,-8.07929 15.54341,-8.07929 9.5147,0 15.5024,8.07929 5.49556,7.34109 5.49556,17.14287 z m -3.48599,0 q 0,-8.28435 -4.51128,-14.68217 -5.04443,-7.09501 -13.00069,-7.09501 -7.95626,0 -13.00069,7.13602 -4.55229,6.35681 -4.55229,14.64116 0,8.24334 4.55229,14.64116 5.04443,7.13603 13.00069,7.13603 7.95626,0 13.00069,-7.09502 4.51128,-6.3568 4.51128,-14.68217 z"
         style="font-style:normal;font-variant:normal;font-weight:normal;font-stretch:normal;font-family:'Serto Batnan';-inkscape-font-specification:'Serto Batnan';fill:url(#linearGradient4369);fill-opacity:1;stroke:none;stroke-opacity:1"
         id="path4237" />
      <path
         d="m 323.52007,937.61509 q 0,1.72249 -2.29665,1.72249 l -5.70062,-0.041 -13.86193,-21.40808 -11.77035,0 0,17.9631 2.91183,0 q 2.29665,0 2.29665,1.7635 0,1.72249 -2.29665,1.72249 l -9.26863,0 q -2.29665,0 -2.29665,-1.72249 0,-1.7635 2.29665,-1.7635 l 2.91183,0 0,-41.09367 -2.91183,0 q -2.29665,0 -2.29665,-1.7635 0,-1.72249 2.29665,-1.72249 l 19.11143,0.041 q 5.82365,0 10.37594,3.65004 4.88039,3.93711 4.88039,9.63773 0,8.36638 -11.85237,12.38552 l 12.26248,18.86536 2.91183,0 q 2.29665,0 2.29665,1.7635 z m -9.06357,-33.17842 q 0,-4.10117 -3.97813,-7.013 -3.65004,-2.66575 -7.91525,-2.66575 l -12.6726,0 0,19.68559 9.39167,0 q 5.16747,0 9.71976,-2.37868 5.45455,-2.91182 5.45455,-7.62816 z"
         style="font-style:normal;font-variant:normal;font-weight:normal;font-stretch:normal;font-family:'Serto Batnan';-inkscape-font-specification:'Serto Batnan';fill:url(#linearGradient4369);fill-opacity:1;stroke:none;stroke-opacity:1"
         id="path4239" />
      <path
         d="m 372.52899,905.29791 q 0,4.96241 -3.32194,8.61245 -2.99386,3.28093 -7.99728,4.92139 -2.25564,0.73821 -5.37252,0.90226 -2.25564,0.16405 -5.78264,0.041 -4.71634,-0.16404 -5.53658,-0.16404 l 0,16.24061 2.91183,0 q 2.29665,0 2.29665,1.7635 0,1.72249 -2.29665,1.72249 l -9.26863,0 q -2.29665,0 -2.29665,-1.72249 0,-1.7635 2.29665,-1.7635 l 2.91183,0 0,-41.09367 -2.91183,0 q -2.29665,0 -2.29665,-1.7635 0,-1.72249 2.29665,-1.72249 l 18.29119,0.041 q 6.39782,0 11.07315,3.73206 5.00342,3.97813 5.00342,10.25291 z m -3.44498,0 q 0,-4.63432 -3.93712,-7.71019 -3.60902,-2.8298 -8.36637,-2.8298 l -12.26249,0 0,21.40808 10.99113,0 q 5.04443,0 9.06357,-2.82981 4.51128,-3.1989 4.51128,-8.03828 z"
         style="font-style:normal;font-variant:normal;font-weight:normal;font-stretch:normal;font-family:'Serto Batnan';-inkscape-font-specification:'Serto Batnan';fill:url(#linearGradient4369);fill-opacity:1;stroke:none;stroke-opacity:1"
         id="path4241" />
      <path
         d="m 426.7464,915.30475 q 0,9.8428 -5.45455,17.14287 -6.02871,8.0793 -15.54342,8.0793 -9.5147,0 -15.54341,-8.0793 -5.45455,-7.34108 -5.45455,-17.14287 0,-9.80178 5.45455,-17.14287 6.02871,-8.07929 15.54341,-8.07929 9.51471,0 15.50241,8.07929 5.49556,7.34109 5.49556,17.14287 z m -3.48599,0 q 0,-8.28435 -4.51128,-14.68217 -5.04444,-7.09501 -13.0007,-7.09501 -7.95626,0 -13.00069,7.13602 -4.55229,6.35681 -4.55229,14.64116 0,8.24334 4.55229,14.64116 5.04443,7.13603 13.00069,7.13603 7.95626,0 13.0007,-7.09502 4.51128,-6.3568 4.51128,-14.68217 z"
         style="font-style:normal;font-variant:normal;font-weight:normal;font-stretch:normal;font-family:'Serto Batnan';-inkscape-font-specification:'Serto Batnan';fill:url(#linearGradient4369);fill-opacity:1;stroke:none;stroke-opacity:1"
         id="path4243" />
      <path
         d="m 481.33289,937.61509 q 0,1.72249 -2.29666,1.72249 l -5.70061,-0.041 -13.86194,-21.40808 -11.77034,0 0,17.9631 2.91182,0 q 2.29666,0 2.29666,1.7635 0,1.72249 -2.29666,1.72249 l -9.26863,0 q -2.29665,0 -2.29665,-1.72249 0,-1.7635 2.29665,-1.7635 l 2.91183,0 0,-41.09367 -2.91183,0 q -2.29665,0 -2.29665,-1.7635 0,-1.72249 2.29665,-1.72249 l 19.11143,0.041 q 5.82365,0 10.37595,3.65004 4.88038,3.93711 4.88038,9.63773 0,8.36638 -11.85236,12.38552 l 12.26248,18.86536 2.91182,0 q 2.29666,0 2.29666,1.7635 z m -9.06358,-33.17842 q 0,-4.10117 -3.97813,-7.013 -3.65003,-2.66575 -7.91524,-2.66575 l -12.6726,0 0,19.68559 9.39166,0 q 5.16747,0 9.71976,-2.37868 5.45455,-2.91182 5.45455,-7.62816 z"
         style="font-style:normal;font-variant:normal;font-weight:normal;font-stretch:normal;font-family:'Serto Batnan';-inkscape-font-specification:'Serto Batnan';fill:url(#linearGradient4369);fill-opacity:1;stroke:none;stroke-opacity:1"
         id="path4245" />
      <path
         d="m 540.26664,937.57408 q 0,1.72249 -2.29665,1.72249 l -9.26863,0 q -2.29665,0 -2.29665,-1.72249 0,-1.7635 2.29665,-1.7635 l 2.91183,0 -4.71634,-12.59058 -22.63843,0 -4.38825,12.59058 2.50171,0 q 2.29665,0 2.29665,1.7635 0,1.72249 -2.29665,1.72249 l -9.26863,0 q -2.29665,0 -2.29665,-1.72249 0,-1.7635 2.29665,-1.7635 l 2.91183,0 16.65072,-44.57966 5.74164,0.041 16.65072,44.53865 2.91183,0 q 2.29665,0 2.29665,1.7635 z m -14.68217,-17.79906 -9.5147,-25.05811 -1.27136,0 -9.22762,25.05811 20.01368,0 z"
         style="font-style:normal;font-variant:normal;font-weight:normal;font-stretch:normal;font-family:'Serto Batnan';-inkscape-font-specification:'Serto Batnan';fill:url(#linearGradient4369);fill-opacity:1;stroke:none;stroke-opacity:1"
         id="path4247" />
      <path
         d="m 588.04519,897.66974 q 0,2.29666 -1.72249,2.29666 -1.80451,0 -1.7635,-2.29666 l 0.041,-2.91182 -14.10801,0 0,41.09367 2.91183,0 q 2.29665,0 2.29665,1.7635 0,1.72249 -2.29665,1.72249 l -9.26863,0 q -2.29665,0 -2.29665,-1.72249 0,-1.7635 2.29665,-1.7635 l 2.91183,0 -0.041,-41.09367 -14.108,0 0.041,2.91182 q 0.041,2.29666 -1.7635,2.29666 -1.72249,0 -1.72249,-2.29666 l 0,-6.3568 38.59196,0 0,6.3568 z"
         style="font-style:normal;font-variant:normal;font-weight:normal;font-stretch:normal;font-family:'Serto Batnan';-inkscape-font-specification:'Serto Batnan';fill:url(#linearGradient4369);fill-opacity:1;stroke:none;stroke-opacity:1"
         id="path4249" />
      <path
         d="m 614.16963,937.57408 q 0,1.72249 -2.29665,1.72249 l -9.26864,0 q -2.29665,0 -2.29665,-1.72249 0,-1.7635 2.29665,-1.7635 l 2.91183,0 0,-41.09367 -2.91183,0 q -2.29665,0 -2.29665,-1.7635 0,-1.72249 2.29665,-1.72249 l 9.26864,0 q 2.29665,0 2.29665,1.72249 0,1.7635 -2.29665,1.7635 l -2.91183,0 0,41.09367 2.91183,0 q 2.29665,0 2.29665,1.7635 z"
         style="font-style:normal;font-variant:normal;font-weight:normal;font-stretch:normal;font-family:'Serto Batnan';-inkscape-font-specification:'Serto Batnan';fill:url(#linearGradient4369);fill-opacity:1;stroke:none;stroke-opacity:1"
         id="path4251" />
      <path
         d="m 668.55105,915.30475 q 0,9.8428 -5.45454,17.14287 -6.02872,8.0793 -15.54342,8.0793 -9.5147,0 -15.54341,-8.0793 -5.45455,-7.34108 -5.45455,-17.14287 0,-9.80178 5.45455,-17.14287 6.02871,-8.07929 15.54341,-8.07929 9.5147,0 15.5024,8.07929 5.49556,7.34109 5.49556,17.14287 z m -3.48599,0 q 0,-8.28435 -4.51128,-14.68217 -5.04443,-7.09501 -13.00069,-7.09501 -7.95626,0 -13.00069,7.13602 -4.55229,6.35681 -4.55229,14.64116 0,8.24334 4.55229,14.64116 5.04443,7.13603 13.00069,7.13603 7.95626,0 13.00069,-7.09502 4.51128,-6.3568 4.51128,-14.68217 z"
         style="font-style:normal;font-variant:normal;font-weight:normal;font-stretch:normal;font-family:'Serto Batnan';-inkscape-font-specification:'Serto Batnan';fill:url(#linearGradient4369);fill-opacity:1;stroke:none;stroke-opacity:1"
         id="path4253" />
      <path
         d="m 724.53197,892.95341 q 0,1.7635 -2.29665,1.7635 l -2.91183,0 0,44.53864 -4.42926,0 -25.38621,-42.93919 0,39.49422 2.91183,0 q 2.29665,0 2.29665,1.7635 0,1.72249 -2.29665,1.72249 l -9.26863,0 q -2.29665,0 -2.29665,-1.72249 0,-1.7635 2.29665,-1.7635 l 2.91183,0 0,-41.09367 -2.91183,0 q -2.29665,0 -2.29665,-1.7635 0,-1.72249 2.29665,-1.72249 l 7.30007,0.041 25.42722,43.02121 0,-39.57623 -2.91182,0 q -2.29666,0 -2.29666,-1.7635 0,-1.72249 2.29666,-1.72249 l 9.26863,0 q 2.29665,0 2.29665,1.72249 z"
         style="font-style:normal;font-variant:normal;font-weight:normal;font-stretch:normal;font-family:'Serto Batnan';-inkscape-font-specification:'Serto Batnan';fill:url(#linearGradient4369);fill-opacity:1;stroke:none;stroke-opacity:1"
         id="path4255" />
    </g>
    <g
       id="g4374"
       inkscape:export-filename="/Users/westworld/Desktop/brosis"
       inkscape:export-xdpi="716.70941"
       inkscape:export-ydpi="716.70941"
       transform="matrix(5.4341823,0,0,5.4341823,-2975.4868,-1240.2849)">
      <g
         transform="translate(-93.433369,-394.23477)"
         id="g4463"
         inkscape:export-filename="/Users/westworld/Desktop/brosis"
         inkscape:export-xdpi="716.70941"
         inkscape:export-ydpi="716.70941" />
      <g
         inkscape:export-ydpi="716.70941"
         inkscape:export-xdpi="716.70941"
         inkscape:export-filename="/Users/westworld/Desktop/brosis"
         id="g4508"
         transform="translate(395.03873,-478.85015)">
        <path
           style="opacity:0.75700001;fill:#800037;fill-opacity:0.54509804;fill-rule:evenodd;stroke:none;stroke-width:1px;stroke-linecap:butt;stroke-linejoin:miter;stroke-opacity:1"
           d="m 213.51561,820.586 43.60956,0 -21.80478,-21.80477 z"
           id="path4510"
           inkscape:connector-curvature="0" />
        <path
           sodipodi:nodetypes="ccccccccccccc"
           inkscape:connector-curvature="0"
           id="path4512"
           d="m 214.5027,752.88234 0,49.70613 8.32808,0 5.36867,0 7.12102,-7.17023 7.12101,7.17023 13.69674,0 0,-34.19424 -16.4102,10.73987 -0.24433,-10.73987 -19.57025,10.73987 0,-22.34976 z"
           style="opacity:0.84299999;fill:url(#linearGradient4526);fill-opacity:1;stroke:none;stroke-width:2;stroke-linecap:round;stroke-linejoin:round;stroke-miterlimit:4;stroke-dasharray:none;stroke-opacity:1" />
        <path
           style="opacity:0.67099998;fill:#730040;fill-opacity:0.62352941;fill-rule:evenodd;stroke:none;stroke-width:1px;stroke-linecap:butt;stroke-linejoin:miter;stroke-opacity:1"
           d="m 221.69241,814.06608 27.25597,0 -13.62798,-13.62798 z"
           id="path4514"
           inkscape:connector-curvature="0" />
        <path
           inkscape:connector-curvature="0"
           id="path4516"
           d="m 227.1436,808.61489 16.35358,0 -8.17678,-8.17679 z"
           style="opacity:1;fill:#4e0057;fill-opacity:0.84313725;fill-rule:evenodd;stroke:none;stroke-width:1px;stroke-linecap:butt;stroke-linejoin:miter;stroke-opacity:1" />
        <path
           style="opacity:0.5;fill:#47005c;fill-opacity:0.89019608;fill-rule:evenodd;stroke:none;stroke-width:1px;stroke-linecap:butt;stroke-linejoin:miter;stroke-opacity:1"
           d="m 227.1436,808.61489 16.35358,0 -8.17678,-8.17679 z"
           id="path4522"
           inkscape:connector-curvature="0" />
        <path
           inkscape:connector-curvature="0"
           id="path4524"
           d="m 214.5027,802.58847 0,-49.70613 5.41074,3.902 0,22.34976 19.57025,-10.73987 0.24433,10.73987 16.4102,-10.73987 0,34.19424 0,0"
           style="fill:none;fill-rule:evenodd;stroke:url(#linearGradient4528);stroke-width:2.48530674;stroke-linecap:butt;stroke-linejoin:miter;stroke-miterlimit:4;stroke-dasharray:none;stroke-opacity:0.99607843" />
      </g>
    </g>
    <g
       id="g4395"
       transform="matrix(2.7627764,0,0,2.7627764,-2047.9572,939.30012)">
      <g
         id="g6038"
         transform="translate(0,5.9123351e-5)">
        <path
           inkscape:connector-curvature="0"
           id="path4538"
           d="m 1034.4372,10.773048 0,-37.750937 -18.8755,18.875445 z"
           style="opacity:1;fill:#4e0058;fill-opacity:0.75294118;fill-rule:evenodd;stroke:none;stroke-width:1px;stroke-linecap:butt;stroke-linejoin:miter;stroke-opacity:1" />
        <path
           style="opacity:1;fill:#4e0058;fill-opacity:0.75294118;fill-rule:evenodd;stroke:none;stroke-width:1px;stroke-linecap:butt;stroke-linejoin:miter;stroke-opacity:1"
           d="m 773.85766,10.77305 0,-37.750937 18.8755,18.875445 z"
           id="path4540"
           inkscape:connector-curvature="0" />
      </g>
      <g
         style="font-style:normal;font-weight:normal;font-size:15.57942867px;line-height:125%;font-family:sans-serif;text-align:center;letter-spacing:0px;word-spacing:0px;text-anchor:middle;fill:#000000;fill-opacity:1;stroke:none;stroke-width:1px;stroke-linecap:butt;stroke-linejoin:miter;stroke-opacity:1"
         id="text4487" />
      <g
         transform="matrix(1,0,0,-1,-316.824,661.34157)"
         id="g6028" />
      <text
         xml:space="preserve"
         style="font-style:normal;font-weight:normal;font-size:78.67711639px;line-height:125%;font-family:sans-serif;letter-spacing:0px;word-spacing:0px;fill:#000000;fill-opacity:1;stroke:none;stroke-width:1px;stroke-linecap:butt;stroke-linejoin:miter;stroke-opacity:1"
         x="70.488281"
         y="699.74432"
         id="text4716"
         sodipodi:linespacing="125%"><tspan
           sodipodi:role="line"
           id="tspan4718"
           x="70.488281"
           y="699.74432" /></text>
      <flowRoot
         xml:space="preserve"
         id="flowRoot4776"
         style="font-style:normal;font-weight:normal;font-size:40px;line-height:125%;font-family:sans-serif;letter-spacing:0px;word-spacing:0px;fill:#000000;fill-opacity:1;stroke:none;stroke-width:1px;stroke-linecap:butt;stroke-linejoin:miter;stroke-opacity:1"><flowRegion
           id="flowRegion4778"><rect
             id="rect4780"
             width="76.777573"
             height="75.522354"
             x="219.45415"
             y="577.68018" /></flowRegion><flowPara
           id="flowPara4782" /></flowRoot>    </g>
  </g>
</svg>
