<?xml version="1.0" encoding="UTF-8" standalone="no"?>
<!-- Created with Inkscape (http://www.inkscape.org/) -->

<svg
   xmlns:dc="http://purl.org/dc/elements/1.1/"
   xmlns:cc="http://creativecommons.org/ns#"
   xmlns:rdf="http://www.w3.org/1999/02/22-rdf-syntax-ns#"
   xmlns:svg="http://www.w3.org/2000/svg"
   xmlns="http://www.w3.org/2000/svg"
   xmlns:xlink="http://www.w3.org/1999/xlink"
   xmlns:sodipodi="http://sodipodi.sourceforge.net/DTD/sodipodi-0.dtd"
   xmlns:inkscape="http://www.inkscape.org/namespaces/inkscape"
   width="500"
   height="500"
   viewBox="0 0 500.00001 500.00001"
   id="svg2"
   version="1.1"
   inkscape:version="0.91 r13725"
   sodipodi:docname="Dentist-Big-Book.svg">
  <defs
     id="defs4">
    <inkscape:path-effect
       effect="spiro"
       id="path-effect6078"
       is_visible="true" />
    <pattern
       inkscape:collect="always"
       xlink:href="#Wavy"
       id="pattern5750"
       patternTransform="matrix(0.70710678,-0.70710678,0.70710678,0.70710678,-195.74155,463.7767)" />
    <pattern
       inkscape:isstock="true"
       inkscape:stockid="Wavy"
       id="Wavy"
       height="5.1805778"
       width="30.066020"
       patternUnits="userSpaceOnUse"
       inkscape:collect="always">
      <path
         id="path5558"
         d="M 7.597,0.061 C 5.079,-0.187 2.656,0.302 -0.01,1.788 L -0.01,3.061 C 2.773,1.431 5.173,1.052 7.472,1.280 C 9.770,1.508 11.969,2.361 14.253,3.218 C 18.820,4.931 23.804,6.676 30.066,3.061 L 30.062,1.788 C 23.622,5.497 19.246,3.770 14.691,2.061 C 12.413,1.207 10.115,0.311 7.597,0.061 z "
         style="fill:black;stroke:none;" />
    </pattern>
    <filter
       inkscape:collect="always"
       style="color-interpolation-filters:sRGB"
       id="filter6070"
       x="-0.038400169"
       width="1.0768003"
       y="-0.03839983"
       height="1.0767998">
      <feGaussianBlur
         inkscape:collect="always"
         stdDeviation="3.565703"
         id="feGaussianBlur6072" />
    </filter>
  </defs>
  <sodipodi:namedview
     id="base"
     pagecolor="#ffffff"
     bordercolor="#666666"
     borderopacity="1.0"
     inkscape:pageopacity="0.0"
     inkscape:pageshadow="2"
     inkscape:zoom="0.98994949"
     inkscape:cx="272.10543"
     inkscape:cy="200.07064"
     inkscape:document-units="px"
     inkscape:current-layer="layer1"
     showgrid="false"
     inkscape:snap-global="false"
     units="px"
     inkscape:window-width="1394"
     inkscape:window-height="856"
     inkscape:window-x="51"
     inkscape:window-y="0"
     inkscape:window-maximized="0" />
  <metadata
     id="metadata7">
    <rdf:RDF>
      <cc:Work
         rdf:about="">
        <dc:format>image/svg+xml</dc:format>
        <dc:type
           rdf:resource="http://purl.org/dc/dcmitype/StillImage" />
        <dc:title></dc:title>
      </cc:Work>
    </rdf:RDF>
  </metadata>
  <g
     inkscape:label="Layer 1"
     inkscape:groupmode="layer"
     id="layer1"
     transform="translate(0,-552.36216)">
    <g
       id="g6093"
       transform="matrix(2.0055495,0,0,2.0055495,-572.27528,-270.61833)">
      <path
         transform="matrix(0.95637137,0,0,1.0109396,17.887742,-6.9358822)"
         inkscape:connector-curvature="0"
         style="opacity:1;fill:#9eabb0;fill-opacity:1;fill-rule:evenodd;stroke:none;stroke-width:0.5;stroke-linecap:square;stroke-linejoin:miter;stroke-miterlimit:4.22222233;stroke-dasharray:none;stroke-dashoffset:0;stroke-opacity:1;filter:url(#filter6070)"
         d="m 510.70312,424.64844 -201.40624,0 -10.72461,10.72265 0,201.41016 10.72461,10.72461 201.40624,0 10.72461,-10.72461 0,-201.41016 -10.72461,-10.72265 z"
         id="path5766" />
      <path
         inkscape:connector-curvature="0"
         id="path5758"
         d="m 510.70312,416.64844 -201.40624,0 -10.72461,10.72265 0,201.41016 10.72461,10.72461 201.40624,0 10.72461,-10.72461 0,-201.41016 -10.72461,-10.72265 z"
         style="opacity:1;fill:url(#pattern5750);fill-opacity:1;fill-rule:evenodd;stroke:none;stroke-width:0.5;stroke-linecap:square;stroke-linejoin:miter;stroke-miterlimit:4.22222233;stroke-dasharray:none;stroke-dashoffset:0;stroke-opacity:1" />
      <path
         sodipodi:nodetypes="sssscsssccs"
         inkscape:connector-curvature="0"
         id="path6080"
         d="m 372.87904,445.75988 c -39.85291,0.97721 -19.71369,59.35474 -7.25606,75.54031 13.81982,17.95538 1.77514,45.80632 8.51023,67.44012 2.30907,7.41696 9.51865,26.2174 10.723,20.69244 11.84701,-54.34838 16.48652,-67.9723 25.14194,-72.21449 8.65678,4.241 12.58232,10.71879 24.4303,65.07163 1.20435,5.52496 9.12822,-6.13262 11.43729,-13.54958 6.7351,-21.6338 -5.30959,-49.48474 8.51023,-67.44012 14.7646,-19.18289 40.31963,-97.62991 -35.99807,-69.54374 -5.58424,1.11537 -11.70887,1.73577 -16.75685,0 -11.92464,-4.38846 -21.36184,-6.17753 -28.74201,-5.99657 z"
         style="fill:#ffffff;fill-rule:evenodd;stroke:#000000;stroke-width:6.81670713;stroke-linecap:butt;stroke-linejoin:miter;stroke-miterlimit:4;stroke-dasharray:none;stroke-opacity:1" />
    </g>
  </g>
</svg>
