<?xml version="1.0" encoding="UTF-8" standalone="no"?>
<!-- Created with Inkscape (http://www.inkscape.org/) -->

<svg
   xmlns:dc="http://purl.org/dc/elements/1.1/"
   xmlns:cc="http://creativecommons.org/ns#"
   xmlns:rdf="http://www.w3.org/1999/02/22-rdf-syntax-ns#"
   xmlns:svg="http://www.w3.org/2000/svg"
   xmlns="http://www.w3.org/2000/svg"
   xmlns:sodipodi="http://sodipodi.sourceforge.net/DTD/sodipodi-0.dtd"
   xmlns:inkscape="http://www.inkscape.org/namespaces/inkscape"
   width="500"
   height="250"
   viewBox="0 0 499.99998 250"
   id="svg2"
   version="1.1"
   inkscape:version="0.91 r13725"
   sodipodi:docname="Happy-Hours.svg">
  <defs
     id="defs4" />
  <sodipodi:namedview
     id="base"
     pagecolor="#ffffff"
     bordercolor="#666666"
     borderopacity="1.0"
     inkscape:pageopacity="0.0"
     inkscape:pageshadow="2"
     inkscape:zoom="1.4"
     inkscape:cx="185.44063"
     inkscape:cy="104.10431"
     inkscape:document-units="px"
     inkscape:current-layer="layer1"
     showgrid="false"
     units="px"
     inkscape:window-width="1394"
     inkscape:window-height="856"
     inkscape:window-x="46"
     inkscape:window-y="0"
     inkscape:window-maximized="1" />
  <metadata
     id="metadata7">
    <rdf:RDF>
      <cc:Work
         rdf:about="">
        <dc:format>image/svg+xml</dc:format>
        <dc:type
           rdf:resource="http://purl.org/dc/dcmitype/StillImage" />
        <dc:title />
      </cc:Work>
    </rdf:RDF>
  </metadata>
  <g
     inkscape:label="Layer 1"
     inkscape:groupmode="layer"
     id="layer1"
     transform="translate(0,-802.36222)">
    <rect
       style="opacity:1;fill:#000000;fill-opacity:1;fill-rule:evenodd;stroke:none;stroke-width:5;stroke-linecap:square;stroke-linejoin:miter;stroke-miterlimit:4;stroke-dasharray:none;stroke-dashoffset:0;stroke-opacity:1"
       id="rect4137"
       width="499"
       height="249"
       x="0.49998474"
       y="802.86224" />
    <g
       transform="matrix(2.0058994,0,0,2.0058994,-138.22529,993.40613)"
       style="font-style:normal;font-weight:normal;font-size:25px;line-height:125%;font-family:sans-serif;letter-spacing:0px;word-spacing:0px;fill:#000000;fill-opacity:1;stroke:none;stroke-width:1px;stroke-linecap:butt;stroke-linejoin:miter;stroke-opacity:1"
       id="flowRoot4139">
      <path
         d="m 84.670898,-26.400788 q -0.04883,-0.02441 -0.170898,-0.146484 -0.09766,-0.09766 -0.09766,-0.146485 -0.02441,-0.292969 0,-1.245117 0.04883,-0.927734 0.146484,-2.246094 0.09766,-1.318359 0.244141,-2.905273 0.170898,-1.611328 0.366211,-3.247071 0.219726,-1.635742 0.488281,-3.173828 0.268555,-1.5625 0.561523,-2.807617 0.317383,-1.245117 0.65918,-2.026367 0.341797,-0.805664 0.732422,-0.927734 0.04883,-0.02441 0.317383,-0.04883 0.292968,-0.04883 0.610351,-0.07324 0.341797,-0.04883 0.610352,-0.07324 0.292969,-0.04883 0.366211,-0.07324 0.24414,-0.07324 0.830078,-0.244141 0.610351,-0.195312 1.269531,-0.415039 0.65918,-0.219726 1.245117,-0.415039 0.585938,-0.219726 0.805664,-0.317383 0.170899,-0.04883 0.463868,0.02441 0.292968,0.04883 0.488281,0.170899 0.195312,0.12207 0.195312,0.317383 0.02441,0.170898 -0.341797,0.341797 -1.855468,0.537109 -3.076171,1.000976 -1.220704,0.463867 -2.001954,1.049805 -0.78125,0.561523 -1.220703,1.318359 -0.439453,0.756836 -0.732422,1.879883 -0.268554,1.123047 -0.512695,2.685547 -0.219726,1.5625 -0.585937,3.735351 -0.170899,0.585938 -0.317383,1.586914 -0.12207,0.976563 -0.195313,2.050782 -0.07324,1.049804 -0.09766,2.050781 0,1.000977 0.04883,1.611328 l 8.300781,-0.415039 q 0.219727,0.366211 -0.04883,0.585938 -0.268554,0.219726 -0.683593,0.341796 -0.415039,0.122071 -0.805664,0.146485 -0.390625,0.04883 -0.41504,0.04883 -0.952148,0.12207 -1.733398,0.195312 -0.756836,0.07324 -1.513672,0.09766 -0.732422,0.04883 -1.5625,0.02441 -0.805664,0 -1.831055,-0.04883 -0.07324,-0.02441 -0.390625,-0.122071 -0.317382,-0.09766 -0.415039,-0.146484 z"
         style="font-style:normal;font-variant:normal;font-weight:normal;font-stretch:normal;font-family:'Nothing You Could Do';-inkscape-font-specification:'Nothing You Could Do';fill:#ffffff"
         id="path4139" />
      <path
         d="m 109.10938,-28.329499 q -0.24415,-0.366211 -0.19532,-1.171875 0.0732,-0.805664 0.31739,-1.806641 0.26855,-1.02539 0.65918,-2.124023 0.39062,-1.123047 0.78125,-2.124024 0.39062,-1.02539 0.708,-1.831054 0.3418,-0.805664 0.48828,-1.171875 0.1709,-0.366211 0.43946,-1.025391 0.29297,-0.683594 0.61035,-1.464844 0.3418,-0.805664 0.70801,-1.68457 0.36621,-0.878906 0.68359,-1.68457 0.3418,-0.805664 0.61035,-1.464844 0.29297,-0.65918 0.46387,-1.049805 0.53711,-0.170898 0.70801,0.04883 0.1709,0.195313 0.0976,0.683594 -0.0732,0.488281 -0.34179,1.196289 -0.26856,0.683594 -0.63477,1.489258 -0.3418,0.78125 -0.73242,1.611328 -0.36621,0.830078 -0.68359,1.586914 -0.29297,0.732422 -0.46387,1.342774 -0.14649,0.610351 -0.0732,0.976562 0.43945,0.04883 1.00097,0 0.58594,-0.04883 1.17188,-0.146484 0.61035,-0.09766 1.19629,-0.219727 0.58593,-0.12207 1.02539,-0.195312 2.22168,-0.366211 3.54004,-1.049805 1.34277,-0.683594 2.22168,-1.733398 0.90332,-1.074219 1.5625,-2.563477 0.65918,-1.489258 1.51367,-3.466797 0.21972,-0.415039 0.39062,-0.341797 0.1709,0.04883 0.26856,0.341797 0.12207,0.268555 0.1709,0.610352 0.0488,0.341797 0,0.488281 -0.0244,0.07324 -0.14649,0.317383 -0.12207,0.24414 -0.26855,0.537109 -0.14649,0.268555 -0.26856,0.512696 -0.12207,0.219726 -0.14648,0.292968 -0.0488,0.09766 -0.12207,0.341797 -0.0732,0.219727 -0.1709,0.488281 -0.0977,0.268555 -0.1709,0.512696 -0.0732,0.219726 -0.0977,0.317383 0.12207,0.02441 0.31739,0.24414 0.21972,0.195313 0.24414,0.317383 0.0732,0.415039 -0.26856,0.952148 -0.34179,0.512696 -0.85449,1.074219 -0.48828,0.561524 -0.97656,1.098633 -0.46387,0.537109 -0.63477,1.000977 -1.00097,2.441406 -1.7334,4.882812 -0.708,2.441406 -1.0498,5.053711 -0.0732,0.12207 -0.21973,0.244141 -0.14648,0.12207 -0.31738,0.02441 -0.0488,-0.53711 0.0732,-1.464844 0.14649,-0.952149 0.36621,-2.050781 0.21973,-1.123047 0.48828,-2.270508 0.26856,-1.147461 0.48829,-2.09961 0.24414,-0.976562 0.39062,-1.611328 0.14649,-0.634765 0.12207,-0.708007 -0.51269,-0.09766 -1.31836,-0.02441 -0.80566,0.04883 -1.75781,0.219727 -0.95215,0.146484 -1.97754,0.366211 -1.02539,0.219727 -2.00195,0.488281 -0.95215,0.244141 -1.78223,0.488281 -0.83008,0.219727 -1.36719,0.390625 -0.41504,0.927735 -0.68359,2.050782 -0.26856,1.098633 -0.56152,2.221679 -0.26856,1.123047 -0.61036,2.172852 -0.34179,1.025391 -0.90332,1.831055 -0.0488,-0.02441 -0.17089,-0.122071 -0.0977,-0.09766 -0.12207,-0.146484 z"
         style="font-style:normal;font-variant:normal;font-weight:normal;font-stretch:normal;font-family:'Nothing You Could Do';-inkscape-font-specification:'Nothing You Could Do';fill:#ffffff"
         id="path4141" />
      <path
         d="m 127.00488,-28.622468 q -0.58593,-0.488281 -0.65918,-1.440429 -0.0488,-0.952149 0.26856,-2.148438 0.34179,-1.196289 0.97656,-2.490234 0.65918,-1.31836 1.51367,-2.490235 0.85449,-1.196289 1.85547,-2.124023 1.00098,-0.952149 2.00195,-1.391602 1.00098,-0.463867 1.95313,-0.317383 0.95215,0.122071 1.7334,1.098633 0.48828,0.610352 0.58593,1.245117 0.0977,0.610352 -0.0244,1.269532 -0.12207,0.634765 -0.39062,1.318359 -0.26856,0.65918 -0.53711,1.342774 -0.24414,0.683593 -0.41504,1.391601 -0.14649,0.708008 -0.0488,1.44043 0.12207,0.927734 0.83008,1.098633 0.70801,0.170898 1.68457,-0.09766 1.00097,-0.268554 2.09961,-0.854492 1.09863,-0.585937 2.02636,-1.171875 0.95215,-0.585937 1.5625,-1.02539 0.63477,-0.439454 0.63477,-0.439454 0.68359,-0.146484 0.75684,0.09766 0.0976,0.219726 -0.26856,0.683593 -0.3418,0.439454 -1.0498,1.025391 -0.70801,0.561523 -1.61133,1.098633 -0.90332,0.537109 -1.92871,0.976562 -1.02539,0.439453 -2.00196,0.610352 -0.97656,0.146484 -1.85546,-0.02441 -0.8545,-0.195313 -1.41602,-0.878906 -0.26855,-0.292969 -0.41504,-0.585938 -0.12207,-0.292969 -0.41504,-0.512695 -0.36621,0.341797 -0.8789,0.90332 -0.5127,0.537109 -1.12305,1.098633 -0.58594,0.537109 -1.26953,1.025391 -0.65918,0.488281 -1.36719,0.732421 -0.70801,0.244141 -1.44043,0.170899 -0.70801,-0.07324 -1.36719,-0.634766 z m 0.26856,-0.830078 q 0.21972,0.78125 0.97656,0.732422 0.75684,-0.07324 1.75781,-0.756836 1.00098,-0.683594 2.0752,-1.855469 1.07422,-1.196289 1.92871,-2.636718 0.85449,-1.464844 1.29394,-3.076172 0.46387,-1.611328 0.24414,-3.173828 -0.58593,-0.463868 -1.46484,-0.02441 -0.87891,0.41504 -1.87988,1.391602 -0.97656,0.952148 -1.95313,2.294922 -0.95215,1.318359 -1.68457,2.685547 -0.73242,1.342773 -1.12304,2.539062 -0.36621,1.196289 -0.1709,1.879883 z"
         style="font-style:normal;font-variant:normal;font-weight:normal;font-stretch:normal;font-family:'Nothing You Could Do';-inkscape-font-specification:'Nothing You Could Do';fill:#ffffff"
         id="path4143" />
      <path
         d="m 140.55469,-19.516022 q -0.21973,-1.367188 0.14648,-2.783204 0.3418,-1.391601 0.92774,-2.783203 0.56152,-1.391601 1.14746,-2.783203 0.58593,-1.367187 0.80566,-2.685547 0,-0.04883 0.19531,-0.292968 0.21973,-0.244141 0.46387,-0.512696 0.26856,-0.292969 0.46387,-0.537109 0.21972,-0.268555 0.24414,-0.317383 0.39062,-0.854492 0.78125,-1.5625 0.41504,-0.732422 0.63476,-1.416016 0.21973,-0.683593 0.19532,-1.342773 -0.0244,-0.683594 -0.48828,-1.464844 -0.0488,-0.04883 -0.0488,-0.146484 0,-0.09766 0.0488,-0.12207 0.708,-0.903321 1.63574,-1.513672 0.92773,-0.610352 1.97754,-0.976563 1.0498,-0.366211 2.17285,-0.488281 1.12305,-0.12207 2.22168,-0.04883 0.92773,0.78125 1.17187,1.782226 0.26856,0.976563 0.0244,2.050782 -0.21973,1.049804 -0.8545,2.124023 -0.61035,1.074219 -1.41601,2.001953 -0.80566,0.927735 -1.70899,1.660156 -0.8789,0.732422 -1.66015,1.123047 -0.70801,0.341797 -1.04981,0.463867 -0.31738,0.09766 -0.63476,0.122071 -0.31738,0.02441 -0.78125,0.04883 -0.43945,0.02441 -1.36719,0.195312 -0.41504,0.07324 -0.70801,0.390625 -0.26855,0.292969 -0.46386,0.683594 -0.1709,0.366211 -0.29297,0.756836 -0.0977,0.415039 -0.19532,0.65918 -0.43945,1.074219 -0.80566,1.977539 -0.3418,0.927734 -0.65918,1.80664 -0.3418,0.903321 -0.65918,1.855469 -0.31738,0.952149 -0.65918,2.075196 -0.0488,0.12207 -0.1709,0.195312 -0.12207,0.09766 -0.24414,0.09766 -0.14648,0.02441 -0.24414,-0.04883 -0.12207,-0.04883 -0.14648,-0.24414 z m 5.51758,-11.303711 q 1.12304,0.219726 2.17285,-0.122071 1.07422,-0.341797 2.00195,-1.049804 0.92773,-0.732422 1.66016,-1.733399 0.75683,-1.02539 1.26953,-2.148437 0.51269,-1.123047 0.75683,-2.246094 0.24414,-1.147461 0.14649,-2.099609 -0.3418,-0.292969 -0.83008,-0.292969 -0.46387,-0.02441 -0.83008,0.02441 -1.31836,0.170898 -2.07519,0.683594 -0.75684,0.488281 -1.24512,1.245117 -0.46387,0.756836 -0.80566,1.757812 -0.3418,0.976563 -0.83008,2.124024 -0.0977,0.170898 -0.29297,0.610351 -0.19531,0.415039 -0.41504,0.903321 -0.21973,0.463867 -0.41504,0.90332 -0.19531,0.439453 -0.26855,0.610351 l 0,0.830079 z"
         style="font-style:normal;font-variant:normal;font-weight:normal;font-stretch:normal;font-family:'Nothing You Could Do';-inkscape-font-specification:'Nothing You Could Do';fill:#ffffff"
         id="path4145" />
      <path
         d="m 153.78711,-19.516022 q -0.21973,-1.367188 0.14648,-2.783204 0.3418,-1.391601 0.92774,-2.783203 0.56152,-1.391601 1.14746,-2.783203 0.58594,-1.367187 0.80566,-2.685547 0,-0.04883 0.19532,-0.292968 0.21972,-0.244141 0.46386,-0.512696 0.26856,-0.292969 0.46387,-0.537109 0.21973,-0.268555 0.24414,-0.317383 0.39063,-0.854492 0.78125,-1.5625 0.41504,-0.732422 0.63477,-1.416016 0.21972,-0.683593 0.19531,-1.342773 -0.0244,-0.683594 -0.48828,-1.464844 -0.0488,-0.04883 -0.0488,-0.146484 0,-0.09766 0.0488,-0.12207 0.70801,-0.903321 1.63574,-1.513672 0.92773,-0.610352 1.97754,-0.976563 1.0498,-0.366211 2.17285,-0.488281 1.12305,-0.12207 2.22168,-0.04883 0.92773,0.78125 1.17187,1.782226 0.26856,0.976563 0.0244,2.050782 -0.21973,1.049804 -0.85449,2.124023 -0.61035,1.074219 -1.41602,2.001953 -0.80566,0.927735 -1.70898,1.660156 -0.87891,0.732422 -1.66016,1.123047 -0.70801,0.341797 -1.0498,0.463867 -0.31739,0.09766 -0.63477,0.122071 -0.31738,0.02441 -0.78125,0.04883 -0.43945,0.02441 -1.36719,0.195312 -0.41504,0.07324 -0.70801,0.390625 -0.26855,0.292969 -0.46386,0.683594 -0.1709,0.366211 -0.29297,0.756836 -0.0977,0.415039 -0.19531,0.65918 -0.43946,1.074219 -0.80567,1.977539 -0.34179,0.927734 -0.65918,1.80664 -0.34179,0.903321 -0.65918,1.855469 -0.31738,0.952149 -0.65918,2.075196 -0.0488,0.12207 -0.1709,0.195312 -0.12207,0.09766 -0.24414,0.09766 -0.14648,0.02441 -0.24414,-0.04883 -0.12207,-0.04883 -0.14648,-0.24414 z m 5.51758,-11.303711 q 1.12304,0.219726 2.17285,-0.122071 1.07422,-0.341797 2.00195,-1.049804 0.92774,-0.732422 1.66016,-1.733399 0.75683,-1.02539 1.26953,-2.148437 0.51269,-1.123047 0.75684,-2.246094 0.24414,-1.147461 0.14648,-2.099609 -0.3418,-0.292969 -0.83008,-0.292969 -0.46387,-0.02441 -0.83008,0.02441 -1.31836,0.170898 -2.07519,0.683594 -0.75684,0.488281 -1.24512,1.245117 -0.46387,0.756836 -0.80566,1.757812 -0.3418,0.976563 -0.83008,2.124024 -0.0977,0.170898 -0.29297,0.610351 -0.19531,0.415039 -0.41504,0.903321 -0.21973,0.463867 -0.41504,0.90332 -0.19531,0.439453 -0.26855,0.610351 l 0,0.830079 z"
         style="font-style:normal;font-variant:normal;font-weight:normal;font-stretch:normal;font-family:'Nothing You Could Do';-inkscape-font-specification:'Nothing You Could Do';fill:#ffffff"
         id="path4147" />
      <path
         d="m 165.06641,-18.685944 q -0.21973,-0.341797 0.0244,-1.074219 0.21973,-0.708008 0.65918,-1.489258 0.41504,-0.756836 0.87891,-1.44043 0.43945,-0.659179 0.65918,-0.952148 0.19531,-0.268555 0.61035,-0.805664 0.39062,-0.537109 0.90332,-1.220703 0.51269,-0.683594 1.07422,-1.44043 0.58593,-0.756836 1.09863,-1.416016 0.51269,-0.683593 0.92773,-1.220703 0.41504,-0.537109 0.61036,-0.805664 0.19531,-0.219726 0,-0.683593 -0.19532,-0.463868 -0.61036,-1.074219 -0.39062,-0.634766 -0.90332,-1.367188 -0.48828,-0.756836 -0.90332,-1.513672 -0.39062,-0.78125 -0.61035,-1.538086 -0.19531,-0.756835 0,-1.416015 0.26856,-0.195313 0.58594,0.24414 0.31738,0.41504 0.65918,1.171875 0.36621,0.732422 0.75683,1.635743 0.39063,0.878906 0.75684,1.611328 0.36621,0.708008 0.70801,1.123047 0.36621,0.415039 0.68359,0.170898 0.63477,-0.463867 1.24512,-1.171875 0.61035,-0.732422 1.17187,-1.513672 0.56153,-0.78125 1.04981,-1.513672 0.51269,-0.756836 0.95215,-1.318359 0.1709,-0.219727 0.31738,-0.292969 0.1709,-0.09766 0.5127,0.02441 0.26855,0.09766 -0.0977,0.854492 -0.36621,0.756836 -1.14746,1.953125 -0.78125,1.19629 -1.87988,2.734375 -1.07422,1.513672 -2.29493,3.173829 -1.19629,1.635742 -2.41699,3.271484 -1.19629,1.635742 -2.19726,3.027344 -1.02539,1.416015 -1.7334,2.46582 -0.73242,1.074219 -0.95215,1.5625 -0.0977,0.219727 -0.19531,0.439453 -0.12207,0.219727 -0.31739,0.366211 -0.0488,-0.02441 -0.12207,-0.09766 -0.0977,-0.07324 -0.1709,-0.170899 -0.0977,-0.07324 -0.17089,-0.170898 -0.0977,-0.07324 -0.12207,-0.12207 z"
         style="font-style:normal;font-variant:normal;font-weight:normal;font-stretch:normal;font-family:'Nothing You Could Do';-inkscape-font-specification:'Nothing You Could Do';fill:#ffffff"
         id="path4149" />
      <path
         d="m 193.97266,-28.329499 q -0.24414,-0.366211 -0.19532,-1.171875 0.0733,-0.805664 0.31739,-1.806641 0.26855,-1.02539 0.65918,-2.124023 0.39062,-1.123047 0.78125,-2.124024 0.39062,-1.02539 0.708,-1.831054 0.3418,-0.805664 0.48829,-1.171875 0.17089,-0.366211 0.43945,-1.025391 0.29297,-0.683594 0.61035,-1.464844 0.3418,-0.805664 0.70801,-1.68457 0.36621,-0.878906 0.68359,-1.68457 0.3418,-0.805664 0.61035,-1.464844 0.29297,-0.65918 0.46387,-1.049805 0.53711,-0.170898 0.70801,0.04883 0.1709,0.195313 0.0976,0.683594 -0.0732,0.488281 -0.34179,1.196289 -0.26856,0.683594 -0.63477,1.489258 -0.3418,0.78125 -0.73242,1.611328 -0.36621,0.830078 -0.68359,1.586914 -0.29297,0.732422 -0.46387,1.342774 -0.14649,0.610351 -0.0732,0.976562 0.43945,0.04883 1.00097,0 0.58594,-0.04883 1.17188,-0.146484 0.61035,-0.09766 1.19629,-0.219727 0.58593,-0.12207 1.02539,-0.195312 2.22168,-0.366211 3.54004,-1.049805 1.34277,-0.683594 2.22168,-1.733398 0.90332,-1.074219 1.5625,-2.563477 0.65918,-1.489258 1.51367,-3.466797 0.21973,-0.415039 0.39062,-0.341797 0.1709,0.04883 0.26856,0.341797 0.12207,0.268555 0.1709,0.610352 0.0488,0.341797 0,0.488281 -0.0244,0.07324 -0.14649,0.317383 -0.12207,0.24414 -0.26855,0.537109 -0.14649,0.268555 -0.26856,0.512696 -0.12207,0.219726 -0.14648,0.292968 -0.0488,0.09766 -0.12207,0.341797 -0.0732,0.219727 -0.1709,0.488281 -0.0977,0.268555 -0.1709,0.512696 -0.0732,0.219726 -0.0977,0.317383 0.12207,0.02441 0.31738,0.24414 0.21972,0.195313 0.24414,0.317383 0.0732,0.415039 -0.26856,0.952148 -0.34179,0.512696 -0.85449,1.074219 -0.48828,0.561524 -0.97656,1.098633 -0.46387,0.537109 -0.63477,1.000977 -1.00097,2.441406 -1.73339,4.882812 -0.70801,2.441406 -1.04981,5.053711 -0.0732,0.12207 -0.21973,0.244141 -0.14648,0.12207 -0.31738,0.02441 -0.0488,-0.53711 0.0732,-1.464844 0.14649,-0.952149 0.36621,-2.050781 0.21973,-1.123047 0.48829,-2.270508 0.26855,-1.147461 0.48828,-2.09961 0.24414,-0.976562 0.39062,-1.611328 0.14649,-0.634765 0.12207,-0.708007 -0.51269,-0.09766 -1.31836,-0.02441 -0.80566,0.04883 -1.75781,0.219727 -0.95215,0.146484 -1.97754,0.366211 -1.02539,0.219727 -2.00195,0.488281 -0.95215,0.244141 -1.78223,0.488281 -0.83008,0.219727 -1.36719,0.390625 -0.41504,0.927735 -0.68359,2.050782 -0.26855,1.098633 -0.56152,2.221679 -0.26856,1.123047 -0.61035,2.172852 -0.3418,1.025391 -0.90333,1.831055 -0.0488,-0.02441 -0.17089,-0.122071 -0.0977,-0.09766 -0.12207,-0.146484 z"
         style="font-style:normal;font-variant:normal;font-weight:normal;font-stretch:normal;font-family:'Nothing You Could Do';-inkscape-font-specification:'Nothing You Could Do';fill:#ffffff"
         id="path4151" />
      <path
         d="m 212.40527,-28.329499 q -1.02539,-0.415039 -1.29394,-1.245117 -0.24414,-0.830078 0.0244,-1.831055 0.26856,-1.025391 0.92774,-2.099609 0.65918,-1.098633 1.46484,-2.001953 0.80566,-0.903321 1.61133,-1.513672 0.83008,-0.634766 1.41601,-0.708008 1.51368,-0.195313 2.36817,0.219726 0.8789,0.390625 1.19629,1.147461 0.31738,0.756836 0.1709,1.782227 -0.14649,1.000977 -0.65918,2.026367 -0.48829,1.025391 -1.29395,1.977539 -0.78125,0.952149 -1.75781,1.611328 -0.95215,0.634766 -2.02637,0.854493 -1.07422,0.195312 -2.14844,-0.219727 z m -0.26855,-1.391602 q 0.19531,0.78125 0.83008,0.878907 0.63476,0.07324 1.46484,-0.317383 0.85449,-0.415039 1.78223,-1.171875 0.92773,-0.78125 1.68457,-1.68457 0.78125,-0.903321 1.26953,-1.806641 0.51269,-0.927734 0.48828,-1.611328 0,-0.683594 -0.65918,-1.025391 -0.63477,-0.366211 -2.14844,-0.146484 -0.34179,0.317383 -0.8789,0.78125 -0.53711,0.439453 -1.12305,0.976562 -0.56152,0.53711 -1.12305,1.171875 -0.56152,0.610352 -0.97656,1.269532 -0.41504,0.659179 -0.61035,1.342773 -0.1709,0.683594 0,1.342773 z"
         style="font-style:normal;font-variant:normal;font-weight:normal;font-stretch:normal;font-family:'Nothing You Could Do';-inkscape-font-specification:'Nothing You Could Do';fill:#ffffff"
         id="path4153" />
      <path
         d="m 231.47266,-28.329499 q -0.65918,-0.268555 -1.04981,-0.708008 -0.39062,-0.439453 -0.61035,-1.000976 -0.21973,-0.561524 -0.3418,-1.171875 -0.12207,-0.634766 -0.21972,-1.269532 -0.21973,-0.146484 -0.78125,0.292969 -0.56153,0.415039 -1.29395,1.049805 -0.73242,0.634765 -1.58691,1.318359 -0.83008,0.65918 -1.61133,0.976563 -0.78125,0.317382 -1.44043,0.12207 -0.63477,-0.195313 -1.00098,-1.269531 -0.12207,-0.366211 0.0732,-1.049805 0.21973,-0.708008 0.63477,-1.538086 0.41504,-0.830078 0.95215,-1.708984 0.56152,-0.903321 1.07422,-1.660157 0.53711,-0.78125 0.97656,-1.318359 0.46387,-0.561523 0.70801,-0.732422 0.56152,0.268555 0.48828,0.830078 -0.0488,0.53711 -0.43945,1.245118 -0.36621,0.708007 -0.97657,1.513671 -0.58593,0.805664 -1.12304,1.611329 -0.5127,0.78125 -0.83008,1.513671 -0.31738,0.732422 -0.1709,1.293946 0.53711,0.219726 1.31836,-0.219727 0.80566,-0.463867 1.70898,-1.269531 0.92774,-0.805664 1.87989,-1.831055 0.97656,-1.049804 1.80664,-2.001953 0.83008,-0.976562 1.46484,-1.708984 0.63477,-0.732422 0.92774,-0.976563 0.51269,0.244141 0.51269,0.805664 0,0.53711 -0.29297,1.245117 -0.26855,0.708008 -0.68359,1.538086 -0.39063,0.805664 -0.6836,1.611329 -0.29296,0.805664 -0.34179,1.538085 -0.0488,0.732422 0.39062,1.269532 l 0.83008,0.976562 2.46582,0 q 0.1709,0 0.0732,0.146485 -0.0977,0.146484 -0.29297,0.317382 -0.17089,0.170899 -0.36621,0.341797 -0.19531,0.146485 -0.21972,0.146485 -0.63477,0.12207 -1.02539,0.02441 -0.39063,-0.07324 -0.90332,-0.292969 z"
         style="font-style:normal;font-variant:normal;font-weight:normal;font-stretch:normal;font-family:'Nothing You Could Do';-inkscape-font-specification:'Nothing You Could Do';fill:#ffffff"
         id="path4155" />
      <path
         d="m 235.74512,-28.329499 q -0.0488,-0.02441 0,-0.561523 0.0732,-0.561524 0.19531,-1.391602 0.12207,-0.830078 0.31738,-1.831055 0.19531,-1.000976 0.41504,-1.904297 0.21973,-0.927734 0.46387,-1.611328 0.26855,-0.708008 0.51269,-0.976562 0.1709,-0.170899 0.3418,0 0.1709,0.146484 0.3418,0.390625 0.1709,0.219726 0.34179,0.415039 0.1709,0.170898 0.36622,0.02441 0.68359,-0.952149 1.48925,-1.806641 0.83008,-0.878906 1.83106,-1.513672 0.0976,-0.07324 0.53711,-0.219726 0.43945,-0.170899 1.00097,-0.317383 0.56153,-0.170898 1.14746,-0.268555 0.61036,-0.12207 1.0254,-0.09766 0.43945,0 0.58593,0.219727 0.1709,0.195312 -0.14648,0.683593 -1.46485,0.02441 -2.73438,0.854493 -1.26953,0.830078 -2.34375,2.050781 -1.07422,1.220703 -1.95312,2.661133 -0.87891,1.416015 -1.53809,2.636718 -0.63476,1.220704 -1.07422,2.026368 -0.41504,0.805664 -0.61035,0.805664 -0.0244,0 -0.21972,-0.09766 -0.19532,-0.12207 -0.29297,-0.170898 z"
         style="font-style:normal;font-variant:normal;font-weight:normal;font-stretch:normal;font-family:'Nothing You Could Do';-inkscape-font-specification:'Nothing You Could Do';fill:#ffffff"
         id="path4157" />
      <path
         d="m 252.98145,-28.329499 q -0.65918,-0.390625 -0.97657,-1.074219 -0.29297,-0.708008 -0.46386,-1.367187 -0.1709,-0.65918 -0.29297,-1.098633 -0.12207,-0.463867 -0.43946,-0.366211 -0.29297,0.09766 -0.8789,0.927734 -0.58594,0.805664 -1.63574,2.685547 -0.43946,0.146485 -0.56153,-0.170898 -0.0976,-0.341797 0.0244,-0.927735 0.14648,-0.585937 0.46386,-1.293945 0.3418,-0.732422 0.78125,-1.342773 0.46387,-0.634766 0.97657,-1.025391 0.51269,-0.415039 1.00097,-0.366211 0.5127,0.02441 0.95215,0.634766 0.46387,0.610351 0.78125,2.001953 0.21973,1.049805 0.61035,1.44043 0.41504,0.390625 0.92774,0.36621 0.53711,-0.02441 1.14746,-0.390625 0.61035,-0.36621 1.26953,-0.830078 0.65918,-0.463867 1.34277,-0.927734 0.6836,-0.488281 1.31836,-0.756836 0.14649,0.219727 -0.14648,0.683594 -0.26856,0.463867 -0.83008,1.000976 -0.53711,0.512696 -1.26953,1.025391 -0.73242,0.512695 -1.48926,0.878906 -0.75684,0.341797 -1.46484,0.463867 -0.6836,0.122071 -1.14746,-0.170898 z"
         style="font-style:normal;font-variant:normal;font-weight:normal;font-stretch:normal;font-family:'Nothing You Could Do';-inkscape-font-specification:'Nothing You Could Do';fill:#ffffff"
         id="path4159" />
      <path
         d="m 273.29395,-28.622468 q -0.19532,-0.292969 -0.0488,-0.634765 0.1709,-0.341797 0.46386,-0.561524 0.29297,-0.24414 0.58594,-0.24414 0.29297,-0.02442 0.39063,0.341796 0.0977,0.366211 0,0.756836 -0.0732,0.390625 -0.29297,0.634766 -0.19531,0.244141 -0.48828,0.219727 -0.29297,-0.02442 -0.61035,-0.512696 z m 1.3916,-6.884765 q -0.0488,-0.146485 0.0488,-0.732422 0.0977,-0.585938 0.29297,-1.416016 0.19532,-0.854492 0.48828,-1.879883 0.29297,-1.02539 0.63477,-2.050781 0.3418,-1.025391 0.70801,-1.977539 0.36621,-0.952148 0.70801,-1.660156 0.36621,-0.708008 0.68359,-1.074219 0.3418,-0.366211 0.61035,-0.244141 0.0244,0.122071 -0.0976,0.830078 -0.0977,0.683594 -0.31739,1.708985 -0.21972,1.000976 -0.53711,2.22168 -0.29297,1.220703 -0.63476,2.392578 -0.31739,1.171875 -0.6836,2.197265 -0.36621,1.000977 -0.708,1.611328 -0.3418,0.610352 -0.65918,0.683594 -0.31739,0.07324 -0.53711,-0.610351 z"
         style="font-style:normal;font-variant:normal;font-weight:normal;font-stretch:normal;font-family:'Nothing You Could Do';-inkscape-font-specification:'Nothing You Could Do';fill:#ffffff"
         id="path4161" />
      <path
         d="m 294.29004,-25.985749 q -0.14649,-0.219727 0.24414,-0.463867 0.41504,-0.219727 1.12305,-0.439453 0.708,-0.195313 1.5625,-0.390625 0.85449,-0.170899 1.61132,-0.317383 0.75684,-0.146485 1.26954,-0.244141 0.51269,-0.07324 0.53711,-0.07324 -0.0244,-0.854492 0.0244,-2.197266 0.0488,-1.367187 0.12207,-2.954101 0.0732,-1.611328 0.1709,-3.344727 0.12207,-1.733398 0.19531,-3.320312 0.0732,-1.611328 0.0977,-2.954102 0.0244,-1.342773 -0.0244,-2.197265 -0.36621,-0.02441 -1.0498,0.04883 -0.65918,0.07324 -1.48926,0.170898 -0.83008,0.09766 -1.7334,0.170899 -0.90332,0.07324 -1.70898,0.04883 -0.80567,-0.02441 -1.41602,-0.170899 -0.61035,-0.170898 -0.85449,-0.561523 -0.14648,-0.195313 0.48828,-0.439453 0.65918,-0.244141 1.70899,-0.439453 1.0498,-0.219727 2.31933,-0.317383 1.26953,-0.122071 2.39258,-0.04883 1.12305,0.07324 1.87988,0.366211 0.78125,0.292968 0.85449,0.878906 0.0977,0.952148 0.0733,2.368164 -0.0244,1.416016 -0.12207,3.100586 -0.0733,1.660156 -0.19532,3.442383 -0.0976,1.782226 -0.17089,3.466797 -0.0732,1.660156 -0.0732,3.100585 0.0244,1.416016 0.1709,2.34375 0,0.07324 0.0244,0.244141 0.0244,0.170899 0,0.341797 0,0.195312 -0.0733,0.341797 -0.0488,0.146484 -0.21972,0.170898 -0.87891,-0.09766 -2.05078,0.146485 -1.14747,0.268554 -2.27051,0.488281 -1.12305,0.244141 -2.0752,0.244141 -0.92773,0 -1.34277,-0.610352 z"
         style="font-style:normal;font-variant:normal;font-weight:normal;font-stretch:normal;font-family:'Nothing You Could Do';-inkscape-font-specification:'Nothing You Could Do';fill:#ffffff"
         id="path4163" />
    </g>
  </g>
</svg>
