<?xml version="1.0" encoding="UTF-8" standalone="no"?>
<!-- Created with Inkscape (http://www.inkscape.org/) -->

<svg
   xmlns:dc="http://purl.org/dc/elements/1.1/"
   xmlns:cc="http://creativecommons.org/ns#"
   xmlns:rdf="http://www.w3.org/1999/02/22-rdf-syntax-ns#"
   xmlns:svg="http://www.w3.org/2000/svg"
   xmlns="http://www.w3.org/2000/svg"
   xmlns:sodipodi="http://sodipodi.sourceforge.net/DTD/sodipodi-0.dtd"
   xmlns:inkscape="http://www.inkscape.org/namespaces/inkscape"
   width="500"
   height="800"
   viewBox="0 0 500.00002 799.99997"
   id="svg2"
   version="1.1"
   inkscape:version="0.91 r13725"
   sodipodi:docname="Hide-Out-Cafe.svg">
  <defs
     id="defs4">
    <filter
       inkscape:collect="always"
       style="color-interpolation-filters:sRGB"
       id="filter4438"
       x="-0.1428"
       width="1.2855999"
       y="-0.1428"
       height="1.2855999">
      <feGaussianBlur
         inkscape:collect="always"
         stdDeviation="8.1599997"
         id="feGaussianBlur4440" />
    </filter>
  </defs>
  <sodipodi:namedview
     id="base"
     pagecolor="#ffffff"
     bordercolor="#666666"
     borderopacity="1.0"
     inkscape:pageopacity="0.0"
     inkscape:pageshadow="2"
     inkscape:zoom="1"
     inkscape:cx="180.23753"
     inkscape:cy="392.70581"
     inkscape:document-units="px"
     inkscape:current-layer="g4228"
     showgrid="false"
     inkscape:snap-bbox="true"
     inkscape:snap-bbox-midpoints="true"
     inkscape:bbox-nodes="true"
     inkscape:snap-intersection-paths="true"
     inkscape:object-paths="true"
     inkscape:object-nodes="true"
     inkscape:snap-smooth-nodes="true"
     inkscape:snap-midpoints="true"
     inkscape:snap-global="false"
     inkscape:window-width="1394"
     inkscape:window-height="856"
     inkscape:window-x="46"
     inkscape:window-y="0"
     inkscape:window-maximized="1"
     inkscape:snap-bbox-edge-midpoints="true"
     inkscape:bbox-paths="true"
     units="px" />
  <metadata
     id="metadata7">
    <rdf:RDF>
      <cc:Work
         rdf:about="">
        <dc:format>image/svg+xml</dc:format>
        <dc:type
           rdf:resource="http://purl.org/dc/dcmitype/StillImage" />
        <dc:title></dc:title>
      </cc:Work>
    </rdf:RDF>
  </metadata>
  <g
     inkscape:label="Layer 1"
     inkscape:groupmode="layer"
     id="layer1"
     transform="translate(0,-252.36222)">
    <g
       id="g4228"
       transform="matrix(0.49888279,0,0,0.49888279,188.56514,406.79334)">
      <g
         id="g4279"
         transform="matrix(0.26707668,0,0,0.26707668,36.285162,325.24062)">
        <g
           id="g4213"
           transform="matrix(17.877506,0,0,20.066338,-1742.3823,-12405.014)"
           style="fill:#ff6600">
          <rect
             y="-208.43092"
             x="516.57684"
             height="164.07307"
             width="265.56772"
             id="rect4215"
             style="opacity:0.65899999;fill:#ff6600;fill-opacity:1;fill-rule:evenodd;stroke:none;stroke-width:5.56037426;stroke-linecap:square;stroke-linejoin:miter;stroke-miterlimit:4;stroke-dasharray:none;stroke-dashoffset:0;stroke-opacity:1"
             transform="matrix(0,1,-1,0,0,0)" />
        </g>
        <g
           style="fill:#dc0000"
           transform="matrix(17.877506,0,0,15.784351,-1742.3823,-10193.038)"
           id="g4588">
          <rect
             transform="matrix(0,1,-1,0,0,0)"
             style="opacity:0.65899999;fill:#b50000;fill-opacity:1;fill-rule:evenodd;stroke:none;stroke-width:5.56037426;stroke-linecap:square;stroke-linejoin:miter;stroke-miterlimit:4;stroke-dasharray:none;stroke-dashoffset:0;stroke-opacity:1"
             id="rect4466"
             width="265.56772"
             height="164.07307"
             x="516.57684"
             y="-208.43092" />
        </g>
        <g
           transform="matrix(42.795274,0,0,42.795274,-12180.116,-31017.5)"
           id="text4691"
           style="font-style:normal;font-weight:normal;font-size:5.30911112px;line-height:125%;font-family:sans-serif;letter-spacing:5.72597647px;word-spacing:0px;fill:#000000;fill-opacity:1;stroke:#000000;stroke-width:1px;stroke-linecap:butt;stroke-linejoin:round;stroke-opacity:1">
          <g
             id="flowRoot4179"
             style="font-style:normal;font-weight:normal;font-size:7.5px;line-height:125%;font-family:sans-serif;letter-spacing:0px;word-spacing:0px;fill:#000000;fill-opacity:1;stroke:none;stroke-width:1px;stroke-linecap:butt;stroke-linejoin:miter;stroke-opacity:1"
             transform="matrix(3.2588593,0,0,3.2588593,-833.01704,-1713.8217)">
            <path
               inkscape:connector-curvature="0"
               id="path4218"
               style="font-style:normal;font-variant:normal;font-weight:300;font-stretch:condensed;font-family:'Avenir Next Condensed';-inkscape-font-specification:'Avenir Next Condensed,  Light Condensed'"
               d="m 341.83484,769.69037 q -0.2175,0.4425 -0.555,0.6225 -0.33,0.18 -0.645,0.18 -0.4125,0 -0.7275,-0.21 -0.3075,-0.2175 -0.5175,-0.585 -0.21,-0.375 -0.3225,-0.8775 -0.105,-0.51 -0.105,-1.1025 0,-0.5925 0.105,-1.1025 0.1125,-0.51 0.3225,-0.8775 0.21,-0.375 0.5175,-0.585 0.315,-0.21 0.7275,-0.21 0.3,0 0.6075,0.1575 0.315,0.1575 0.5175,0.54 l -0.135,0.0825 q -0.1875,-0.3375 -0.4575,-0.48 -0.2625,-0.15 -0.5325,-0.15 -0.3825,0 -0.6675,0.21 -0.285,0.2025 -0.4725,0.555 -0.18,0.3525 -0.2775,0.8325 -0.09,0.48 -0.09,1.0275 0,0.5475 0.09,1.0275 0.0975,0.4725 0.285,0.8325 0.1875,0.3525 0.4725,0.5625 0.285,0.2025 0.66,0.2025 0.2925,0 0.585,-0.18 0.2925,-0.18 0.48,-0.555 l 0.135,0.0825 0,0 z" />
            <path
               inkscape:connector-curvature="0"
               id="path4220"
               style="font-style:normal;font-variant:normal;font-weight:300;font-stretch:condensed;font-family:'Avenir Next Condensed';-inkscape-font-specification:'Avenir Next Condensed,  Light Condensed'"
               d="m 345.7277,768.85787 -1.8675,0 -0.405,1.515 -0.165,0 1.3725,-5.31 0.285,0 1.3275,5.31 -0.165,0 -0.3825,-1.515 z m -1.83,-0.15 1.7925,0 -0.87,-3.5325 -0.03,0 -0.8925,3.5325 z" />
            <path
               inkscape:connector-curvature="0"
               id="path4222"
               style="font-style:normal;font-variant:normal;font-weight:300;font-stretch:condensed;font-family:'Avenir Next Condensed';-inkscape-font-specification:'Avenir Next Condensed,  Light Condensed'"
               d="m 348.41258,765.21287 0,2.3325 1.59,0 0,0.15 -1.59,0 0,2.6775 -0.165,0 0,-5.31 1.875,0 0,0.15 -1.71,0 z" />
            <path
               inkscape:connector-curvature="0"
               id="path4224"
               style="font-style:normal;font-variant:normal;font-weight:300;font-stretch:condensed;font-family:'Avenir Next Condensed';-inkscape-font-specification:'Avenir Next Condensed,  Light Condensed'"
               d="m 352.39309,770.37287 0,-5.31 1.9125,0 0,0.15 -1.7475,0 0,2.3325 1.6425,0 0,0.15 -1.6425,0 0,2.5275 1.8,0 0,0.15 -1.965,0 z" />
          </g>
        </g>
        <g
           transform="matrix(39.306246,0,0,39.306246,-13504.785,-27622.861)"
           id="g4659">
          <path
             sodipodi:nodetypes="czcc"
             inkscape:connector-curvature="0"
             id="path4538"
             d="m 374.24422,730.10599 c -9.11616,3.78649 -32.88386,-14.05844 -32.17906,-2.26321 0.7048,11.79523 6.1386,19.6847 13.46029,19.73495 11.18805,-0.51184 17.09895,-5.78036 18.71877,-17.47174 z"
             style="opacity:0.65899999;fill:#f2b62a;fill-opacity:1;fill-rule:evenodd;stroke:none;stroke-width:2.47768879;stroke-linecap:round;stroke-linejoin:round;stroke-miterlimit:4;stroke-dasharray:none;stroke-dashoffset:0;stroke-opacity:1" />
          <path
             style="opacity:0.65899999;fill:#b88100;fill-opacity:1;fill-rule:evenodd;stroke:none;stroke-width:2.47768879;stroke-linecap:round;stroke-linejoin:round;stroke-miterlimit:4;stroke-dasharray:none;stroke-dashoffset:0;stroke-opacity:1"
             d="m 375.54415,725.61335 c -3.46001,11.09304 -35.75718,-1.44478 -32.94866,9.83083 3.74283,7.44983 5.60827,12.0833 12.92996,12.13355 11.18805,-0.51184 18.39888,-10.273 20.0187,-21.96438 z"
             id="path4540"
             inkscape:connector-curvature="0"
             sodipodi:nodetypes="cccc" />
          <path
             sodipodi:nodetypes="cccc"
             inkscape:connector-curvature="0"
             id="path4179"
             d="m 375.54415,725.61335 c -3.46001,11.09304 -35.75718,-1.44478 -32.94866,9.83083 3.74283,7.44983 5.60827,12.0833 12.92996,12.13355 11.18805,-0.51184 18.39888,-10.273 20.0187,-21.96438 z"
             style="opacity:0.37120002;fill:#785400;fill-opacity:0.84023665;fill-rule:evenodd;stroke:none;stroke-width:2.47768879;stroke-linecap:round;stroke-linejoin:round;stroke-miterlimit:4;stroke-dasharray:none;stroke-dashoffset:0;stroke-opacity:1" />
          <g
             style="stroke-width:2.5;stroke-miterlimit:4;stroke-dasharray:none"
             id="g4655">
            <path
               inkscape:connector-curvature="0"
               id="path4527"
               d="m 376.75,729.4872 8.125,-0.125 0,10.375 0,0"
               style="fill:none;fill-rule:evenodd;stroke:#000000;stroke-width:2.5;stroke-linecap:round;stroke-linejoin:round;stroke-miterlimit:4;stroke-dasharray:none;stroke-opacity:1" />
            <path
               sodipodi:nodetypes="ccssc"
               inkscape:connector-curvature="0"
               id="path4476"
               d="m 375.40676,717.5106 c -15.38778,13.70896 -27.42341,-6.44537 -44.845,-9.81922 4.25365,2.93005 9.83855,12.90314 11.69432,26.93342 1.30022,9.83019 9.99836,15.28634 17.47782,13.16637 9.98583,-2.83036 18.91075,-14.50373 15.67286,-30.28057 z"
               style="opacity:1;fill:none;fill-opacity:1;fill-rule:evenodd;stroke:#000000;stroke-width:2.5;stroke-linecap:round;stroke-linejoin:round;stroke-miterlimit:4;stroke-dasharray:none;stroke-dashoffset:0;stroke-opacity:1" />
            <path
               style="opacity:1;fill:none;fill-opacity:1;fill-rule:evenodd;stroke:#000000;stroke-width:2.5;stroke-linecap:round;stroke-linejoin:round;stroke-miterlimit:4;stroke-dasharray:none;stroke-dashoffset:0;stroke-opacity:1"
               d="m 375.40676,717.5106 c -15.38778,13.70896 -27.42341,-6.44537 -44.845,-9.81922 4.25365,2.93005 9.83855,12.90314 11.69432,26.93342 1.30022,9.83019 9.99836,15.28634 17.47782,13.16637 9.98583,-2.83036 18.91075,-14.50373 15.67286,-30.28057 z"
               id="path4185"
               inkscape:connector-curvature="0"
               sodipodi:nodetypes="ccssc" />
            <path
               sodipodi:nodetypes="ccssc"
               inkscape:connector-curvature="0"
               id="path4221"
               d="m 375.40676,717.5106 c -15.38778,13.70896 -27.42341,-6.44537 -44.845,-9.81922 4.25365,2.93005 9.83855,12.90314 11.69432,26.93342 1.30022,9.83019 9.99836,15.28634 17.47782,13.16637 9.98583,-2.83036 18.91075,-14.50373 15.67286,-30.28057 z"
               style="opacity:1;fill:none;fill-opacity:1;fill-rule:evenodd;stroke:#000000;stroke-width:2.5;stroke-linecap:round;stroke-linejoin:round;stroke-miterlimit:4;stroke-dasharray:none;stroke-dashoffset:0;stroke-opacity:1" />
            <path
               inkscape:connector-curvature="0"
               id="path4223"
               d="m 375.40676,717.5106 c -15.38778,13.70896 -27.42341,-6.44537 -44.845,-9.81922 4.25365,2.93005 9.83855,12.90314 11.69432,26.93342 1.30022,9.83019 9.99836,15.28634 17.47782,13.16637 9.98583,-2.83036 18.91075,-14.50373 15.67286,-30.28057 z"
               style="opacity:1;fill:none;fill-opacity:1;fill-rule:evenodd;stroke:#000000;stroke-width:2.5;stroke-linecap:round;stroke-linejoin:round;stroke-miterlimit:4;stroke-dasharray:none;stroke-dashoffset:0;stroke-opacity:1" />
          </g>
          <path
             id="circle4542"
             style="opacity:0.77999998;fill:none;fill-opacity:1;fill-rule:evenodd;stroke:#000000;stroke-width:2.5;stroke-linecap:round;stroke-linejoin:round;stroke-miterlimit:4;stroke-dasharray:none;stroke-dashoffset:0;stroke-opacity:1"
             sodipodi:type="arc"
             sodipodi:cx="357.27203"
             sodipodi:cy="732.78418"
             sodipodi:rx="5.7792549"
             sodipodi:ry="5.7792549"
             sodipodi:start="0"
             sodipodi:end="3.1415927"
             d="m 363.05129,732.78418 a 5.7792549,5.7792549 0 0 1 -2.88963,5.00498 5.7792549,5.7792549 0 0 1 -5.77925,0 5.7792549,5.7792549 0 0 1 -2.88963,-5.00498"
             sodipodi:open="true" />
        </g>
        <g
           id="g4675"
           transform="matrix(39.306246,0,0,39.306246,-13436.288,-27534.422)">
          <g
             id="g4574"
             transform="translate(1.9891071,1.7857928e-8)"
             style="font-style:normal;font-weight:normal;font-size:medium;line-height:125%;font-family:sans-serif;letter-spacing:0px;word-spacing:0px;fill:#9eabb0;fill-opacity:1;stroke:none;stroke-width:1px;stroke-linecap:butt;stroke-linejoin:miter;stroke-opacity:1">
            <path
               inkscape:connector-curvature="0"
               id="path4551"
               style="font-style:normal;font-variant:normal;font-weight:normal;font-stretch:normal;font-family:'.SF NS Display Condensed';-inkscape-font-specification:'.SF NS Display Condensed, ';letter-spacing:5.00000048px;fill:#9eabb0"
               d="m 347.16939,696.05622 0,-10.00954 -0.53413,0 0,10.00954 0.53413,0 z" />
          </g>
          <g
             id="g6512">
            <path
               transform="translate(-0.0108929,0)"
               style="font-style:normal;font-variant:normal;font-weight:normal;font-stretch:normal;font-size:medium;line-height:125%;font-family:'.SF NS Display Condensed';-inkscape-font-specification:'.SF NS Display Condensed, ';letter-spacing:5.00000048px;word-spacing:0px;fill:#9eabb0;fill-opacity:1;stroke:none;stroke-width:1px;stroke-linecap:butt;stroke-linejoin:miter;stroke-opacity:1"
               d="m 356.83864,686.04736 0,0.49945 1.98296,0 c 2.39314,0 3.70693,1.57507 3.70693,4.50233 0,2.93419 -1.31379,4.50604 -3.70693,4.50604 l -1.98296,0 0,0.49943 2.01254,0 c 2.70528,0 4.22487,-1.75219 4.22487,-5.00547 0,-3.24635 -1.52652,-5.00178 -4.22487,-5.00178 l -2.01254,0 z"
               id="path4553"
               inkscape:connector-curvature="0" />
            <path
               style="fill:none;fill-rule:evenodd;stroke:#bdcdd4;stroke-width:1px;stroke-linecap:round;stroke-linejoin:round;stroke-opacity:1"
               d="m 356.19415,663.27669 c -4.84177,8.174 6.5947,35.08296 -2.65166,47.90649"
               id="path4616"
               inkscape:connector-curvature="0"
               sodipodi:nodetypes="cc" />
          </g>
          <g
             transform="translate(-2,0)"
             id="g6519">
            <path
               transform="translate(-0.0108929,0)"
               inkscape:connector-curvature="0"
               style="font-style:normal;font-variant:normal;font-weight:normal;font-stretch:normal;font-size:medium;line-height:125%;font-family:'.SF NS Display Condensed';-inkscape-font-specification:'.SF NS Display Condensed, ';letter-spacing:5.00000048px;word-spacing:0px;fill:#9eabb0;fill-opacity:1;stroke:none;stroke-width:1px;stroke-linecap:butt;stroke-linejoin:miter;stroke-opacity:1"
               d="m 372.40402,686.04736 0,0.49205 4.62812,0 0,-0.49205 -4.62812,0 z"
               id="path4651" />
            <path
               transform="translate(-0.0108929,0)"
               inkscape:connector-curvature="0"
               style="font-style:normal;font-variant:normal;font-weight:normal;font-stretch:normal;font-size:medium;line-height:125%;font-family:'.SF NS Display Condensed';-inkscape-font-specification:'.SF NS Display Condensed, ';letter-spacing:5.00000048px;word-spacing:0px;fill:#9eabb0;fill-opacity:1;stroke:none;stroke-width:1px;stroke-linecap:butt;stroke-linejoin:miter;stroke-opacity:1"
               d="m 372.40402,690.67919 0,0.48833 4.40614,0 0,-0.48833 -4.40614,0 z"
               id="path4649" />
            <path
               transform="translate(-0.0108929,0)"
               style="font-style:normal;font-variant:normal;font-weight:normal;font-stretch:normal;font-size:medium;line-height:125%;font-family:'.SF NS Display Condensed';-inkscape-font-specification:'.SF NS Display Condensed, ';letter-spacing:5.00000048px;word-spacing:0px;fill:#9eabb0;fill-opacity:1;stroke:none;stroke-width:1px;stroke-linecap:butt;stroke-linejoin:miter;stroke-opacity:1"
               d="m 372.65402,695.56256 0,0.49205 4.37812,0 0,-0.49205 -4.37812,0 z"
               id="path4555"
               inkscape:connector-curvature="0" />
            <path
               sodipodi:nodetypes="cc"
               inkscape:connector-curvature="0"
               id="path4645"
               d="m 372.36527,675.4743 c -3.37105,5.80884 4.07304,21.69783 -1.63936,29.61773"
               style="fill:none;fill-rule:evenodd;stroke:#bdcdd4;stroke-width:1;stroke-linecap:round;stroke-linejoin:round;stroke-miterlimit:4;stroke-dasharray:none;stroke-opacity:1" />
          </g>
          <g
             transform="translate(4,0)"
             id="g6507">
            <path
               transform="translate(-0.0108929,0)"
               style="font-style:normal;font-variant:normal;font-weight:normal;font-stretch:normal;font-size:medium;line-height:125%;font-family:'.SF NS Display Condensed';-inkscape-font-specification:'.SF NS Display Condensed, ';letter-spacing:5.00000048px;word-spacing:0px;fill:#9eabb0;fill-opacity:1;stroke:none;stroke-width:1px;stroke-linecap:butt;stroke-linejoin:miter;stroke-opacity:1"
               d="m 330.97971,686.04736 0,10.00725 0.53273,0 0,-4.89078 5.46051,0 0,-0.49205 -5.46051,0 0,-4.62442 -0.53273,0 z"
               id="path4549"
               inkscape:connector-curvature="0" />
            <path
               style="fill:none;fill-rule:evenodd;stroke:#bdcdd4;stroke-width:1;stroke-linecap:round;stroke-linejoin:round;stroke-miterlimit:4;stroke-dasharray:none;stroke-opacity:1"
               d="m 336.81799,670.9184 c -3.37105,5.80884 4.07304,21.69783 -1.63936,29.61773"
               id="path4653"
               inkscape:connector-curvature="0"
               sodipodi:nodetypes="cc" />
          </g>
        </g>
        <path
           inkscape:connector-curvature="0"
           id="path4177"
           d="m 676.7348,940.52812 c -43.96345,-10.78761 -76.92869,-21.67484 -193.32288,-63.84837 -120.21132,-43.55657 -161.745,-55.25307 -205.0743,-57.75187 -41.95116,-2.41938 -66.20343,9.89853 -75.91744,38.55916 -2.67137,7.88153 -5.09369,11.92573 -5.85237,9.77068 -0.71182,-2.0221 -4.14814,-14.0098 -7.63603,-26.6395 C 163.72395,749.3397 120.67683,649.46372 78.93902,585.4167 68.850474,569.93582 60.91443,556.95139 61.303477,556.56234 c 0.388262,-0.38826 12.630292,4.28795 27.20268,10.39327 37.459083,15.69404 102.368703,49.67229 156.826033,82.09376 25.61453,15.24969 68.63223,40.87481 95.59489,56.94456 66.01049,39.34216 132.49885,72.1164 174.5608,86.04678 53.21175,17.6228 68.21201,20.07925 122.0285,19.98277 40.73304,-0.0784 49.33756,-0.80202 68.63224,-5.81766 39.34627,-10.22758 70.88513,-24.33817 106.62508,-47.70392 l 20.83478,-13.62134 1.61972,10.32719 c 3.30102,21.03814 4.81544,84.65434 2.59744,109.11977 -2.17957,24.04363 -2.6896,25.67041 -10.60721,33.84039 -17.94047,18.51188 -50.62314,34.00865 -90.16962,42.75494 -26.08496,5.76903 -35.44482,5.70766 -60.31479,-0.39414 z"
           style="opacity:0.91000001;fill:#ffffff;fill-opacity:0;fill-rule:evenodd;stroke:none;stroke-width:2.5;stroke-linecap:square;stroke-linejoin:miter;stroke-miterlimit:4;stroke-dasharray:none;stroke-dashoffset:0;stroke-opacity:1"
           transform="matrix(2.0044786,0,0,2.0044786,-377.97483,-815.40864)" />
        <circle
           r="375.33441"
           cy="1199.7562"
           cx="-949.37469"
           id="circle4140"
           style="opacity:1;fill:#ffffff;fill-opacity:1;fill-rule:evenodd;stroke:#ffffff;stroke-width:17.37137604;stroke-linecap:square;stroke-linejoin:miter;stroke-miterlimit:4;stroke-dasharray:none;stroke-dashoffset:0;stroke-opacity:1" />
        <circle
           style="opacity:1;fill:#b88100;fill-opacity:1;fill-rule:evenodd;stroke:#ffffff;stroke-width:32.77617645;stroke-linecap:square;stroke-linejoin:miter;stroke-miterlimit:4;stroke-dasharray:none;stroke-dashoffset:0;stroke-opacity:1"
           id="path4138"
           cx="-949.37469"
           cy="1199.7562"
           r="224.75093" />
        <circle
           r="68.571426"
           cy="524.21936"
           cx="434.71429"
           id="circle4144"
           style="opacity:0.65899999;fill:none;fill-opacity:1;fill-rule:evenodd;stroke:#2d2d2d;stroke-width:3.25701118;stroke-linecap:square;stroke-linejoin:miter;stroke-miterlimit:4;stroke-dasharray:none;stroke-dashoffset:0;stroke-opacity:1;filter:url(#filter4438)"
           transform="matrix(3.3278117,0,0,3.3278117,-2396.0218,-544.74706)" />
      </g>
    </g>
  </g>
</svg>
