<?xml version="1.0" encoding="UTF-8" standalone="no"?>
<!-- Created with Inkscape (http://www.inkscape.org/) -->

<svg
   xmlns:dc="http://purl.org/dc/elements/1.1/"
   xmlns:cc="http://creativecommons.org/ns#"
   xmlns:rdf="http://www.w3.org/1999/02/22-rdf-syntax-ns#"
   xmlns:svg="http://www.w3.org/2000/svg"
   xmlns="http://www.w3.org/2000/svg"
   xmlns:sodipodi="http://sodipodi.sourceforge.net/DTD/sodipodi-0.dtd"
   xmlns:inkscape="http://www.inkscape.org/namespaces/inkscape"
   width="165mm"
   height="50mm"
   viewBox="0 0 584.64586 177.16535"
   id="svg2"
   version="1.1"
   inkscape:version="0.91 r13725"
   sodipodi:docname="jadhav automotive.svg">
  <defs
     id="defs4" />
  <sodipodi:namedview
     id="base"
     pagecolor="#ffffff"
     bordercolor="#666666"
     borderopacity="1.0"
     inkscape:pageopacity="0.0"
     inkscape:pageshadow="2"
     inkscape:zoom="1.4"
     inkscape:cx="292.71149"
     inkscape:cy="37.918027"
     inkscape:document-units="px"
     inkscape:current-layer="g4156"
     showgrid="false"
     width="100mm"
     inkscape:window-width="1394"
     inkscape:window-height="856"
     inkscape:window-x="46"
     inkscape:window-y="0"
     inkscape:window-maximized="1"
     inkscape:snap-bbox="true"
     inkscape:snap-others="false" />
  <metadata
     id="metadata7">
    <rdf:RDF>
      <cc:Work
         rdf:about="">
        <dc:format>image/svg+xml</dc:format>
        <dc:type
           rdf:resource="http://purl.org/dc/dcmitype/StillImage" />
        <dc:title />
      </cc:Work>
    </rdf:RDF>
  </metadata>
  <g
     inkscape:label="Layer 1"
     inkscape:groupmode="layer"
     id="layer1"
     transform="translate(0,-875.19685)">
    <g
       id="g4626"
       transform="translate(-222.26023,232.20141)">
      <g
         id="g4156"
         transform="translate(1.7646889e-6,1.5250001)">
        <g
           transform="translate(161.99896,370.77601)"
           style="font-style:normal;font-weight:normal;font-size:40px;line-height:125%;font-family:sans-serif;letter-spacing:0px;word-spacing:0px;fill:#1778e1;fill-opacity:1;stroke:#1778e1;stroke-width:6.10000181;stroke-linecap:butt;stroke-linejoin:miter;stroke-miterlimit:4;stroke-dasharray:none;stroke-opacity:1"
           id="flowRoot4136">
          <path
             d="m 216.54,325.77896 q 0,9.27 -4.95,14.4 -4.95,5.04 -13.77,5.04 -5.31,0 -9.9,-2.34 -4.59,-2.34 -8.01,-6.66 l 4.23,-6.66 q 2.97,3.51 6.48,5.4 3.6,1.8 7.11,1.8 4.86,0 7.47,-2.88 2.61,-2.97 2.61,-8.37 l 0,-35.73 -22.23,0 0,-7.92 30.96,0 0,43.92 z"
             style="font-style:normal;font-variant:normal;font-weight:normal;font-stretch:normal;font-size:90px;font-family:Montserrat;-inkscape-font-specification:Montserrat;fill:#1778e1;fill-opacity:1;stroke:#1778e1;stroke-width:6.10000181;stroke-miterlimit:4;stroke-dasharray:none;stroke-opacity:1"
             id="path4173" />
          <path
             d="m 278.16328,344.85896 -6.66,-15.3 -33.21,0 -6.57,15.3 -9.09,0 27.99,-63 9,0 27.9,63 -9.36,0 z m -36.45,-23.13 26.46,0 -13.32,-30.6 -13.14,30.6 z"
             style="font-style:normal;font-variant:normal;font-weight:normal;font-stretch:normal;font-size:90px;font-family:Montserrat;-inkscape-font-specification:Montserrat;fill:#1778e1;fill-opacity:1;stroke:#1778e1;stroke-width:6.10000181;stroke-miterlimit:4;stroke-dasharray:none;stroke-opacity:1"
             id="path4175" />
          <path
             d="m 322.40391,281.85896 q 9.18,0 16.56,4.14 7.47,4.05 11.7,11.25 4.23,7.2 4.23,16.11 0,8.91 -4.32,16.11 -4.23,7.2 -11.7,11.34 -7.47,4.05 -16.74,4.05 l -25.38,0 0,-63 25.65,0 z m 0.18,55.17 q 6.57,0 11.88,-3.06 5.4,-3.06 8.46,-8.46 3.15,-5.4 3.15,-12.06 0,-6.75 -3.15,-12.15 -3.15,-5.4 -8.64,-8.46 -5.4,-3.15 -12.06,-3.15 l -16.83,0 0,47.34 17.19,0 z"
             style="font-style:normal;font-variant:normal;font-weight:normal;font-stretch:normal;font-size:90px;font-family:Montserrat;-inkscape-font-specification:Montserrat;fill:#1778e1;fill-opacity:1;stroke:#1778e1;stroke-width:6.10000181;stroke-miterlimit:4;stroke-dasharray:none;stroke-opacity:1"
             id="path4177" />
          <path
             d="m 367.24219,281.85896 8.64,0 0,28.08 36,0 0,-28.08 8.73,0 0,63 -8.73,0 0,-27.09 -36,0 0,27.09 -8.64,0 0,-63 z"
             style="font-style:normal;font-variant:normal;font-weight:normal;font-stretch:normal;font-size:90px;font-family:Montserrat;-inkscape-font-specification:Montserrat;fill:#1778e1;fill-opacity:1;stroke:#1778e1;stroke-width:6.10000181;stroke-miterlimit:4;stroke-dasharray:none;stroke-opacity:1"
             id="path4179" />
          <path
             d="m 485.40937,344.85896 -6.66,-15.3 -33.21,0 -6.56999,15.3 -9.09001,0 27.99,-63 9,0 27.9,63 -9.36,0 z m -36.44999,-23.13 26.45999,0 -13.32,-30.6 -13.13999,30.6 z"
             style="font-style:normal;font-variant:normal;font-weight:normal;font-stretch:normal;font-size:90px;font-family:Montserrat;-inkscape-font-specification:Montserrat;fill:#1778e1;fill-opacity:1;stroke:#1778e1;stroke-width:6.10000181;stroke-miterlimit:4;stroke-dasharray:none;stroke-opacity:1"
             id="path4181" />
          <path
             d="m 491.23125,281.85896 9.27,0 20.79,53.37 20.79,-53.37 9.09,0 -25.56,63 -9,0 -25.38,-63 z"
             style="font-style:normal;font-variant:normal;font-weight:normal;font-stretch:normal;font-size:90px;font-family:Montserrat;-inkscape-font-specification:Montserrat;fill:#1778e1;fill-opacity:1;stroke:#1778e1;stroke-width:6.10000181;stroke-miterlimit:4;stroke-dasharray:none;stroke-opacity:1"
             id="path4183" />
        </g>
        <g
           transform="translate(197.34531,458.4903)"
           style="font-style:normal;font-weight:normal;font-size:40px;line-height:125%;font-family:sans-serif;letter-spacing:0px;word-spacing:0px;fill:#364e59;fill-opacity:1;stroke:#364e59;stroke-width:1.60000038;stroke-linecap:butt;stroke-linejoin:miter;stroke-miterlimit:4;stroke-dasharray:none;stroke-opacity:1"
           id="flowRoot4144">
          <path
             d="m 201.5332,307.25225 q -2.58178,2.22473 -4.97131,3.26843 -2.38953,1.01624 -5.10864,1.01624 -4.03748,0 -6.5094,-2.36206 -2.47193,-2.38953 -2.47193,-6.09742 0,-2.44445 1.09864,-4.31213 1.1261,-1.89514 2.96631,-3.02124 1.84021,-1.15356 4.50439,-1.64795 1.67541,-0.32959 6.3446,-0.52185 4.69666,-0.19226 6.72913,-0.98877 0.57678,-2.03247 0.57678,-3.3783 0,-1.73034 -1.26343,-2.71911 -1.73034,-1.37329 -5.05371,-1.37329 -3.1311,0 -5.1361,1.40075 -1.97754,1.3733 -2.88392,3.92762 l -5.02624,-0.43946 q 1.53809,-4.3396 4.86145,-6.64673 3.35083,-2.30712 8.43201,-2.30712 5.41076,0 8.56933,2.58178 2.41699,1.92261 2.41699,4.99878 0,2.3346 -0.68664,5.41077 l -1.62048,7.25098 q -0.76905,3.46069 -0.76905,5.63049 0,1.37329 0.60425,3.95508 l -5.02624,0 q -0.41199,-1.42823 -0.57679,-3.62549 z m 1.84021,-11.15112 q -1.0437,0.41198 -2.25219,0.63171 -1.18103,0.21973 -3.98255,0.46692 -4.3396,0.38452 -6.12488,0.98877 -1.78527,0.57678 -2.69165,1.86767 -0.90637,1.2909 -0.90637,2.85645 0,2.0874 1.42822,3.43323 1.45569,1.34582 4.11988,1.34582 2.47192,0 4.75158,-1.29089 2.27967,-1.31836 3.59803,-3.65296 1.31836,-2.33459 2.05993,-6.64672 z"
             style="font-style:italic;font-variant:normal;font-weight:normal;font-stretch:normal;font-size:56.25px;font-family:Arial;-inkscape-font-specification:'Arial Italic';fill:#364e59;stroke:#364e59;stroke-width:1.60000038;stroke-miterlimit:4;stroke-dasharray:none;stroke-opacity:1"
             id="path4187" />
          <path
             d="m 233.09143,305.6043 q -5.24597,5.93262 -10.73914,5.93262 -3.37829,0 -5.46569,-1.92261 -2.05994,-1.95007 -2.05994,-4.75159 0,-1.84021 0.93384,-6.31714 l 3.51562,-16.83654 4.97132,0 -3.90015,18.64929 q -0.49438,2.33459 -0.49438,3.62549 0,1.64795 0.98876,2.58178 1.01624,0.90638 2.96631,0.90638 2.08741,0 4.06494,-1.01624 2.00501,-1.01624 3.43323,-2.74658 1.45569,-1.73035 2.36206,-4.09241 0.60425,-1.51062 1.40076,-5.3009 l 2.63672,-12.60681 4.97131,0 -6.09741,29.1687 -4.58679,0 1.09863,-5.27344 z"
             style="font-style:italic;font-variant:normal;font-weight:normal;font-stretch:normal;font-size:56.25px;font-family:Arial;-inkscape-font-specification:'Arial Italic';fill:#364e59;stroke:#364e59;stroke-width:1.60000038;stroke-miterlimit:4;stroke-dasharray:none;stroke-opacity:1"
             id="path4189" />
          <path
             d="m 256.10779,306.84026 -0.82398,4.06494 q -1.78527,0.46692 -3.46069,0.46692 -2.96631,0 -4.72412,-1.45569 -1.31836,-1.09863 -1.31836,-2.99377 0,-0.9613 0.71411,-4.422 l 3.54309,-16.94641 -3.92761,0 0.79651,-3.84521 3.92761,0 1.51062,-7.16858 5.68543,-3.43323 -2.22474,10.60181 4.88892,0 -0.82397,3.84521 -4.86145,0 -3.3783,16.12244 q -0.63171,3.07617 -0.63171,3.68042 0,0.8789 0.49438,1.34582 0.52185,0.46692 1.67542,0.46692 1.64794,0 2.93884,-0.32959 z"
             style="font-style:italic;font-variant:normal;font-weight:normal;font-stretch:normal;font-size:56.25px;font-family:Arial;-inkscape-font-specification:'Arial Italic';fill:#364e59;stroke:#364e59;stroke-width:1.60000038;stroke-miterlimit:4;stroke-dasharray:none;stroke-opacity:1"
             id="path4191" />
          <path
             d="m 260.96924,299.80901 q 0,-8.54187 5.02624,-14.1449 4.14734,-4.61425 10.87647,-4.61425 5.27344,0 8.48694,3.29589 3.24096,3.2959 3.24096,8.89893 0,5.02625 -2.03247,9.36584 -2.03247,4.31214 -5.79529,6.61927 -3.73535,2.30713 -7.88269,2.30713 -3.40576,0 -6.20727,-1.45569 -2.77405,-1.45569 -4.2572,-4.11987 -1.45569,-2.66419 -1.45569,-6.15235 z m 4.97131,-0.49438 q 0,4.11987 1.97754,6.2622 1.97754,2.11487 5.02625,2.11487 1.59301,0 3.15857,-0.63171 1.56555,-0.65918 2.91137,-1.97754 1.34583,-1.31836 2.27967,-2.99378 0.9613,-1.70288 1.53808,-3.65295 0.85144,-2.71912 0.85144,-5.21851 0,-3.95507 -2.005,-6.12487 -1.97754,-2.19727 -4.99878,-2.19727 -2.3346,0 -4.2572,1.1261 -1.92261,1.09863 -3.48816,3.24097 -1.53809,2.14233 -2.27967,4.99878 -0.71411,2.82898 -0.71411,5.05371 z"
             style="font-style:italic;font-variant:normal;font-weight:normal;font-stretch:normal;font-size:56.25px;font-family:Arial;-inkscape-font-specification:'Arial Italic';fill:#364e59;stroke:#364e59;stroke-width:1.60000038;stroke-miterlimit:4;stroke-dasharray:none;stroke-opacity:1"
             id="path4193" />
          <path
             d="m 291.3739,310.87774 6.09741,-29.1687 4.97132,0 -1.01624,4.80651 q 2.77405,-3.10363 4.94385,-4.28466 2.19726,-1.18103 4.75159,-1.18103 2.71911,0 4.53186,1.45568 1.84021,1.42823 2.41699,4.01001 2.22473,-2.74658 4.66919,-4.0924 2.47192,-1.37329 5.19104,-1.37329 3.65295,0 5.4657,1.73034 1.84021,1.73035 1.84021,4.86145 0,1.34583 -0.63172,4.44947 l -3.92761,18.78662 -4.97131,0 4.01001,-19.28101 q 0.52185,-2.36206 0.52185,-3.37829 0,-1.42823 -0.90637,-2.2522 -0.90638,-0.82398 -2.55433,-0.82398 -2.22473,0 -4.53186,1.34583 -2.30713,1.34582 -3.59802,3.54309 -1.26343,2.1698 -2.22473,6.70166 l -2.96631,14.1449 -4.97131,0 4.11987,-19.693 q 0.43945,-2.005 0.43945,-2.85644 0,-1.42822 -0.90637,-2.30713 -0.8789,-0.87891 -2.30713,-0.87891 -2.11487,0 -4.44946,1.34583 -2.30713,1.34582 -3.76282,3.76282 -1.45569,2.38952 -2.38952,6.83899 l -2.88392,13.78784 -4.97131,0 z"
             style="font-style:italic;font-variant:normal;font-weight:normal;font-stretch:normal;font-size:56.25px;font-family:Arial;-inkscape-font-specification:'Arial Italic';fill:#364e59;stroke:#364e59;stroke-width:1.60000038;stroke-miterlimit:4;stroke-dasharray:none;stroke-opacity:1"
             id="path4195" />
          <path
             d="m 339.19189,299.80901 q 0,-8.54187 5.02625,-14.1449 4.14734,-4.61425 10.87646,-4.61425 5.27344,0 8.48694,3.29589 3.24097,3.2959 3.24097,8.89893 0,5.02625 -2.03247,9.36584 -2.03247,4.31214 -5.79529,6.61927 -3.73535,2.30713 -7.88269,2.30713 -3.40576,0 -6.20727,-1.45569 -2.77405,-1.45569 -4.25721,-4.11987 -1.45569,-2.66419 -1.45569,-6.15235 z m 4.97132,-0.49438 q 0,4.11987 1.97754,6.2622 1.97754,2.11487 5.02624,2.11487 1.59302,0 3.15857,-0.63171 1.56555,-0.65918 2.91138,-1.97754 1.34582,-1.31836 2.27966,-2.99378 0.96131,-1.70288 1.53809,-3.65295 0.85144,-2.71912 0.85144,-5.21851 0,-3.95507 -2.00501,-6.12487 -1.97754,-2.19727 -4.99878,-2.19727 -2.33459,0 -4.2572,1.1261 -1.92261,1.09863 -3.48816,3.24097 -1.53808,2.14233 -2.27966,4.99878 -0.71411,2.82898 -0.71411,5.05371 z"
             style="font-style:italic;font-variant:normal;font-weight:normal;font-stretch:normal;font-size:56.25px;font-family:Arial;-inkscape-font-specification:'Arial Italic';fill:#364e59;stroke:#364e59;stroke-width:1.60000038;stroke-miterlimit:4;stroke-dasharray:none;stroke-opacity:1"
             id="path4197" />
          <path
             d="m 381.24207,306.84026 -0.82398,4.06494 q -1.78528,0.46692 -3.46069,0.46692 -2.96631,0 -4.72412,-1.45569 -1.31836,-1.09863 -1.31836,-2.99377 0,-0.9613 0.71411,-4.422 l 3.54309,-16.94641 -3.92761,0 0.79651,-3.84521 3.92761,0 1.51062,-7.16858 5.68542,-3.43323 -2.22473,10.60181 4.88892,0 -0.82398,3.84521 -4.86145,0 -3.37829,16.12244 q -0.63172,3.07617 -0.63172,3.68042 0,0.8789 0.49439,1.34582 0.52185,0.46692 1.67541,0.46692 1.64795,0 2.93885,-0.32959 z"
             style="font-style:italic;font-variant:normal;font-weight:normal;font-stretch:normal;font-size:56.25px;font-family:Arial;-inkscape-font-specification:'Arial Italic';fill:#364e59;stroke:#364e59;stroke-width:1.60000038;stroke-miterlimit:4;stroke-dasharray:none;stroke-opacity:1"
             id="path4199" />
          <path
             d="m 392.28333,276.24334 1.18103,-5.6305 4.94384,0 -1.18103,5.6305 -4.94384,0 z m -7.25098,34.6344 6.09741,-29.1687 4.97131,0 -6.09741,29.1687 -4.97131,0 z"
             style="font-style:italic;font-variant:normal;font-weight:normal;font-stretch:normal;font-size:56.25px;font-family:Arial;-inkscape-font-specification:'Arial Italic';fill:#364e59;stroke:#364e59;stroke-width:1.60000038;stroke-miterlimit:4;stroke-dasharray:none;stroke-opacity:1"
             id="path4201" />
          <path
             d="m 405.10986,310.87774 -4.77905,-29.1687 4.83398,0 2.49939,16.0675 q 0.41199,2.63672 1.01624,8.5968 1.42822,-3.10364 3.65295,-7.11365 l 9.75037,-17.55065 5.24597,0 -16.69922,29.1687 -5.52063,0 z"
             style="font-style:italic;font-variant:normal;font-weight:normal;font-stretch:normal;font-size:56.25px;font-family:Arial;-inkscape-font-specification:'Arial Italic';fill:#364e59;stroke:#364e59;stroke-width:1.60000038;stroke-miterlimit:4;stroke-dasharray:none;stroke-opacity:1"
             id="path4203" />
          <path
             d="m 447.29736,300.96258 4.83399,0.49438 q -1.0437,3.59802 -4.80652,6.83899 -3.73535,3.24097 -8.92639,3.24097 -3.24097,0 -5.96009,-1.48316 -2.69165,-1.51062 -4.11987,-4.36706 -1.40076,-2.85645 -1.40076,-6.5094 0,-4.77906 2.19727,-9.25598 2.22473,-4.5044 5.74036,-6.6742 3.51562,-2.19726 7.60803,-2.19726 5.2185,0 8.32214,3.24096 3.13111,3.24097 3.13111,8.844 0,2.14233 -0.38453,4.39453 l -21.47827,0 q -0.10986,0.85144 -0.10986,1.53808 0,4.09241 1.86768,6.26221 1.89514,2.14234 4.61425,2.14234 2.55432,0 5.02625,-1.67542 2.47192,-1.67541 3.84521,-4.83398 z m -14.44702,-7.22352 16.36963,0 q 0.0275,-0.76904 0.0275,-1.09863 0,-3.73535 -1.86768,-5.71289 -1.86768,-2.005 -4.80652,-2.005 -3.18603,0 -5.82275,2.19726 -2.60925,2.19727 -3.90015,6.61926 z"
             style="font-style:italic;font-variant:normal;font-weight:normal;font-stretch:normal;font-size:56.25px;font-family:Arial;-inkscape-font-specification:'Arial Italic';fill:#364e59;stroke:#364e59;stroke-width:1.60000038;stroke-miterlimit:4;stroke-dasharray:none;stroke-opacity:1"
             id="path4205" />
        </g>
        <path
           style="opacity:0.73999999;fill:#0e232e;fill-opacity:1;stroke:#0e232e;stroke-width:2.00000054;stroke-miterlimit:4;stroke-dasharray:none;stroke-opacity:1"
           d="m 290.84949,696.85567 c -12.89161,0.24576 -46.40526,4.57495 -43.81021,13.36487 0.0157,0.0268 0.0318,0.0535 0.0484,0.0802 13.17786,3.84656 27.32896,7.97969 38.85058,11.37339 l 7.30891,30.21613 -22.51502,21.43778 -23.79346,-7.00457 -0.0497,0.0484 -14.66113,-4.31533 c -0.414,0.16799 -0.71409,0.44379 -0.89642,0.82386 -1.5466,3.45757 6.4002,14.28781 17.75022,24.19071 11.75545,9.91419 26.60223,18.47632 40.81533,15.32201 7.26706,-1.73607 13.96692,-5.86034 19.65386,-11.6281 l 0.007,0.0444 c 10.40249,-9.86074 20.26013,-16.74394 26.9615,-17.69547 l 17.76551,0 10.33944,-38.65194 -10.63867,0 c -4.64694,-0.70925 -14.50661,-0.58748 -20.93994,-7.90229 -12.80184,-12.577 -21.82419,-28.48103 -39.90871,-29.69916 -0.65932,-0.0198 -1.42746,-0.0214 -2.28691,-0.005 z"
           id="rect4587"
           inkscape:connector-curvature="0" />
        <path
           inkscape:connector-curvature="0"
           id="path4624"
           d="m 738.31681,810.50995 c 12.89161,-0.24576 46.40526,-4.57495 43.81021,-13.36487 -0.0157,-0.0268 -0.0318,-0.0535 -0.0484,-0.0802 -13.17786,-3.84656 -27.32896,-7.97969 -38.85058,-11.37339 l -7.30891,-30.21613 22.51502,-21.43778 23.79346,7.00457 0.0497,-0.0484 14.66113,4.31533 c 0.414,-0.16799 0.71409,-0.44379 0.89642,-0.82386 1.5466,-3.45757 -6.4002,-14.28781 -17.75022,-24.19071 -11.75545,-9.91419 -26.60223,-18.47632 -40.81533,-15.32201 -7.26706,1.73607 -13.96692,5.86034 -19.65386,11.6281 l -0.007,-0.0444 c -10.40249,9.86074 -20.26013,16.74394 -26.9615,17.69547 l -17.76551,0 -10.33944,38.65194 10.63867,0 c 4.64694,0.70925 14.50661,0.58748 20.93994,7.90229 12.80184,12.577 21.82419,28.48103 39.90871,29.69916 0.65932,0.0198 1.42746,0.0214 2.28691,0.005 z"
           style="opacity:0.73999999;fill:#0e232e;fill-opacity:1;stroke:#0e232e;stroke-width:2.00000054;stroke-miterlimit:4;stroke-dasharray:none;stroke-opacity:1" />
        <text
           xml:space="preserve"
           style="font-style:normal;font-weight:normal;font-size:40px;line-height:125%;font-family:sans-serif;letter-spacing:0px;word-spacing:0px;fill:#000000;fill-opacity:1;stroke:none;stroke-width:1px;stroke-linecap:butt;stroke-linejoin:miter;stroke-opacity:1"
           x="769.76294"
           y="903.48859"
           id="text4168"
           sodipodi:linespacing="125%"><tspan
             sodipodi:role="line"
             id="tspan4170"
             x="769.76294"
             y="903.48859" /></text>
      </g>
    </g>
  </g>
</svg>
