<?xml version="1.0" encoding="UTF-8" standalone="no"?>
<!-- Created with Inkscape (http://www.inkscape.org/) -->

<svg
   xmlns:dc="http://purl.org/dc/elements/1.1/"
   xmlns:cc="http://creativecommons.org/ns#"
   xmlns:rdf="http://www.w3.org/1999/02/22-rdf-syntax-ns#"
   xmlns:svg="http://www.w3.org/2000/svg"
   xmlns="http://www.w3.org/2000/svg"
   xmlns:sodipodi="http://sodipodi.sourceforge.net/DTD/sodipodi-0.dtd"
   xmlns:inkscape="http://www.inkscape.org/namespaces/inkscape"
   width="510"
   height="510"
   viewBox="0 0 510.00001 510.00001"
   id="svg2"
   version="1.1"
   inkscape:version="0.91 r13725"
   sodipodi:docname="jeweller.svg">
  <defs
     id="defs4" />
  <sodipodi:namedview
     id="base"
     pagecolor="#ffffff"
     bordercolor="#666666"
     borderopacity="1.0"
     inkscape:pageopacity="0.0"
     inkscape:pageshadow="2"
     inkscape:zoom="0.35221995"
     inkscape:cx="370.8054"
     inkscape:cy="663.10465"
     inkscape:document-units="px"
     inkscape:current-layer="layer1"
     showgrid="false"
     inkscape:snap-bbox="true"
     inkscape:snap-bbox-midpoints="true"
     inkscape:snap-nodes="false"
     inkscape:object-paths="true"
     inkscape:window-width="1394"
     inkscape:window-height="856"
     inkscape:window-x="46"
     inkscape:window-y="0"
     inkscape:window-maximized="1"
     inkscape:snap-center="true"
     inkscape:snap-object-midpoints="true"
     borderlayer="true"
     units="px" />
  <metadata
     id="metadata7">
    <rdf:RDF>
      <cc:Work
         rdf:about="">
        <dc:format>image/svg+xml</dc:format>
        <dc:type
           rdf:resource="http://purl.org/dc/dcmitype/StillImage" />
        <dc:title></dc:title>
      </cc:Work>
    </rdf:RDF>
  </metadata>
  <g
     inkscape:label="Layer 1"
     inkscape:groupmode="layer"
     id="layer1"
     transform="translate(0,-542.36212)">
    <path
       style="opacity:0.68599997;fill:#2d2d2d;fill-opacity:1;stroke:#ffffff;stroke-width:0.08872297;stroke-linecap:round;stroke-linejoin:round;stroke-miterlimit:4;stroke-dasharray:none;stroke-opacity:0"
       d=""
       id="path4230"
       inkscape:connector-curvature="0" />
    <path
       style="opacity:0.68599997;fill:#cccccc;fill-opacity:1;stroke:#ffffff;stroke-width:0.12547323;stroke-linecap:round;stroke-linejoin:round;stroke-miterlimit:4;stroke-dasharray:none;stroke-opacity:0"
       d=""
       id="path4272"
       inkscape:connector-curvature="0" />
    <path
       style="opacity:0.68599997;fill:#cccccc;fill-opacity:1;stroke:#ffffff;stroke-width:0.12547323;stroke-linecap:round;stroke-linejoin:round;stroke-miterlimit:4;stroke-dasharray:none;stroke-opacity:0"
       d=""
       id="path4276"
       inkscape:connector-curvature="0" />
    <path
       style="opacity:0.68599997;fill:#cccccc;fill-opacity:1;stroke:#ffffff;stroke-width:0.12547323;stroke-linecap:round;stroke-linejoin:round;stroke-miterlimit:4;stroke-dasharray:none;stroke-opacity:0"
       d=""
       id="path4306"
       inkscape:connector-curvature="0" />
    <g
       id="g4249"
       transform="matrix(5,0,0,5,-1551.6764,-1008.89)">
      <g
         transform="matrix(0.36572627,0,0,0.36572627,222.54107,245.50276)"
         id="text4461"
         style="font-style:normal;font-weight:normal;font-size:40px;line-height:125%;font-family:sans-serif;letter-spacing:0px;word-spacing:0px;opacity:0.68599997;fill:#2d2d2d;fill-opacity:1;stroke:none;stroke-width:1px;stroke-linecap:butt;stroke-linejoin:miter;stroke-opacity:1">
        <path
           sodipodi:nodetypes="csscsccsscscccscscsaaaaacccscccssscscscscscccaacccscccscccccaaaccssssscccaacscscsccsscccsccc"
           inkscape:connector-curvature="0"
           id="path4466"
           style="font-style:normal;font-variant:normal;font-weight:normal;font-stretch:normal;font-size:90px;font-family:Parisienne;-inkscape-font-specification:Parisienne;fill:#2d2d2d"
           d="m 369.49506,300.87158 c 0.84961,-0.99609 1.72851,-1.91894 2.63671,-2.76855 0.90821,-0.84961 1.81641,-1.58204 2.72461,-2.19727 0.90821,-0.61523 1.80176,-1.08398 2.68067,-1.40625 0.9082,-0.35156 1.77246,-0.52734 2.59277,-0.52734 0.64453,0 1.27442,0.11719 1.88965,0.35156 0.64453,0.20508 1.21582,0.54199 1.71387,1.01074 0.49805,0.43945 0.89355,1.01074 1.18652,1.71387 0.29297,0.70313 0.43945,1.53809 0.43945,2.50488 0,1.40625 -0.19043,2.79786 -0.57129,4.17481 -0.38085,1.34765 -0.86425,2.66601 -1.45019,3.95508 -0.58594,1.28906 -1.21582,2.53418 -1.88965,3.73535 -0.64453,1.20117 -1.25977,2.35839 -1.8457,3.47168 -0.58594,1.08398 -1.06934,2.12402 -1.4502,3.12011 -0.38086,0.9668 -0.57129,1.86036 -0.57129,2.68067 0,0.64453 0.16113,1.11328 0.4834,1.40625 0.35157,0.26367 0.71778,0.39551 1.09863,0.39551 0.76172,0 1.65528,-0.43945 2.68067,-1.31836 1.05469,-0.87891 2.15332,-2.00684 3.2959,-3.38379 1.14257,-1.37695 2.32151,-2.99072 3.42773,-4.52637 1.1518,-1.59892 1.3928,-4.57432 3.33985,-4.87793 0.66009,-0.10293 1.38888,0.59093 1.58203,1.23047 0.30111,0.99705 -0.45935,2.06796 -0.99225,2.96283 -0.64163,1.07748 -1.76593,1.78547 -2.56732,2.75006 -0.93051,1.11999 -1.65528,2.31445 -2.59278,3.51562 -0.9375,1.17188 -1.93359,2.24122 -2.98828,3.20801 -1.02539,0.9375 -2.09472,1.71387 -3.20801,2.3291 -1.11328,0.58594 -2.22656,0.87891 -3.33984,0.87891 -0.61523,0 -1.21582,-0.0879 -1.80176,-0.26367 -0.55664,-0.17578 -1.05469,-0.4541 -1.49414,-0.83496 -0.43945,-0.41016 -0.79102,-0.9375 -1.05469,-1.58203 -0.26367,-0.64453 -0.3955,-1.43555 -0.3955,-2.37305 0,-1.28906 0.21973,-2.54883 0.65918,-3.7793 0.43945,-1.23047 0.99609,-2.44629 1.66992,-3.64746 0.67383,-1.20117 1.3916,-2.3877 2.15332,-3.55957 0.79101,-1.20117 1.52343,-2.3877 2.19726,-3.55957 0.67383,-1.17187 1.23048,-2.34375 1.66993,-3.51562 0.43945,-1.20117 0.65918,-2.41699 0.65918,-3.64746 0,-0.61524 -0.11719,-1.09864 -0.35157,-1.4502 -0.23437,-0.38086 -0.67383,-0.57129 -1.31836,-0.57129 -1.02539,0 -2.10937,0.4248 -3.25195,1.27441 -1.14258,0.82031 -2.3291,1.9336 -3.55957,3.33985 -1.23047,1.40625 -2.49023,3.04687 -3.7793,4.92187 -1.28906,1.84571 -2.57812,3.8086 -3.86718,5.88868 -1.25977,2.05078 -2.51953,4.14551 -3.7793,6.28418 -1.23047,2.10937 -1.29494,5.45638 -3.55957,6.10839 -1.33483,0.38431 -3.26866,-0.61043 -3.69141,-1.93359 -0.97497,-3.05152 3.00293,-6.04981 4.35059,-8.56934 1.37695,-2.51953 2.57812,-4.79003 3.60351,-6.81152 1.02539,-2.05078 1.83106,-3.91113 2.417,-5.58105 0.58593,-1.69922 0.8789,-3.2959 0.8789,-4.79004 0,-0.29297 -0.0293,-0.58594 -0.0879,-0.87891 -0.0586,-0.32227 -0.17579,-0.60059 -0.35156,-0.83496 -0.17578,-0.23437 -0.41016,-0.4248 -0.70313,-0.57129 -0.26367,-0.17578 -0.61523,-0.26367 -1.05468,-0.26367 -0.99609,0 -2.00684,0.46875 -3.03223,1.40625 -1.02539,0.9082 -2.10938,2.16797 -3.25195,3.7793 -1.14258,1.58203 -2.37305,3.44238 -3.69141,5.58105 -1.28906,2.10937 -2.69531,4.35058 -4.21875,6.72363 -1.49414,2.37305 -3.12012,4.81934 -4.87793,7.33887 -1.75781,2.49023 -2.70812,6.77186 -5.75683,7.25098 -1.20003,0.18859 -2.79263,-0.83059 -3.03223,-2.02149 -0.35018,-1.74054 1.97389,-2.95174 2.94433,-4.43847 1.03721,-1.58903 2.08009,-3.17871 3.07618,-4.79004 1.02539,-1.61133 1.99218,-3.20801 2.90039,-4.79004 0.9375,-1.61133 1.75781,-3.13476 2.46093,-4.57031 0.70313,-1.43555 1.25977,-2.75391 1.66993,-3.95508 0.41015,-1.20117 0.61523,-2.22656 0.61523,-3.07617 0,-0.9961 -0.24902,-1.71388 -0.74707,-2.15333 -0.49805,-0.43945 -1.14258,-0.65917 -1.93359,-0.65917 -0.9375,0 -1.86035,0.33691 -2.76856,1.01074 -0.87891,0.67383 -1.81641,1.62597 -2.8125,2.85644 -0.96679,1.23047 -2.02148,2.70997 -3.16406,4.43848 -1.11328,1.69922 -1.58381,5.27188 -3.82324,5.625 -0.65992,0.10406 -1.4693,-0.57198 -1.58203,-1.23047 -0.4347,-2.53923 2.94433,-4.62891 4.1748,-6.50391 1.25977,-1.875 2.44629,-3.44238 3.55957,-4.70214 1.11328,-1.25977 2.21191,-2.21192 3.2959,-2.85645 1.11328,-0.64453 2.31445,-0.9668 3.60352,-0.9668 0.38085,0 0.86425,0.0732 1.45019,0.21973 0.61523,0.14649 1.21582,0.41016 1.80176,0.79102 0.58593,0.38085 1.09863,0.9082 1.53808,1.58203 0.46875,0.67383 0.74708,1.53808 0.83497,2.59277 1.64062,-2.10937 3.35449,-3.79394 5.1416,-5.05371 1.78711,-1.25977 3.47168,-1.88965 5.05371,-1.88965 1.14257,0 2.10937,0.23438 2.90039,0.70313 0.79101,0.43945 1.4209,1.02539 1.88965,1.75781 0.49805,0.73242 0.84961,1.56738 1.05468,2.50488 0.23438,0.90821 0.35157,1.83106 0.35157,2.76856 0,0.23437 -0.0146,0.4834 -0.0439,0.74707 0,0.26367 -0.0146,0.52734 -0.0439,0.79101 z" />
        <path
           sodipodi:nodetypes="accccccsaaasccccsccscscsccccsscccaasccccccssscs"
           inkscape:connector-curvature="0"
           id="path4468"
           style="font-style:normal;font-variant:normal;font-weight:normal;font-stretch:normal;font-size:90px;font-family:Parisienne;-inkscape-font-specification:Parisienne;fill:#2d2d2d"
           d="m 410.53998,295.68604 c 0.79556,2.44885 -2.3291,4.36523 -3.55957,6.85546 -1.23047,2.46094 -2.47559,5.02442 -3.73535,7.69043 -1.23047,2.66602 -2.47559,5.37598 -3.73536,8.12989 -1.23047,2.75391 -2.44629,5.44922 -3.64746,8.08593 2.75391,-1.52343 5.1709,-3.04687 7.25098,-4.57031 2.10937,-1.52343 3.95508,-3.03222 5.53711,-4.52637 1.58203,-1.52343 2.95899,-3.03222 4.13086,-4.52636 1.17187,-1.49414 1.36625,-4.17555 3.16406,-4.43848 0.66104,-0.0967 1.49377,0.56825 1.58203,1.23047 0.31236,2.34353 -2.72023,3.87715 -4.26269,5.66894 -1.56784,1.82127 -3.17871,3.47168 -5.05371,5.14161 -1.875,1.66992 -3.98438,3.32519 -6.32813,4.96582 -2.31445,1.64062 -4.92187,3.32519 -7.82226,5.05371 -1.05469,2.31445 -2.06544,4.48242 -3.03223,6.5039 -0.9668,2.05079 -1.875,3.89649 -2.72461,5.53711 -1.46485,2.78321 -3.07617,5.39063 -4.83398,7.82227 -1.75781,2.43164 -3.54492,4.54101 -5.36133,6.32812 -1.84571,1.81641 -3.66211,3.23731 -5.44922,4.2627 -1.78711,1.05469 -3.44239,1.58203 -4.96582,1.58203 -0.61523,0 -1.20117,-0.10254 -1.75781,-0.30762 -0.58594,-0.20507 -1.11329,-0.51269 -1.58204,-0.92285 -0.46875,-0.41015 -0.83496,-0.95215 -1.09863,-1.62598 -0.29297,-0.64453 -0.43945,-1.43554 -0.43945,-2.37304 0,-2.46094 0.60059,-4.89258 1.80176,-7.29492 1.17187,-2.40235 2.88574,-4.76075 5.1416,-7.0752 2.22656,-2.28515 4.98047,-4.52636 8.26172,-6.72363 3.25195,-2.16797 6.95801,-4.24805 11.11816,-6.24024 0.9668,-1.99219 1.86035,-3.85254 2.68066,-5.58105 0.82031,-1.72851 1.65528,-3.42773 2.50489,-5.09766 0.84961,-1.66992 1.72851,-3.33984 2.63672,-5.00976 0.9375,-1.69922 1.97754,-3.51563 3.12011,-5.44922 1.17188,-1.93359 2.47559,-4.02832 3.91114,-6.28418 1.46484,-2.25586 2.12391,-6.78266 5.05371,-7.5586 0.53828,-0.14256 1.32209,0.21749 1.49414,0.74708 z m -42.71485,64.46777 c 1.52344,0 3.03223,-0.61523 4.52637,-1.8457 1.46485,-1.23047 2.97364,-2.97364 4.52637,-5.2295 1.52343,-2.25586 3.12011,-4.96582 4.79004,-8.12988 1.64063,-3.13477 3.39844,-6.62109 5.27344,-10.45898 l -1.88965,1.01074 c -3.04688,1.64063 -5.78614,3.45703 -8.21778,5.44922 -2.46093,2.02148 -4.54101,4.04296 -6.24023,6.06445 -1.69922,2.02149 -3.00293,3.95508 -3.91113,5.80078 -0.90821,1.84571 -1.36231,3.39844 -1.36231,4.6582 0,0.76172 0.20508,1.3916 0.61524,1.88965 0.38085,0.52735 1.01073,0.79102 1.88964,0.79102 z" />
      </g>
      <path
         sodipodi:nodetypes="csscsssccccccccccsscssscccccc"
         inkscape:connector-curvature="0"
         id="path4366"
         d="m 371.77003,345.54417 c 1.13448,-1.07116 2.85069,-1.45299 4.35197,-0.78204 1.87336,0.83726 2.79444,3.09456 1.93614,4.98344 -0.79446,1.74844 -2.9143,2.60645 -4.67907,1.78601 -1.6085,-0.74781 -2.39499,-2.71402 -1.61339,-4.33954 0.69598,-1.44749 2.48933,-2.15343 3.95393,-1.4098 1.25389,0.63663 1.86799,2.23295 1.15382,3.50138 -0.28116,0.49936 -0.76041,0.8725 -1.29737,1.03461 -0.53695,0.16212 -1.14102,0.10751 -1.63762,-0.26095 -0.84744,-0.73477 -0.73085,-1.56012 -0.33841,-2.36918 0.52966,-0.38018 1.52346,0.66484 1.51214,-0.83665 0.0845,0.71978 -0.20554,1.37755 -0.33965,1.43136 -0.13406,0.0537 -1.03445,0.32663 -1.07146,0.47891 -0.0745,0.30378 0.0741,0.77901 0.4277,1.04136 0.41033,0.30446 0.89832,0.34873 1.35491,0.21085 0.4566,-0.13787 0.87372,-0.46424 1.11164,-0.88686 0.61916,-1.09966 0.0788,-2.50286 -1.02029,-3.06097 -1.29744,-0.65874 -2.90138,-0.0255 -3.52209,1.26541 -0.70154,1.45906 0.011,3.23659 1.46156,3.91095 1.59872,0.74328 3.53034,-0.0388 4.2526,-1.62825 0.78295,-1.72309 -0.06,-3.79475 -1.77374,-4.56064 -1.83607,-0.82058 -4.03578,0.0817 -4.84198,1.9084 -0.85627,1.94007 0.0979,4.258 2.02874,5.10183 0.36648,0.16017 0.74609,0.23895 1.12649,0.28154 -1.17573,-0.0459 -2.27193,-0.60612 -2.99807,-1.53197 -0.2082,-0.26762 -0.38161,-0.56057 -0.51607,-0.87185 -0.36643,-0.98022 -0.38347,-2.09072 0.0663,-3.10976 0.21924,-0.49673 0.53313,-0.93049 0.91128,-1.28754 z"
         style="color:#000000;font-style:normal;font-variant:normal;font-weight:normal;font-stretch:normal;font-size:medium;line-height:normal;font-family:sans-serif;text-indent:0;text-align:start;text-decoration:none;text-decoration-line:none;text-decoration-style:solid;text-decoration-color:#000000;letter-spacing:normal;word-spacing:normal;text-transform:none;direction:ltr;block-progression:tb;writing-mode:lr-tb;baseline-shift:baseline;text-anchor:start;white-space:normal;clip-rule:nonzero;display:inline;overflow:visible;visibility:visible;opacity:1;isolation:auto;mix-blend-mode:normal;color-interpolation:sRGB;color-interpolation-filters:linearRGB;solid-color:#000000;solid-opacity:1;fill:#666666;fill-opacity:1;fill-rule:evenodd;stroke:none;stroke-width:0.31494203;stroke-linecap:round;stroke-linejoin:round;stroke-miterlimit:4;stroke-dasharray:none;stroke-dashoffset:0;stroke-opacity:1;color-rendering:auto;image-rendering:auto;shape-rendering:auto;text-rendering:auto;enable-background:accumulate" />
      <g
         transform="matrix(0.75069673,0,0,0.75069673,87.601293,92.541686)"
         id="g4520">
        <path
           style="opacity:0.68599997;fill:#2d2d2d;fill-opacity:1;stroke:#ffffff;stroke-width:0.08872297;stroke-linecap:round;stroke-linejoin:round;stroke-miterlimit:4;stroke-dasharray:none;stroke-opacity:0"
           d="m 332.63096,307.70006 c 0.0719,-0.0823 0.56818,-0.34065 1.10275,-0.57382 1.25703,-0.54833 2.7481,-0.54609 4.79632,0.007 0.89667,0.24222 1.98505,0.5008 2.41864,0.57459 0.43361,0.0738 0.79241,0.19357 0.79733,0.26615 0.0167,0.24677 -1.68493,0.70034 -2.73432,0.72882 -0.57502,0.0152 -1.95229,-0.14544 -3.06061,-0.35786 -1.10831,-0.21241 -2.2258,-0.38769 -2.48331,-0.38947 -0.70626,-0.005 -0.98204,-0.0892 -0.83679,-0.25561 z"
           id="path4232"
           inkscape:connector-curvature="0"
           inkscape:transform-center-x="27.483604"
           inkscape:transform-center-y="-50.240003" />
        <path
           style="opacity:0.68599997;fill:#2d2d2d;fill-opacity:1;stroke:#ffffff;stroke-width:0.08872297;stroke-linecap:round;stroke-linejoin:round;stroke-miterlimit:4;stroke-dasharray:none;stroke-opacity:0"
           d="m 354.05978,299.33983 c 0.15256,-0.17479 2.17982,-0.19242 2.83413,-0.0244 1.06616,0.27338 1.57756,0.56785 3.5655,2.05313 1.03407,0.77259 2.0239,1.46003 2.1996,1.52763 0.54282,0.20888 -0.61046,0.28988 -1.56061,0.10963 -1.27987,-0.24283 -2.17214,-0.65971 -4.05884,-1.89629 -0.96418,-0.63195 -2.04678,-1.26828 -2.40579,-1.4141 -0.35899,-0.14581 -0.61729,-0.3057 -0.57398,-0.35532 z"
           id="path4236"
           inkscape:connector-curvature="0"
           inkscape:transform-center-x="6.2266735"
           inkscape:transform-center-y="-56.798228" />
        <path
           style="opacity:0.68599997;fill:#2d2d2d;fill-opacity:1;stroke:#ffffff;stroke-width:0.08872297;stroke-linecap:round;stroke-linejoin:round;stroke-miterlimit:4;stroke-dasharray:none;stroke-opacity:0"
           d="m 379.38568,302.5707 c -0.62156,-0.92046 -1.27867,-1.80693 -1.46026,-1.96993 -0.18185,-0.1627 -0.3697,-0.42912 -0.41798,-0.59144 -0.068,-0.22692 0.12471,-0.22941 0.83339,-0.01 1.49026,0.46066 2.58901,1.51238 3.85333,3.68838 0.57269,0.98566 1.26737,2.07195 1.54373,2.41398 l 0.50248,0.62188 -0.85738,-0.34755 c -1.29671,-0.52563 -2.65768,-1.82113 -3.99731,-3.80498 z"
           id="path4238"
           inkscape:connector-curvature="0"
           inkscape:transform-center-x="-16.21413"
           inkscape:transform-center-y="-54.670005" />
        <path
           style="opacity:0.68599997;fill:#2d2d2d;fill-opacity:1;stroke:#ffffff;stroke-width:0.08872297;stroke-linecap:round;stroke-linejoin:round;stroke-miterlimit:4;stroke-dasharray:none;stroke-opacity:0"
           d="m 401.08395,316.79979 c -0.67603,-0.875 -1.19507,-2.29432 -1.65389,-4.52256 -0.22438,-1.08958 -0.54641,-2.30809 -0.71575,-2.70776 l -0.30784,-0.72668 1.05026,0.90474 c 1.33907,1.15377 1.78344,2.11751 2.14104,4.6432 0.14269,1.0077 0.35734,2.25433 0.47701,2.77026 0.21425,0.92357 0.21181,0.93261 -0.15733,0.58503 -0.2062,-0.19419 -0.58122,-0.61999 -0.83331,-0.94637 z"
           id="path4240"
           inkscape:connector-curvature="0"
           inkscape:transform-center-x="-35.659371"
           inkscape:transform-center-y="-44.550266" />
        <path
           style="opacity:0.68599997;fill:#2d2d2d;fill-opacity:1;stroke:#ffffff;stroke-width:0.08872297;stroke-linecap:round;stroke-linejoin:round;stroke-miterlimit:4;stroke-dasharray:none;stroke-opacity:0"
           d="m 414.13023,334.124 c -0.37203,-1.26516 -0.3495,-2.49629 0.088,-4.80829 0.20885,-1.10365 0.40256,-2.33119 0.43047,-2.72785 0.0639,-0.90864 0.3294,-0.73888 0.84706,0.54161 0.52077,1.28823 0.48003,2.69707 -0.15014,5.18947 -0.30856,1.22042 -0.5611,2.40434 -0.5612,2.63094 9e-5,0.6623 -0.3443,0.22805 -0.65423,-0.82588 z"
           id="path4242"
           inkscape:connector-curvature="0"
           inkscape:transform-center-x="-50.208868"
           inkscape:transform-center-y="-27.309964" />
        <path
           style="opacity:0.68599997;fill:#2d2d2d;fill-opacity:1;stroke:#ffffff;stroke-width:0.08872297;stroke-linecap:round;stroke-linejoin:round;stroke-miterlimit:4;stroke-dasharray:none;stroke-opacity:0"
           d="m 419.46256,355.43765 c 0.0297,-1.64345 0.57287,-2.96628 2.23367,-5.44019 0.49216,-0.73311 1.01686,-1.63983 1.16597,-2.01492 0.38497,-0.9683 0.39695,-0.96127 0.49971,0.29317 0.14361,1.75313 -0.19007,2.77508 -1.49011,4.56372 -0.6083,0.83701 -1.37127,1.92622 -1.69541,2.42054 -0.32418,0.4943 -0.62037,0.90269 -0.65828,0.90746 -0.0378,0.004 -0.063,-0.32364 -0.0555,-0.72978 z"
           id="path4244"
           inkscape:connector-curvature="0"
           inkscape:transform-center-x="-56.773671"
           inkscape:transform-center-y="-6.2206254" />
        <path
           style="opacity:0.68599997;fill:#2d2d2d;fill-opacity:1;stroke:#ffffff;stroke-width:0.08872297;stroke-linecap:round;stroke-linejoin:round;stroke-miterlimit:4;stroke-dasharray:none;stroke-opacity:0"
           d="m 416.30964,376.45308 c 0.52728,-1.16042 1.83664,-2.50792 3.51957,-3.62208 0.83459,-0.55252 1.87309,-1.3301 2.30775,-1.72798 l 0.7903,-0.72337 -0.31672,1.08458 c -0.48282,1.6534 -1.45083,2.6748 -3.95091,4.1689 -1.08316,0.64731 -2.07663,1.29981 -2.20771,1.45 -0.40256,0.46122 -0.48078,0.11486 -0.1423,-0.63005 z"
           id="path4246"
           inkscape:connector-curvature="0"
           inkscape:transform-center-x="-54.85863"
           inkscape:transform-center-y="15.885286" />
        <path
           style="opacity:0.68599997;fill:#2d2d2d;fill-opacity:1;stroke:#ffffff;stroke-width:0.08872297;stroke-linecap:round;stroke-linejoin:round;stroke-miterlimit:4;stroke-dasharray:none;stroke-opacity:0"
           d="m 405.29663,394.82721 c 1.074,-0.98574 2.25214,-1.50489 4.41718,-1.94644 1.0226,-0.20855 2.3516,-0.53242 2.95332,-0.71969 l 1.09405,-0.34052 -1.04713,1.09097 c -1.27451,1.32776 -2.10664,1.68514 -4.69449,2.01597 -0.966,0.1235 -2.14747,0.31081 -2.6255,0.41625 l -0.8691,0.19177 0.77169,-0.70827 z"
           id="path4248"
           inkscape:connector-curvature="0"
           inkscape:transform-center-x="-44.489687"
           inkscape:transform-center-y="35.727789" />
        <path
           style="opacity:0.68599997;fill:#2d2d2d;fill-opacity:1;stroke:#ffffff;stroke-width:0.08872297;stroke-linecap:round;stroke-linejoin:round;stroke-miterlimit:4;stroke-dasharray:none;stroke-opacity:0"
           d="m 387.40975,407.9283 c 0.0399,-0.0457 0.41142,-0.21897 0.82561,-0.38514 1.1389,-0.45682 2.70921,-0.46209 5.04097,-0.0169 1.1584,0.22115 2.42699,0.40791 2.81911,0.415 0.96643,0.0174 0.68625,0.32648 -0.81338,0.89694 -1.33371,0.50735 -2.62713,0.46464 -4.94394,-0.16332 -0.86951,-0.23569 -1.90042,-0.48138 -2.29091,-0.54601 -0.39049,-0.0646 -0.67736,-0.15491 -0.63749,-0.20058 z"
           id="path4250"
           inkscape:connector-curvature="0"
           inkscape:transform-center-x="-27.379101"
           inkscape:transform-center-y="50.240846" />
        <path
           style="opacity:0.68599997;fill:#2d2d2d;fill-opacity:1;stroke:#ffffff;stroke-width:0.08872297;stroke-linecap:round;stroke-linejoin:round;stroke-miterlimit:4;stroke-dasharray:none;stroke-opacity:0"
           d="m 367.05709,412.76185 c 1.65894,0.006 2.89668,0.49993 5.4696,2.18221 0.93273,0.60985 1.90255,1.18527 2.15514,1.2787 0.25258,0.0934 0.4618,0.20746 0.46491,0.25341 0.019,0.28048 -1.83844,0.30715 -2.83932,0.0407 -0.99506,-0.26485 -1.45832,-0.51431 -2.83826,-1.52839 -0.90703,-0.66651 -1.97925,-1.44081 -2.38275,-1.7206 l -0.73367,-0.50867 0.70433,0.003 z"
           id="path4252"
           inkscape:connector-curvature="0"
           inkscape:transform-center-x="-6.0964296"
           inkscape:transform-center-y="56.780551" />
        <path
           style="opacity:0.68599997;fill:#2d2d2d;fill-opacity:1;stroke:#ffffff;stroke-width:0.08872297;stroke-linecap:round;stroke-linejoin:round;stroke-miterlimit:4;stroke-dasharray:none;stroke-opacity:0"
           d="m 347.10702,412.22666 c -0.60908,-1.03655 -1.29722,-2.13034 -1.52918,-2.43065 l -0.42176,-0.546 0.62538,0.20654 c 1.29321,0.42715 2.43316,1.46085 3.83516,3.47777 0.71263,1.02516 1.55067,2.17895 1.86232,2.56397 l 0.56663,0.70006 -0.94276,-0.26911 c -1.60302,-0.45756 -2.66996,-1.4462 -3.99582,-3.70255 z"
           id="path4254"
           inkscape:connector-curvature="0"
           inkscape:transform-center-x="16.052558"
           inkscape:transform-center-y="54.773929" />
        <path
           style="opacity:0.68599997;fill:#2d2d2d;fill-opacity:1;stroke:#ffffff;stroke-width:0.08872297;stroke-linecap:round;stroke-linejoin:round;stroke-miterlimit:4;stroke-dasharray:none;stroke-opacity:0"
           d="m 328.87107,405.24056 c -0.56154,-0.79771 -0.94717,-2.01289 -1.18176,-3.7241 -0.1263,-0.92121 -0.32651,-2.11037 -0.44492,-2.64259 l -0.21533,-0.96766 0.78048,0.8076 c 0.96007,0.99336 1.50288,2.22979 1.92494,4.38463 0.17262,0.88151 0.46184,2.0669 0.6426,2.6342 0.18075,0.56732 0.25718,1.03632 0.16981,1.04226 -0.20721,0.0141 -1.2724,-0.96116 -1.67589,-1.5343 z"
           id="path4256"
           inkscape:connector-curvature="0"
           inkscape:transform-center-x="35.847322"
           inkscape:transform-center-y="44.390379" />
        <path
           style="opacity:0.68599997;fill:#2d2d2d;fill-opacity:1;stroke:#ffffff;stroke-width:0.08872297;stroke-linecap:round;stroke-linejoin:round;stroke-miterlimit:4;stroke-dasharray:none;stroke-opacity:0"
           d="m 313.84511,388.94853 c -0.59653,-1.34501 -0.58999,-2.69233 0.025,-5.13432 0.29902,-1.18747 0.5722,-2.4256 0.60707,-2.7514 0.0763,-0.71267 0.13488,-0.67754 0.53536,0.32089 0.46285,1.15396 0.49097,3.12049 0.0729,5.09332 -0.20507,0.9675 -0.40139,2.19344 -0.43629,2.72431 -0.0724,1.10153 -0.22449,1.05371 -0.80395,-0.2528 z"
           id="path4258"
           inkscape:connector-curvature="0"
           inkscape:transform-center-x="50.261566"
           inkscape:transform-center-y="27.327791" />
        <path
           style="opacity:0.68599997;fill:#2d2d2d;fill-opacity:1;stroke:#ffffff;stroke-width:0.08872297;stroke-linecap:round;stroke-linejoin:round;stroke-miterlimit:4;stroke-dasharray:none;stroke-opacity:0"
           d="m 305.91234,367.68487 c -0.23902,-1.84952 0.0709,-2.6657 2.06335,-5.43386 0.83187,-1.15577 1.57815,-2.25322 1.65837,-2.43881 0.29207,-0.6756 0.18124,1.34392 -0.136,2.4785 -0.23213,0.83015 -0.67139,1.68312 -1.63174,3.16862 -0.72277,1.11797 -1.39951,2.26431 -1.50387,2.54743 -0.10436,0.2831 -0.22372,0.51704 -0.26522,0.51987 -0.0415,0.002 -0.12475,-0.37596 -0.1849,-0.84175 z"
           id="path4260"
           inkscape:connector-curvature="0"
           inkscape:transform-center-x="56.82991"
           inkscape:transform-center-y="6.1515978" />
        <path
           style="opacity:0.68599997;fill:#2d2d2d;fill-opacity:1;stroke:#ffffff;stroke-width:0.08872297;stroke-linecap:round;stroke-linejoin:round;stroke-miterlimit:4;stroke-dasharray:none;stroke-opacity:0"
           d="m 306.63886,344.48566 c 0.44537,-1.58052 1.44104,-2.69285 3.55071,-3.96678 0.96497,-0.58271 2.06274,-1.26737 2.43946,-1.52149 l 0.68499,-0.46203 -0.26341,0.71223 c -0.43394,1.1734 -1.88373,2.70211 -3.66631,3.86588 -0.84906,0.55432 -1.87407,1.30249 -2.27778,1.6626 l -0.73401,0.65474 0.26633,-0.94518 z"
           id="path4262"
           inkscape:connector-curvature="0"
           inkscape:transform-center-x="54.810118"
           inkscape:transform-center-y="-15.967166" />
        <path
           style="opacity:0.68599997;fill:#cccccc;fill-opacity:1;stroke:#ffffff;stroke-width:0.08872297;stroke-linecap:round;stroke-linejoin:round;stroke-miterlimit:4;stroke-dasharray:none;stroke-opacity:0"
           d="m 316.29577,323.17871 c 0.36942,-0.42241 0.92083,-0.93212 1.22543,-1.13263 0.70386,-0.4634 2.40989,-0.92109 4.45597,-1.19548 0.88026,-0.11801 1.8389,-0.26983 2.13032,-0.33736 0.52923,-0.12267 0.52902,-0.12199 -0.20463,0.59117 -0.98737,0.95978 -2.19828,1.47196 -4.67992,1.97946 -1.14232,0.2336 -2.39052,0.5485 -2.77379,0.69972 -0.38324,0.15131 -0.72569,0.2498 -0.76091,0.2192 -0.0352,-0.0307 0.2381,-0.40162 0.60756,-0.824 z"
           id="path4264"
           inkscape:connector-curvature="0"
           inkscape:transform-center-x="44.569847"
           inkscape:transform-center-y="-35.720069" />
        <path
           style="opacity:0.68599997;fill:#cccccc;fill-opacity:1;stroke:#ffffff;stroke-width:0.12547323;stroke-linecap:round;stroke-linejoin:round;stroke-miterlimit:4;stroke-dasharray:none;stroke-opacity:0"
           d="m 345.69382,305.12679 c 1.9962,-3.28081 2.76424,-4.16172 4.13211,-4.73875 l 1.23458,-0.52121 -1.09374,1.71011 c -1.61574,2.52626 -3.21098,4.29283 -4.34886,4.81595 l -0.96341,0.44289 1.03966,-1.7087 z"
           id="path4266"
           inkscape:connector-curvature="0"
           inkscape:transform-center-x="16.795878"
           inkscape:transform-center-y="-54.598946" />
        <path
           style="opacity:0.68599997;fill:#cccccc;fill-opacity:1;stroke:#ffffff;stroke-width:0.12547323;stroke-linecap:round;stroke-linejoin:round;stroke-miterlimit:4;stroke-dasharray:none;stroke-opacity:0"
           d="m 366.20282,302.75761 c 0.24902,-0.14909 1.24744,-0.87542 2.21863,-1.61418 1.90489,-1.44899 3.77635,-2.22625 4.96437,-2.06178 1.03158,0.14279 1.03395,0.1888 0.0378,0.73518 -0.48336,0.26511 -1.73367,1.02634 -2.77846,1.69163 -1.50106,0.9558 -2.21389,1.24217 -3.39739,1.36485 -0.90422,0.0937 -1.3183,0.0479 -1.04494,-0.1157 z"
           id="path4268"
           inkscape:connector-curvature="0"
           inkscape:transform-center-x="-5.4890555"
           inkscape:transform-center-y="-56.959605" />
        <path
           style="opacity:0.68599997;fill:#cccccc;fill-opacity:1;stroke:#ffffff;stroke-width:0.12547323;stroke-linecap:round;stroke-linejoin:round;stroke-miterlimit:4;stroke-dasharray:none;stroke-opacity:0"
           d="m 387.0712,307.66437 c 0.17364,-0.19893 4.18519,-1.12784 5.36228,-1.2416 1.2187,-0.11784 3.64355,0.59902 3.67668,1.08695 0.008,0.11725 -0.0798,0.13082 -0.19502,0.0302 -0.11524,-0.10058 -1.07478,-10e-4 -2.13233,0.22069 -2.76409,0.58013 -4.40289,0.70308 -5.56458,0.41749 -1.03939,-0.25552 -1.27882,-0.36276 -1.14702,-0.51377 z"
           id="path4270"
           inkscape:connector-curvature="0"
           inkscape:transform-center-x="-26.921053"
           inkscape:transform-center-y="-50.582398" />
        <path
           style="opacity:0.68599997;fill:#cccccc;fill-opacity:1;stroke:#ffffff;stroke-width:0.12547323;stroke-linecap:round;stroke-linejoin:round;stroke-miterlimit:4;stroke-dasharray:none;stroke-opacity:0"
           d="m 404.49334,320.14468 c 0.0791,-0.0892 0.62921,-0.0753 1.22229,0.0307 0.5931,0.10598 1.89386,0.32464 2.8906,0.48591 1.94015,0.31392 3.13501,0.91876 3.93911,1.99397 0.48381,0.64695 0.38588,0.64092 -2.84503,-0.17506 -3.08855,-0.78004 -5.59157,-1.90273 -5.20697,-2.33552 z"
           id="path4274"
           inkscape:connector-curvature="0"
           inkscape:transform-center-x="-43.953695"
           inkscape:transform-center-y="-36.348095" />
        <path
           style="opacity:0.68599997;fill:#cccccc;fill-opacity:1;stroke:#ffffff;stroke-width:0.12547323;stroke-linecap:round;stroke-linejoin:round;stroke-miterlimit:4;stroke-dasharray:none;stroke-opacity:0"
           d="m 416.34834,339.18821 c -0.28513,-0.51289 -0.55338,-0.97834 -0.59608,-1.03436 -0.0427,-0.0559 0.82557,0.40891 1.92952,1.03315 2.77233,1.56766 3.96758,2.63355 4.57659,4.08125 l 0.49459,1.17573 -1.89629,-1.262 c -2.56504,-1.70706 -3.88906,-2.87996 -4.50833,-3.99377 z"
           id="path4278"
           inkscape:connector-curvature="0"
           inkscape:transform-center-x="-54.598472"
           inkscape:transform-center-y="-16.653616" />
        <path
           style="opacity:0.68599997;fill:#cccccc;fill-opacity:1;stroke:#ffffff;stroke-width:0.12547323;stroke-linecap:round;stroke-linejoin:round;stroke-miterlimit:4;stroke-dasharray:none;stroke-opacity:0"
           d="m 422.56884,366.40749 c -0.36134,-0.63547 -1.10876,-1.85774 -1.66091,-2.71616 -0.74947,-1.16518 -1.04334,-1.94086 -1.1594,-3.06034 -0.0941,-0.90745 -0.0483,-1.32105 0.11611,-1.04749 0.1494,0.24864 0.83468,1.16939 1.52289,2.04612 0.68822,0.87674 1.41816,2.01533 1.62209,2.53024 0.36295,0.91641 0.62265,3.42775 0.35277,3.41133 -0.0751,-0.004 -0.43218,-0.52823 -0.79355,-1.1637 z"
           id="path4280"
           inkscape:connector-curvature="0"
           inkscape:transform-center-x="-56.933712"
           inkscape:transform-center-y="5.5854981" />
        <path
           style="opacity:0.68599997;fill:#cccccc;fill-opacity:1;stroke:#ffffff;stroke-width:0.12547323;stroke-linecap:round;stroke-linejoin:round;stroke-miterlimit:4;stroke-dasharray:none;stroke-opacity:0"
           d="m 414.87895,387.77685 c -0.0901,-0.75536 -0.28417,-2.13052 -0.43125,-3.05594 -0.27556,-1.73384 -0.13509,-3.88054 0.26884,-4.10777 0.24617,-0.13853 1.34086,3.50354 1.49005,4.95744 0.11409,1.11173 -0.31642,2.88181 -0.7972,3.27775 -0.31546,0.25984 -0.38945,0.11041 -0.53045,-1.07148 z"
           id="path4282"
           inkscape:connector-curvature="0"
           inkscape:transform-center-x="-50.611528"
           inkscape:transform-center-y="26.832937" />
        <path
           style="opacity:0.68599997;fill:#cccccc;fill-opacity:1;stroke:#ffffff;stroke-width:0.12547323;stroke-linecap:round;stroke-linejoin:round;stroke-miterlimit:4;stroke-dasharray:none;stroke-opacity:0"
           d="m 399.66351,404.64197 c 0.20363,-0.77424 0.54507,-2.16653 0.75875,-3.09396 0.28062,-1.21801 0.65565,-2.04684 1.35054,-2.98485 l 0.96203,-1.2986 -0.24388,1.1195 c -0.13413,0.61574 -0.27639,1.5635 -0.31615,2.10616 -0.15901,2.17144 -0.64944,3.57458 -1.65011,4.72107 -0.53103,0.6084 -1.02535,1.04594 -1.09847,0.9723 -0.0734,-0.0734 0.0337,-0.76737 0.23729,-1.54162 z"
           id="path4284"
           inkscape:connector-curvature="0"
           inkscape:transform-center-x="-36.415568"
           inkscape:transform-center-y="43.777868" />
        <path
           style="opacity:0.68599997;fill:#cccccc;fill-opacity:1;stroke:#ffffff;stroke-width:0.12547323;stroke-linecap:round;stroke-linejoin:round;stroke-miterlimit:4;stroke-dasharray:none;stroke-opacity:0"
           d="m 378.57437,415.2148 c 0.28588,-0.33665 1.35308,-1.68345 2.37073,-2.9936 1.65883,-2.13553 1.95719,-2.42671 2.88266,-2.8134 l 1.03232,-0.43133 -0.55563,0.68085 c -0.3056,0.37446 -0.91664,1.34004 -1.3579,2.14569 -1.08915,1.98855 -2.08381,3.08034 -3.31771,3.64167 -1.34301,0.61097 -1.70319,0.53242 -1.05448,-0.22991 z"
           id="path4286"
           inkscape:connector-curvature="0"
           inkscape:transform-center-x="-16.906983"
           inkscape:transform-center-y="54.463587" />
        <path
           style="opacity:0.68599997;fill:#cccccc;fill-opacity:1;stroke:#ffffff;stroke-width:0.12547323;stroke-linecap:round;stroke-linejoin:round;stroke-miterlimit:4;stroke-dasharray:none;stroke-opacity:0"
           d="m 355.2458,416.42031 c 0.26028,-0.12982 1.46576,-0.86699 2.67881,-1.63824 2.37403,-1.50936 3.38804,-1.91811 4.83683,-1.94971 0.81265,-0.0177 0.86786,0.011 0.45647,0.23754 -0.25738,0.14178 -1.33936,0.91988 -2.40437,1.72919 -2.0998,1.59568 -3.44016,2.11503 -5.04725,1.95571 -0.90963,-0.0901 -0.95368,-0.11851 -0.52051,-0.33446 z"
           id="path4288"
           inkscape:connector-curvature="0"
           inkscape:transform-center-x="5.4289595"
           inkscape:transform-center-y="56.854886" />
        <path
           style="opacity:0.68599997;fill:#cccccc;fill-opacity:1;stroke:#ffffff;stroke-width:0.12547323;stroke-linecap:round;stroke-linejoin:round;stroke-miterlimit:4;stroke-dasharray:none;stroke-opacity:0"
           d="m 334.80683,408.22904 c 0.86271,-0.14738 2.24591,-0.39379 3.07378,-0.54761 0.82788,-0.15379 2.16337,-0.14842 2.96778,0.012 1.75192,0.3494 2.07938,0.56074 1.0625,0.68569 -0.41396,0.0509 -1.74636,0.34938 -2.96085,0.66334 -2.36742,0.61202 -3.74517,0.58103 -4.95397,-0.11141 l -0.7578,-0.43408 1.56856,-0.26796 z"
           id="path4290"
           inkscape:connector-curvature="0"
           inkscape:transform-center-x="26.79249"
           inkscape:transform-center-y="50.573196" />
        <path
           style="opacity:0.68599997;fill:#cccccc;fill-opacity:1;stroke:#ffffff;stroke-width:0.12547323;stroke-linecap:round;stroke-linejoin:round;stroke-miterlimit:4;stroke-dasharray:none;stroke-opacity:0"
           d="m 316.35366,392.82718 c -0.007,-0.12748 1.41748,0.11156 3.1667,0.5312 2.59132,0.62167 3.40933,0.93199 4.41629,1.6753 l 1.2359,0.91232 -1.60728,-0.25748 c -0.88398,-0.14162 -2.31284,-0.36702 -3.17524,-0.50089 -1.2386,-0.19228 -1.82582,-0.44144 -2.79533,-1.18605 -0.67504,-0.51844 -1.23351,-1.04691 -1.24104,-1.1744 z"
           id="path4292"
           inkscape:connector-curvature="0"
           inkscape:transform-center-x="43.890291"
           inkscape:transform-center-y="36.419187" />
        <path
           style="opacity:0.68599997;fill:#cccccc;fill-opacity:1;stroke:#ffffff;stroke-width:0.12547323;stroke-linecap:round;stroke-linejoin:round;stroke-miterlimit:4;stroke-dasharray:none;stroke-opacity:0"
           d="m 307.16775,373.02076 c -0.254,-0.57514 -0.44101,-1.1713 -0.4156,-1.32477 0.0496,-0.29953 3.3747,2.0316 4.88207,3.42267 0.92338,0.85214 1.89797,2.2982 1.70098,2.52388 -0.13467,0.15429 -2.9935,-1.55597 -4.59542,-2.74911 -0.81447,-0.60669 -1.23323,-1.10547 -1.57202,-1.87267 z"
           id="path4294"
           inkscape:connector-curvature="0"
           inkscape:transform-center-x="54.598054"
           inkscape:transform-center-y="16.71075" />
        <path
           style="opacity:0.68599997;fill:#cccccc;fill-opacity:1;stroke:#ffffff;stroke-width:0.12547323;stroke-linecap:round;stroke-linejoin:round;stroke-miterlimit:4;stroke-dasharray:none;stroke-opacity:0"
           d="m 309.44037,356.46856 c -0.007,-0.0993 -0.69952,-1.09452 -1.53949,-2.21146 -0.83996,-1.11694 -1.62184,-2.26584 -1.7375,-2.55309 -0.28189,-0.70016 -0.44361,-2.32652 -0.29641,-2.98147 0.10205,-0.45401 0.1512,-0.46481 0.34467,-0.0757 0.1241,0.24955 0.84863,1.43376 1.61008,2.63156 1.23981,1.95031 2.12782,4.20244 1.98863,5.04345 -0.0545,0.32924 -0.34964,0.44636 -0.36997,0.14685 z"
           id="path4296"
           inkscape:connector-curvature="0"
           inkscape:transform-center-x="56.835284"
           inkscape:transform-center-y="-5.4457979" />
        <path
           style="opacity:0.68599997;fill:#cccccc;fill-opacity:1;stroke:#ffffff;stroke-width:0.12547323;stroke-linecap:round;stroke-linejoin:round;stroke-miterlimit:4;stroke-dasharray:none;stroke-opacity:0"
           d="m 313.62898,332.84676 c -0.67567,-2.69196 -0.63849,-4.42434 0.12526,-5.83692 0.31247,-0.57793 0.36841,-0.444 0.76595,1.83434 0.23587,1.3518 0.4625,2.9889 0.50362,3.63801 0.079,1.24611 -0.18866,2.73503 -0.52503,2.92124 -0.11015,0.061 -0.50155,-1.08952 -0.8698,-2.55667 z"
           id="path4298"
           inkscape:connector-curvature="0"
           inkscape:transform-center-x="50.559451"
           inkscape:transform-center-y="-26.887242" />
        <path
           style="opacity:0.68599997;fill:#666666;fill-opacity:1;stroke:#ffffff;stroke-width:0.12547323;stroke-linecap:round;stroke-linejoin:round;stroke-miterlimit:4;stroke-dasharray:none;stroke-opacity:0"
           d="m 327.10271,315.31373 c 0.43214,-2.88538 0.48842,-3.04232 1.59529,-4.44791 0.81716,-1.03767 1.17529,-1.36647 1.24449,-1.14247 0.0538,0.1729 0.0183,0.40491 -0.0781,0.51534 -0.0964,0.11043 -0.39506,1.30235 -0.66368,2.64869 -0.50239,2.51795 -1.21347,4.23838 -2.06207,4.98916 -0.4118,0.3643 -0.41712,-0.0175 -0.0355,-2.56282 z"
           id="path4300"
           inkscape:connector-curvature="0"
           inkscape:transform-center-x="36.257984"
           inkscape:transform-center-y="-44.124836" />
        <path
           style="opacity:0.68599997;fill:#cccccc;fill-opacity:1;stroke:#ffffff;stroke-width:0.12547323;stroke-linecap:round;stroke-linejoin:round;stroke-miterlimit:4;stroke-dasharray:none;stroke-opacity:0"
           d="m 316.62388,322.84834 c 1.20404,-1.13321 2.25465,-1.53292 5.11142,-1.94461 1.08089,-0.15576 2.21718,-0.36311 2.52507,-0.46076 0.99587,-0.31582 -1.08284,1.38617 -2.2788,1.86589 -0.87563,0.35121 -5.58411,1.50674 -6.2335,1.52981 -0.10077,0.004 0.29332,-0.44204 0.87611,-0.99006 z"
           id="path4302"
           inkscape:connector-curvature="0"
           inkscape:transform-center-x="44.525981"
           inkscape:transform-center-y="-35.828816" />
        <path
           style="opacity:0.68599997;fill:#666666;fill-opacity:1;stroke:#ffffff;stroke-width:0.12547323;stroke-linecap:round;stroke-linejoin:round;stroke-miterlimit:4;stroke-dasharray:none;stroke-opacity:0"
           d="m 316.64058,322.82333 c 0.62535,-0.58295 1.4535,-1.06476 2.23268,-1.29888 1.27736,-0.38378 5.49833,-1.15095 5.64214,-1.02544 0.0446,0.0388 -0.27853,0.37022 -0.71793,0.73632 -1.01941,0.84932 -2.51287,1.44779 -4.71833,1.89078 -0.96099,0.19299 -2.04313,0.48508 -2.40478,0.64902 -1.09532,0.49662 -1.11109,0.0525 -0.0338,-0.95182 z"
           id="path4304"
           inkscape:connector-curvature="0"
           inkscape:transform-center-x="44.472312"
           inkscape:transform-center-y="-35.717913" />
        <path
           style="opacity:0.68599997;fill:#cccccc;fill-opacity:1;stroke:#ffffff;stroke-width:0.12547323;stroke-linecap:round;stroke-linejoin:round;stroke-miterlimit:4;stroke-dasharray:none;stroke-opacity:0"
           d="m 326.93713,316.75697 c -0.003,-0.45982 0.0298,-0.87751 0.0732,-0.9282 0.0434,-0.0506 0.25044,-0.87607 0.46022,-1.83415 0.3638,-1.66165 1.82152,-4.31555 2.19253,-3.99173 0.0827,0.0721 -0.22026,1.49404 -0.67317,3.15973 -0.45289,1.66569 -0.81619,3.10981 -0.80732,3.20915 0.009,0.0994 -0.26644,0.41476 -0.61179,0.70093 l -0.62791,0.52029 -0.006,-0.83602 z"
           id="path4308"
           inkscape:connector-curvature="0"
           inkscape:transform-center-x="36.346595"
           inkscape:transform-center-y="-44.165855" />
        <circle
           transform="matrix(-0.06565883,-0.99784213,0.99784213,-0.06565883,0,0)"
           inkscape:transform-center-y="45.251077"
           inkscape:transform-center-x="-45.390468"
           r="2.308362"
           cy="382.6853"
           cx="-429.25427"
           id="circle4314"
           style="opacity:0.68599997;fill:#2d2d2d;fill-opacity:1;stroke:#ffffff;stroke-width:0.38327599;stroke-linecap:round;stroke-linejoin:round;stroke-miterlimit:4;stroke-dasharray:none;stroke-opacity:0" />
        <circle
           style="opacity:0.68599997;fill:#2d2d2d;fill-opacity:1;stroke:#ffffff;stroke-width:0.38327599;stroke-linecap:round;stroke-linejoin:round;stroke-miterlimit:4;stroke-dasharray:none;stroke-opacity:0"
           id="circle4316"
           cx="292.21176"
           cy="423.44971"
           r="2.308362"
           inkscape:transform-center-x="45.268964"
           inkscape:transform-center-y="45.399423"
           transform="matrix(0.99784213,-0.06565883,0.06565883,0.99784213,0,0)" />
        <circle
           transform="matrix(0.06565883,0.99784213,-0.99784213,0.06565883,0,0)"
           inkscape:transform-center-y="-45.259977"
           inkscape:transform-center-x="45.417309"
           r="2.308362"
           cy="-298.01633"
           cx="332.9762"
           id="circle4318"
           style="opacity:0.68599997;fill:#2d2d2d;fill-opacity:1;stroke:#ffffff;stroke-width:0.38327599;stroke-linecap:round;stroke-linejoin:round;stroke-miterlimit:4;stroke-dasharray:none;stroke-opacity:0" />
        <circle
           style="opacity:0.68599997;fill:#2d2d2d;fill-opacity:1;stroke:#ffffff;stroke-width:0.38327599;stroke-linecap:round;stroke-linejoin:round;stroke-miterlimit:4;stroke-dasharray:none;stroke-opacity:0"
           id="path4312"
           cx="-388.48984"
           cy="-338.78073"
           r="2.308362"
           inkscape:transform-center-x="-45.242091"
           inkscape:transform-center-y="-45.408353"
           transform="matrix(-0.99784213,0.06565883,-0.06565883,-0.99784213,0,0)" />
        <g
           id="g4447"
           transform="matrix(-0.71274428,-0.70142397,0.70142397,-0.71274428,385.73056,867.01049)"
           inkscape:transform-center-x="0.013469471"
           inkscape:transform-center-y="-0.0044584442">
          <circle
             transform="matrix(-0.0549644,-0.99848831,0.99848831,-0.0549644,0,0)"
             inkscape:transform-center-y="4.2385222"
             inkscape:transform-center-x="-63.96571"
             r="2.308362"
             cy="394.74463"
             cx="-416.10477"
             id="circle4449"
             style="opacity:0.68599997;fill:#2d2d2d;fill-opacity:1;stroke:#ffffff;stroke-width:0.38327599;stroke-linecap:round;stroke-linejoin:round;stroke-miterlimit:4;stroke-dasharray:none;stroke-opacity:0" />
          <circle
             style="opacity:0.68599997;fill:#2d2d2d;fill-opacity:1;stroke:#ffffff;stroke-width:0.38327599;stroke-linecap:round;stroke-linejoin:round;stroke-miterlimit:4;stroke-dasharray:none;stroke-opacity:0"
             id="circle4451"
             cx="304.27109"
             cy="410.3002"
             r="2.308362"
             inkscape:transform-center-x="4.2385374"
             inkscape:transform-center-y="63.965695"
             transform="matrix(0.99848831,-0.0549644,0.0549644,0.99848831,0,0)" />
          <circle
             transform="matrix(0.0549644,0.99848831,-0.99848831,0.0549644,0,0)"
             inkscape:transform-center-y="-4.2385308"
             inkscape:transform-center-x="63.965689"
             r="2.308362"
             cy="-310.07565"
             cx="319.82669"
             id="circle4453"
             style="opacity:0.68599997;fill:#2d2d2d;fill-opacity:1;stroke:#ffffff;stroke-width:0.38327599;stroke-linecap:round;stroke-linejoin:round;stroke-miterlimit:4;stroke-dasharray:none;stroke-opacity:0" />
          <circle
             style="opacity:0.68599997;fill:#2d2d2d;fill-opacity:1;stroke:#ffffff;stroke-width:0.38327599;stroke-linecap:round;stroke-linejoin:round;stroke-miterlimit:4;stroke-dasharray:none;stroke-opacity:0"
             id="circle4455"
             cx="-400.54916"
             cy="-325.63123"
             r="2.308362"
             inkscape:transform-center-x="-41.857052"
             inkscape:transform-center-y="-40.897729"
             transform="matrix(-0.99848831,0.0549644,-0.0549644,-0.99848831,0,0)" />
        </g>
        <circle
           transform="matrix(-0.75022019,-0.66118808,0.66118808,-0.75022019,0,0)"
           inkscape:transform-center-y="0.06432758"
           inkscape:transform-center-x="-64.092488"
           r="2.308362"
           cy="14.891893"
           cx="-558.36877"
           id="circle4499"
           style="opacity:0.68599997;fill:#2d2d2d;fill-opacity:1;stroke:#ffffff;stroke-width:0.38327599;stroke-linecap:round;stroke-linejoin:round;stroke-miterlimit:4;stroke-dasharray:none;stroke-opacity:0" />
        <circle
           style="opacity:0.68599997;fill:#2d2d2d;fill-opacity:1;stroke:#ffffff;stroke-width:0.38327599;stroke-linecap:round;stroke-linejoin:round;stroke-miterlimit:4;stroke-dasharray:none;stroke-opacity:0"
           id="circle4501"
           cx="-75.58165"
           cy="552.56421"
           r="2.308362"
           inkscape:transform-center-x="0.082242912"
           inkscape:transform-center-y="64.101497"
           transform="matrix(0.66118808,-0.75022019,0.75022019,0.66118808,0,0)" />
        <circle
           transform="matrix(0.75022019,0.66118808,-0.66118808,0.75022019,0,0)"
           inkscape:transform-center-y="-0.073232964"
           inkscape:transform-center-x="64.119411"
           r="2.308362"
           cy="69.777084"
           cx="462.09067"
           id="circle4503"
           style="opacity:0.68599997;fill:#2d2d2d;fill-opacity:1;stroke:#ffffff;stroke-width:0.38327599;stroke-linecap:round;stroke-linejoin:round;stroke-miterlimit:4;stroke-dasharray:none;stroke-opacity:0" />
        <circle
           style="opacity:0.68599997;fill:#2d2d2d;fill-opacity:1;stroke:#ffffff;stroke-width:0.38327599;stroke-linecap:round;stroke-linejoin:round;stroke-miterlimit:4;stroke-dasharray:none;stroke-opacity:0"
           id="circle4505"
           cx="-20.696428"
           cy="-467.8952"
           r="2.308362"
           inkscape:transform-center-x="-0.055276493"
           inkscape:transform-center-y="-64.110399"
           transform="matrix(-0.66118808,0.75022019,-0.75022019,-0.66118808,0,0)" />
      </g>
    </g>
  </g>
</svg>
