<?xml version="1.0" encoding="UTF-8" standalone="no"?>
<!-- Created with Inkscape (http://www.inkscape.org/) -->

<svg
   xmlns:dc="http://purl.org/dc/elements/1.1/"
   xmlns:cc="http://creativecommons.org/ns#"
   xmlns:rdf="http://www.w3.org/1999/02/22-rdf-syntax-ns#"
   xmlns:svg="http://www.w3.org/2000/svg"
   xmlns="http://www.w3.org/2000/svg"
   xmlns:sodipodi="http://sodipodi.sourceforge.net/DTD/sodipodi-0.dtd"
   xmlns:inkscape="http://www.inkscape.org/namespaces/inkscape"
   width="500"
   height="500"
   viewBox="0 0 500.00002 500.00002"
   id="svg2"
   version="1.1"
   inkscape:version="0.91 r13725"
   sodipodi:docname="Manish Nootan Medical Shop.svg">
  <defs
     id="defs4" />
  <sodipodi:namedview
     id="base"
     pagecolor="#ffffff"
     bordercolor="#666666"
     borderopacity="1.0"
     inkscape:pageopacity="0.0"
     inkscape:pageshadow="2"
     inkscape:zoom="0.90509668"
     inkscape:cx="222.26265"
     inkscape:cy="308.53441"
     inkscape:document-units="px"
     inkscape:current-layer="layer1"
     showgrid="false"
     units="px"
     inkscape:window-width="1394"
     inkscape:window-height="856"
     inkscape:window-x="46"
     inkscape:window-y="0"
     inkscape:window-maximized="1" />
  <metadata
     id="metadata7">
    <rdf:RDF>
      <cc:Work
         rdf:about="">
        <dc:format>image/svg+xml</dc:format>
        <dc:type
           rdf:resource="http://purl.org/dc/dcmitype/StillImage" />
        <dc:title></dc:title>
      </cc:Work>
    </rdf:RDF>
  </metadata>
  <g
     inkscape:label="Layer 1"
     inkscape:groupmode="layer"
     id="layer1"
     transform="translate(0,-552.36088)">
    <text
       xml:space="preserve"
       style="font-style:normal;font-weight:normal;font-size:400px;line-height:125%;font-family:sans-serif;letter-spacing:0px;word-spacing:0px;fill:#000000;fill-opacity:1;stroke:none;stroke-width:1px;stroke-linecap:butt;stroke-linejoin:miter;stroke-opacity:1"
       x="7776.9219"
       y="-31294.787"
       id="text4178"
       sodipodi:linespacing="125%"><tspan
         sodipodi:role="line"
         id="tspan4180"
         x="7776.9219"
         y="-31294.787" /></text>
    <text
       xml:space="preserve"
       style="font-style:normal;font-weight:normal;font-size:400px;line-height:125%;font-family:sans-serif;letter-spacing:0px;word-spacing:0px;fill:#000000;fill-opacity:1;stroke:none;stroke-width:1px;stroke-linecap:butt;stroke-linejoin:miter;stroke-opacity:1"
       x="13696.922"
       y="-30654.787"
       id="text4160"
       sodipodi:linespacing="125%"><tspan
         sodipodi:role="line"
         id="tspan4162"
         x="13696.922"
         y="-30654.787" /></text>
    <g
       id="g4255"
       transform="matrix(0.85236434,0,0,0.85236434,-8092.5246,14588.044)">
      <circle
         r="99.999992"
         cy="-16333.312"
         cx="9904.5361"
         id="path4491"
         style="opacity:1;fill:#fb0071;fill-opacity:1;fill-rule:nonzero;stroke:#ffc022;stroke-width:0;stroke-linecap:round;stroke-linejoin:round;stroke-miterlimit:4;stroke-dasharray:none;stroke-dashoffset:0;stroke-opacity:1" />
      <path
         sodipodi:nodetypes="ccccccccccsccccccscsscsccccccccccccsccccscscsscccscccccscccccsccccccssc"
         inkscape:connector-curvature="0"
         id="text4190"
         d="m 9938.3114,-16335.226 c -28.4,-125.098 -63.279,25.676 -63.279,25.676 -72.04,25.131 -4.715,18.681 -10.443,26.602 -5.529,7.612 -10.311,15.592 -14.345,23.942 -7.56,16.588 -13.398,33.733 -17.514,51.432 -4.172,17.444 -7.725,35.286 -10.656,53.525 -3.826,25.1 -7.114,50.216 -9.867,75.348 -2.555,24.821 -5.999,49.836 -10.334,75.048 -4.867,-17.328 -10.189,-34.29 -15.961,-50.886 l -17.485,-50.553 c -8.631,-24.768 -17.588,-49.198 -26.871,-73.289 -9.283,-24.092 -20.319,-47.665 -33.107,-70.721 0.06,-2.146 -0.965,-3.788 -3.08,-4.924 -1.861,-1.191 -3.809,-1.563 -5.844,-1.117 l -0.762,0.166 c -12.223,7.48 -23.942,16.05 -35.154,25.707 -10.958,9.602 -21.606,19.402 -31.943,29.401 -6.373,6.196 -12.478,13.001 -18.317,20.414 -5.839,7.412 -10.776,15.293 -14.81,23.642 -4.09,8.096 -6.897,16.577 -8.418,25.442 -1.522,8.865 -1.25,18.002 0.814,27.414 0.223,1.017 1.21,1.868 2.959,2.55 2.004,0.627 3.387,0.857 4.15,0.69 2.799,-0.614 4.299,-2.275 4.504,-4.986 0.15,-2.966 0.2,-5.777 0.151,-8.432 -0.105,-2.91 0.172,-5.903 0.83,-8.98 2.577,-12.563 7.905,-24.128 15.984,-34.698 8.334,-10.626 16.92,-20.107 25.756,-28.443 6.174,-5.886 12.587,-11.292 19.238,-16.217 6.596,-5.179 12.981,-10.713 19.155,-16.6 -2.968,10.782 -5.371,21.708 -7.209,32.776 -1.584,11.012 -3.014,22.122 -4.287,33.332 -1.076,10.9 -2.25,21.956 -3.524,33.166 -1.019,11.154 -2.32,22.236 -3.904,33.248 -1.814,12.395 -4.027,25.411 -6.635,39.047 -2.354,13.58 -5.835,26.874 -10.447,39.883 -4.612,13.008 -10.466,25.224 -17.559,36.644 -6.839,11.364 -15.649,21.029 -26.433,28.992 -4.641,3.151 -9.139,5.737 -13.495,7.758 -4.665,1.823 -9.402,3.929 -14.21,6.317 -2.687,1.122 -3.697,3.209 -3.028,6.261 0.279,1.272 1.067,2.432 2.363,3.481 1.043,1.104 2.199,1.517 3.471,1.238 8.903,-1.953 17.273,-5.121 25.11,-9.506 7.892,-4.13 15.18,-9.193 21.863,-15.191 6.683,-5.998 12.689,-12.648 18.019,-19.949 5.331,-7.301 9.913,-14.971 13.749,-23.01 7.472,-15.769 13.124,-31.94 16.955,-48.51 4.085,-16.626 7.451,-33.494 10.097,-50.603 3.739,-24.282 6.97,-48.452 9.692,-72.51 2.721,-24.059 6.078,-48.255 10.072,-72.592 13.246,31.22 24.64,63.114 34.181,95.68 9.741,32.256 20.145,64.499 31.213,96.73 3.56,10.15 7.513,20.881 11.86,32.192 4.545,11 9.785,20.914 15.72,29.744 1.21,1.867 2.959,2.551 5.248,2.048 1.272,-0.278 2.39,-0.657 3.352,-1.134 1.216,-0.534 2.121,-1.265 2.717,-2.196 6.473,-11.817 11.41,-25.164 14.812,-40.041 3.657,-14.932 6.441,-30.205 8.348,-45.82 2.106,-15.925 3.859,-31.639 5.258,-47.142 1.343,-15.758 2.964,-30.244 4.865,-43.458 1.901,-13.214 4.071,-27.021 6.512,-41.419 2.695,-14.455 6.393,-28.597 11.092,-42.424 4.953,-13.884 11.047,-26.818 18.283,-38.803 7.434,-12.295 21.443,-26.675 32.934,-35.06 5.094,-3.517 9.975,-6.187 14.641,-8.01 4.61,-2.077 9.573,-4.366 14.89,-6.865 2.885,-1.433 5.648,-4.639 3.323,-6.727 -5.26,-4.72 9.034,-25.667 7.738,-26.716 -0.972,-0.786 -12.04,22.035 -12.998,21.996 z"
         style="font-style:normal;font-weight:normal;font-size:400px;line-height:125%;font-family:sans-serif;letter-spacing:0px;word-spacing:0px;fill:#0084c8;fill-opacity:1;stroke:#0084c8;stroke-width:4.5;stroke-linecap:butt;stroke-linejoin:miter;stroke-miterlimit:4;stroke-dasharray:none;stroke-opacity:1" />
      <ellipse
         ry="9.9999981"
         rx="10.000002"
         cy="-16355.253"
         cx="9913.3545"
         id="path4491-5-1"
         style="opacity:1;fill:#fb0071;fill-opacity:1;fill-rule:nonzero;stroke:#ffc022;stroke-width:0;stroke-linecap:round;stroke-linejoin:round;stroke-miterlimit:4;stroke-dasharray:none;stroke-dashoffset:0;stroke-opacity:1" />
      <ellipse
         ry="2.8571448"
         rx="2.857146"
         cy="-16330.397"
         cx="9936.4697"
         id="path4491-5-1-8"
         style="opacity:1;fill:#fb0071;fill-opacity:1;fill-rule:nonzero;stroke:#ffc022;stroke-width:0;stroke-linecap:round;stroke-linejoin:round;stroke-miterlimit:4;stroke-dasharray:none;stroke-dashoffset:0;stroke-opacity:1" />
    </g>
    <text
       xml:space="preserve"
       style="font-style:normal;font-weight:normal;font-size:400px;line-height:125%;font-family:sans-serif;letter-spacing:0px;word-spacing:0px;fill:#000000;fill-opacity:1;stroke:none;stroke-width:1px;stroke-linecap:butt;stroke-linejoin:miter;stroke-opacity:1"
       x="9024.5732"
       y="-14941.097"
       id="text4178-6"
       sodipodi:linespacing="125%"><tspan
         sodipodi:role="line"
         id="tspan4180-6"
         x="9024.5732"
         y="-14941.097" /></text>
    <text
       xml:space="preserve"
       style="font-style:normal;font-weight:normal;font-size:400px;line-height:125%;font-family:sans-serif;letter-spacing:0px;word-spacing:0px;fill:#000000;fill-opacity:1;stroke:none;stroke-width:1px;stroke-linecap:butt;stroke-linejoin:miter;stroke-opacity:1"
       x="14944.573"
       y="-14301.096"
       id="text4160-6"
       sodipodi:linespacing="125%"><tspan
         sodipodi:role="line"
         id="tspan4162-4"
         x="14944.573"
         y="-14301.096" /></text>
    <flowRoot
       transform="translate(534.37092,-11410.846)"
       xml:space="preserve"
       id="flowRoot5747"
       style="font-style:normal;font-weight:normal;font-size:40px;line-height:125%;font-family:sans-serif;letter-spacing:0px;word-spacing:0px;fill:#000000;fill-opacity:1;stroke:none;stroke-width:1px;stroke-linecap:butt;stroke-linejoin:miter;stroke-opacity:1"><flowRegion
         id="flowRegion5749"><rect
           id="rect5751"
           width="3264.813"
           height="484.87323"
           x="2311.229"
           y="1351.8779" /></flowRegion><flowPara
         id="flowPara5753" /></flowRoot>    <flowRoot
       transform="translate(534.37092,-11410.846)"
       xml:space="preserve"
       id="flowRoot5770"
       style="font-style:normal;font-weight:normal;font-size:40px;line-height:125%;font-family:sans-serif;letter-spacing:0px;word-spacing:0px;fill:#000000;fill-opacity:1;stroke:none;stroke-width:1px;stroke-linecap:butt;stroke-linejoin:miter;stroke-opacity:1"><flowRegion
         id="flowRegion5772"><rect
           id="rect5774"
           width="3588.0618"
           height="662.6601"
           x="2181.9294"
           y="1384.2029" /></flowRegion><flowPara
         id="flowPara5776" /></flowRoot>    <flowRoot
       transform="translate(534.37092,-11410.846)"
       xml:space="preserve"
       id="flowRoot5784"
       style="font-style:normal;font-weight:normal;font-size:40px;line-height:125%;font-family:sans-serif;letter-spacing:0px;word-spacing:0px;fill:#000000;fill-opacity:1;stroke:none;stroke-width:1px;stroke-linecap:butt;stroke-linejoin:miter;stroke-opacity:1"><flowRegion
         id="flowRegion5786"><rect
           id="rect5788"
           width="3895.1482"
           height="759.6347"
           x="2343.554"
           y="1222.5785" /></flowRegion><flowPara
         id="flowPara5790" /></flowRoot>    <flowRoot
       transform="translate(534.37092,-11410.846)"
       xml:space="preserve"
       id="flowRoot5792"
       style="font-style:normal;font-weight:normal;font-size:40px;line-height:125%;font-family:sans-serif;letter-spacing:0px;word-spacing:0px;fill:#000000;fill-opacity:1;stroke:none;stroke-width:1px;stroke-linecap:butt;stroke-linejoin:miter;stroke-opacity:1"><flowRegion
         id="flowRegion5794"><rect
           id="rect5796"
           width="1620.2847"
           height="254.55844"
           x="2258.7012"
           y="1481.1775" /></flowRegion><flowPara
         id="flowPara5798" /></flowRoot>    <flowRoot
       transform="translate(8860.5533,-11280.859)"
       xml:space="preserve"
       id="flowRoot5747-4"
       style="font-style:normal;font-weight:normal;font-size:40px;line-height:125%;font-family:sans-serif;letter-spacing:0px;word-spacing:0px;fill:#000000;fill-opacity:1;stroke:none;stroke-width:1px;stroke-linecap:butt;stroke-linejoin:miter;stroke-opacity:1"><flowRegion
         id="flowRegion5749-5"><rect
           id="rect5751-5"
           width="3264.813"
           height="484.87323"
           x="2311.229"
           y="1351.8779" /></flowRegion><flowPara
         id="flowPara5753-1" /></flowRoot>    <flowRoot
       transform="translate(8860.5533,-11280.859)"
       xml:space="preserve"
       id="flowRoot5770-5"
       style="font-style:normal;font-weight:normal;font-size:40px;line-height:125%;font-family:sans-serif;letter-spacing:0px;word-spacing:0px;fill:#000000;fill-opacity:1;stroke:none;stroke-width:1px;stroke-linecap:butt;stroke-linejoin:miter;stroke-opacity:1"><flowRegion
         id="flowRegion5772-7"><rect
           id="rect5774-2"
           width="3588.0618"
           height="662.6601"
           x="2181.9294"
           y="1384.2029" /></flowRegion><flowPara
         id="flowPara5776-4" /></flowRoot>    <flowRoot
       transform="translate(8860.5533,-11280.859)"
       xml:space="preserve"
       id="flowRoot5784-1"
       style="font-style:normal;font-weight:normal;font-size:40px;line-height:125%;font-family:sans-serif;letter-spacing:0px;word-spacing:0px;fill:#000000;fill-opacity:1;stroke:none;stroke-width:1px;stroke-linecap:butt;stroke-linejoin:miter;stroke-opacity:1"><flowRegion
         id="flowRegion5786-0"><rect
           id="rect5788-6"
           width="3895.1482"
           height="759.6347"
           x="2343.554"
           y="1222.5785" /></flowRegion><flowPara
         id="flowPara5790-3" /></flowRoot>    <flowRoot
       transform="translate(8860.5533,-11280.859)"
       xml:space="preserve"
       id="flowRoot5792-7"
       style="font-style:normal;font-weight:normal;font-size:40px;line-height:125%;font-family:sans-serif;letter-spacing:0px;word-spacing:0px;fill:#000000;fill-opacity:1;stroke:none;stroke-width:1px;stroke-linecap:butt;stroke-linejoin:miter;stroke-opacity:1"><flowRegion
         id="flowRegion5794-9"><rect
           id="rect5796-6"
           width="1620.2847"
           height="254.55844"
           x="2258.7012"
           y="1481.1775" /></flowRegion><flowPara
         id="flowPara5798-3" /></flowRoot>    <text
       xml:space="preserve"
       style="font-style:normal;font-weight:normal;font-size:400px;line-height:125%;font-family:sans-serif;letter-spacing:0px;word-spacing:0px;fill:#000000;fill-opacity:1;stroke:none;stroke-width:1px;stroke-linecap:butt;stroke-linejoin:miter;stroke-opacity:1"
       x="7689.7861"
       y="-5788.8965"
       id="text4408"
       sodipodi:linespacing="125%"><tspan
         sodipodi:role="line"
         id="tspan4410"
         x="7689.7861"
         y="-5788.8965" /></text>
  </g>
</svg>
