<?xml version="1.0" encoding="UTF-8" standalone="no"?>
<!DOCTYPE svg PUBLIC "-//W3C//DTD SVG 1.1//EN" "http://www.w3.org/Graphics/SVG/1.1/DTD/svg11.dtd">
<svg width="100%" height="100%" viewBox="0 0 2780 1062" version="1.1" xmlns="http://www.w3.org/2000/svg" xmlns:xlink="http://www.w3.org/1999/xlink" xml:space="preserve" xmlns:serif="http://www.serif.com/" style="fill-rule:evenodd;clip-rule:evenodd;stroke-linejoin:round;stroke-miterlimit:2;">
    <g transform="matrix(1,0,0,1,-13587.8,-28636.4)">
        <g transform="matrix(6.38187,0,0,1.52652,-81800.2,4272.51)">
            <g transform="matrix(0.156694,0,0,0.655084,12817.6,-2798.85)">
                <path d="M14593.3,29695.2L14593.9,29695.2L14593.9,29695L14809.8,29611.5L14809.8,29286.6L14591,29187.3L13608.5,29187.3L13601.3,29697.8L14586.8,29697.8L14593.3,29695.2ZM14291.5,29607.4L13702.6,29685.3L14581.4,29685.3L14581.4,29603.8L14291.5,29607.4ZM14284.8,29361.9L14284.8,29289.4L13620.8,29200.7L13614,29684.4L14284.8,29595.6L14284.8,29528.7C14239.6,29521.4 14197.7,29487.8 14197.7,29442.4C14197.7,29400.7 14241,29371.5 14284.8,29361.9ZM14797.3,29601.1L14593.9,29603.6L14593.9,29681.6L14797.3,29602.9L14797.3,29601.1ZM15143.8,29302.7L15175.8,29302.7L15175.8,29348.2C15201.1,29313.5 15234.1,29296.1 15274.8,29296.1C15309.9,29296.1 15340.1,29309 15365.5,29334.8C15390.8,29360.7 15403.5,29391.7 15403.5,29428C15403.5,29464.4 15391,29495.5 15365.9,29521.5C15340.9,29547.5 15310.8,29560.5 15275.8,29560.5C15237.6,29560.5 15204.2,29543.4 15175.8,29509.3L15175.8,29643.1L15143.8,29643.1L15143.8,29302.7ZM14297.3,29359.8C14303.4,29358.9 14309.4,29358.5 14315.2,29358.5C14366.8,29358.5 14384.1,29390.9 14384.5,29442.4C14384.8,29478.2 14354.9,29530.3 14303.3,29530.3C14301.3,29530.3 14299.3,29530.2 14297.3,29530.1L14297.3,29594.8L14797.3,29588.6L14797.3,29296.5L14297.3,29290.3L14297.3,29359.8ZM16331.5,29471.2L16358.7,29485.3C16331.8,29535.4 16292,29560.5 16239.4,29560.5C16201.9,29560.5 16170.9,29547.6 16146.5,29521.7C16122,29495.9 16109.8,29464.8 16109.8,29428.5C16109.8,29392.2 16122.1,29361 16146.7,29335.1C16171.3,29309.1 16201.6,29296.1 16237.8,29296.1C16274,29296.1 16304.3,29308.1 16328.9,29332.2C16353.5,29356.3 16366.2,29389.2 16367.2,29430.9L16142.7,29430.9C16143.6,29460.9 16153.1,29485.1 16171.1,29503.4C16189.1,29521.7 16211,29530.9 16236.6,29530.9C16278.9,29530.9 16310.5,29511 16331.5,29471.2ZM15922.4,29471.2L15949.7,29485.3C15922.8,29535.4 15883,29560.5 15830.4,29560.5C15792.8,29560.5 15761.8,29547.6 15737.4,29521.7C15713,29495.9 15700.8,29464.8 15700.8,29428.5C15700.8,29392.2 15713.1,29361 15737.7,29335.1C15762.2,29309.1 15792.6,29296.1 15828.8,29296.1C15864.9,29296.1 15895.3,29308.1 15919.9,29332.2C15944.4,29356.3 15957.2,29389.2 15958.1,29430.9L15733.7,29430.9C15734.6,29460.9 15744.1,29485.1 15762.1,29503.4C15780.1,29521.7 15801.9,29530.9 15827.6,29530.9C15869.9,29530.9 15901.5,29511 15922.4,29471.2ZM15105.3,29329.9L15084.6,29351C15067.4,29334.4 15050.7,29326.1 15034.4,29326.1C15023.8,29326.1 15014.8,29329.5 15007.6,29336.2C15000.4,29343 14996.8,29351.3 14996.8,29361.1C14996.8,29371 15000.7,29379.4 15008.3,29386.5C15016,29393.5 15029.2,29402 15048,29411.8C15066.8,29421.7 15081.1,29432.3 15091,29443.8C15100.8,29455.2 15105.8,29469.2 15105.8,29485.8C15105.8,29506.8 15098.5,29524.5 15083.9,29538.9C15069.4,29553.3 15051.5,29560.5 15030.2,29560.5C15016.1,29560.5 15002.5,29557.3 14989.5,29551.1C14976.6,29544.8 14965.5,29536.1 14956.4,29524.8L14976.6,29502.2C14993.2,29520.7 15010.6,29529.9 15028.8,29529.9C15041.6,29529.9 15052.6,29525.7 15061.6,29517.3C15070.7,29508.8 15075.3,29498.9 15075.3,29487.4C15075.3,29476 15071.3,29466.6 15063.3,29459.3C15055.3,29451.9 15042,29443.5 15023.4,29434.1C15004.7,29424.8 14990.8,29414.5 14981.6,29403.4C14972.3,29392.3 14967.7,29377.9 14967.7,29360.2C14967.7,29342.5 14974.2,29327.4 14987.2,29314.9C15000.2,29302.3 15017.4,29296.1 15038.9,29296.1C15060.3,29296.1 15082.5,29307.3 15105.3,29329.9ZM15444.8,29206.4L15477.2,29206.4L15477.2,29347.3C15502.9,29313.1 15534.1,29296.1 15570.7,29296.1C15589.5,29296.1 15606.4,29301.2 15621.4,29311.3C15636.4,29321.5 15647.1,29334.8 15653.4,29351.3C15659.6,29367.7 15662.7,29391.9 15662.7,29423.8L15662.7,29552L15630.3,29552L15630.3,29433.2C15630.3,29407.5 15629.6,29389.8 15628,29380.1C15626.4,29370.4 15623,29361.2 15617.7,29352.4C15612.3,29343.7 15605.2,29337 15596.3,29332.5C15587.4,29327.9 15576.6,29325.7 15563.9,29325.7C15551.2,29325.7 15539.1,29328.6 15527.5,29334.6C15515.9,29340.5 15506.1,29348.8 15497.9,29359.5C15489.8,29370.1 15484.3,29381.1 15481.5,29392.4C15478.7,29403.6 15477.2,29426.3 15477.2,29460.4L15477.2,29552L15444.8,29552L15444.8,29206.4ZM15986.8,29302.7L16019.7,29302.7L16019.7,29338.8C16028.4,29324.1 16037,29313.3 16045.3,29306.4C16053.5,29299.5 16062.8,29296.1 16073,29296.1C16083.1,29296.1 16093.4,29298.9 16103.7,29304.5L16086.8,29331.8C16082.1,29329 16077.3,29327.5 16072.3,29327.5C16062.6,29327.5 16053.4,29332.6 16044.8,29342.6C16036.2,29352.6 16029.8,29365.5 16025.8,29381.3C16021.7,29397.1 16019.7,29425.8 16019.7,29467.5L16019.7,29552L15986.8,29552L15986.8,29302.7ZM15371.6,29428.5C15371.6,29400.6 15362,29376.8 15342.7,29356.9C15323.4,29337 15299.9,29327.1 15272,29327.1C15244.2,29327.1 15220.8,29336.9 15201.8,29356.4C15182.9,29376 15173.4,29400.2 15173.4,29429C15173.4,29457.8 15183.1,29482 15202.5,29501.5C15221.9,29521.1 15245.2,29530.9 15272.3,29530.9C15299.3,29530.9 15322.7,29520.9 15342.2,29501.1C15361.8,29481.2 15371.6,29457 15371.6,29428.5ZM16331.5,29403.2C16327.1,29379.4 16316.1,29360.7 16298.6,29347.3C16281.1,29333.8 16260.9,29327.1 16238,29327.1C16191.1,29327.1 16160.4,29352.4 16146,29403.2L16331.5,29403.2ZM15922.4,29403.2C15918.1,29379.4 15907.1,29360.7 15889.6,29347.3C15872,29333.8 15851.8,29327.1 15829,29327.1C15782,29327.1 15751.3,29352.4 15736.9,29403.2L15922.4,29403.2ZM14595.9,29281.5L14773.1,29283.7L14595.9,29203.3L14595.9,29281.5ZM14291.5,29277.7L14583.4,29281.3L14583.4,29199.8L13708.6,29199.8L14291.5,29277.7ZM14596.4,28636.4L14596.4,29091.7L14555,29091.7L14555,29035.4C14517.4,29080.4 14474.4,29102.9 14426,29102.9C14377.5,29102.9 14336.8,29085.8 14303.8,29051.5C14270.8,29017.3 14254.3,28976.2 14254.3,28928.4C14254.3,28880.6 14271,28839.6 14304.4,28805.6C14337.8,28771.6 14377.8,28754.5 14424.4,28754.5C14478.1,28754.5 14521.6,28777.4 14555,28823.2L14555,28636.4L14596.4,28636.4ZM14198,28763.2L14198,29091.7L14156.5,29091.7L14156.5,29035.4C14119,29080.4 14076.1,29102.9 14027.8,29102.9C13979.6,29102.9 13938.8,29085.7 13905.6,29051.2C13872.4,29016.8 13855.8,28975.7 13855.8,28928.1C13855.8,28880.5 13872.5,28839.6 13906,28805.6C13939.4,28771.6 13979.4,28754.5 14026,28754.5C14079.6,28754.5 14123.1,28777.4 14156.5,28823.2L14156.5,28763.2L14198,28763.2ZM15469.4,28763.2L15469.4,29091.7L15428,29091.7L15428,29035.4C15390.4,29080.4 15347.5,29102.9 15299.3,29102.9C15251,29102.9 15210.3,29085.7 15177.1,29051.2C15143.9,29016.8 15127.3,28975.7 15127.3,28928.1C15127.3,28880.5 15144,28839.6 15177.4,28805.6C15210.8,28771.6 15250.8,28754.5 15297.4,28754.5C15351,28754.5 15394.6,28777.4 15428,28823.2L15428,28763.2L15469.4,28763.2ZM15087.7,28831.3L15054.3,28852.3C15025.4,28813.9 14985.8,28794.8 14935.5,28794.8C14895.9,28794.8 14862.7,28807.4 14835.9,28832.8C14809.1,28858.2 14795.7,28889.6 14795.7,28927.2C14795.7,28964.7 14808.9,28996.9 14835.3,29023.7C14861.7,29050.5 14895.1,29063.9 14935.5,29063.9C14983.7,29063.9 15023.3,29044.7 15054.3,29006.4L15087.7,29028.6C15071.2,29052.6 15049,29070.9 15021.2,29083.7C14993.3,29096.5 14963.3,29102.9 14931.2,29102.9C14880.4,29102.9 14838,29086.2 14804,29052.8C14770,29019.4 14753,28978.5 14753,28930.3C14753,28882 14770.2,28840.6 14804.6,28806.2C14839.1,28771.8 14883.3,28754.5 14937.3,28754.5C14969.1,28754.5 14998.5,28761.4 15025.5,28775C15052.5,28788.6 15073.2,28807.3 15087.7,28831.3ZM13834.3,28780.2C13834.3,28769 13830.1,28759.8 13821.6,28752.5C13813,28745.2 13802.7,28741.5 13790.6,28741.5C13775.5,28741.5 13762.1,28745.7 13750.4,28753.9C13738.8,28762.2 13728.8,28772 13720.5,28783.5C13712.3,28794.9 13705.5,28806.2 13700.1,28817.4C13694.8,28828.6 13690.9,28837.1 13688.5,28842.9L13687,28842.9L13688.5,28741.5L13684.1,28741.5L13588.5,28778.7L13588.5,28783.1C13594.4,28785.5 13600.2,28788.6 13606,28792.2C13611.9,28795.9 13617,28798.9 13621.4,28801.3C13624.8,28803.8 13626.8,28806 13627.6,28807.9C13628.3,28809.8 13628.6,28812.8 13628.6,28816.7L13628.6,29063.2C13628.6,29070.9 13624.6,29076.5 13616.6,29079.9C13608.6,29083.3 13599,29085.5 13587.8,29086.5L13587.8,29093.8L13751.2,29093.8L13751.2,29086.5C13746.3,29085.5 13740.6,29084.9 13734,29084.7C13727.5,29084.4 13721.2,29083.8 13715.1,29082.9C13709,29081.9 13703.5,29080.2 13698.7,29077.8C13693.8,29075.3 13690.6,29071.9 13689.2,29067.5L13689.2,28857.5C13692.1,28850.2 13695.5,28842.5 13699.4,28834.5C13703.3,28826.5 13707.7,28819.3 13712.5,28813C13717.4,28806.7 13722.6,28801.5 13728.2,28797.3C13733.8,28793.2 13739.5,28791.1 13745.3,28791.1C13752.1,28791.1 13757.5,28792.5 13761.4,28795.1C13765.3,28797.8 13768.9,28800.9 13772.3,28804.3C13775.7,28807.7 13779.7,28810.7 13784.4,28813.4C13789,28816 13795.2,28817.4 13803,28817.4C13811.2,28817.4 13818.5,28813.9 13824.8,28806.8C13831.2,28799.8 13834.3,28790.9 13834.3,28780.2ZM15533.8,28636.4L15575.8,28636.4L15575.8,29091.7L15533.8,29091.7L15533.8,28636.4ZM14661.4,28763.2L14704.1,28763.2L14704.1,29091.7L14661.4,29091.7L14661.4,28763.2ZM15430.4,28929C15430.4,28891.5 15417.9,28859.8 15392.7,28834C15367.5,28808.3 15336.7,28795.4 15300.2,28795.4C15263.7,28795.4 15232.9,28808.7 15207.7,28835.3C15182.6,28861.9 15170,28893.3 15170,28929.6C15170,28965.9 15182.8,28997.4 15208.3,29024C15233.9,29050.6 15264.5,29063.9 15300.2,29063.9C15335.9,29063.9 15366.5,29051.1 15392.1,29025.5C15417.7,29000 15430.4,28967.8 15430.4,28929ZM14159,28929C14159,28891.5 14146.4,28859.8 14121.3,28834C14096.1,28808.3 14065.3,28795.4 14028.8,28795.4C13992.3,28795.4 13961.4,28808.7 13936.3,28835.3C13911.1,28861.9 13898.5,28893.3 13898.5,28929.6C13898.5,28965.9 13911.3,28997.4 13936.9,29024C13962.5,29050.6 13993.1,29063.9 14028.8,29063.9C14064.4,29063.9 14095.1,29051.1 14120.6,29025.5C14146.2,29000 14159,28967.8 14159,28929ZM14557.5,28929.6C14557.5,28892.1 14545.1,28860.3 14520.3,28834.4C14495.6,28808.4 14464.6,28795.4 14427.5,28795.4C14390.4,28795.4 14359.4,28808.7 14334.4,28835.3C14309.5,28861.9 14297,28893.2 14297,28929.3C14297,28965.4 14309.8,28996.9 14335.3,29023.7C14360.9,29050.5 14391.1,29063.9 14426,29063.9C14460.8,29063.9 14491.5,29051.2 14517.9,29025.8C14544.3,29000.5 14557.5,28968.4 14557.5,28929.6ZM14647.8,28671.6C14647.8,28662.2 14651.2,28653.9 14658,28646.9C14664.8,28639.9 14673,28636.4 14682.7,28636.4C14692.4,28636.4 14700.7,28639.8 14707.5,28646.6C14714.3,28653.4 14717.7,28661.6 14717.7,28671.3C14717.7,28681 14714.3,28689.3 14707.5,28696.1C14700.7,28702.9 14692.4,28706.3 14682.7,28706.3C14673,28706.3 14664.8,28702.8 14658,28695.8C14651.2,28688.8 14647.8,28680.7 14647.8,28671.6Z"/>
            </g>
        </g>
    </g>
</svg>
