<?xml version="1.0" encoding="UTF-8" standalone="no"?>
<!-- Created with Inkscape (http://www.inkscape.org/) -->

<svg
   xmlns:dc="http://purl.org/dc/elements/1.1/"
   xmlns:cc="http://creativecommons.org/ns#"
   xmlns:rdf="http://www.w3.org/1999/02/22-rdf-syntax-ns#"
   xmlns:svg="http://www.w3.org/2000/svg"
   xmlns="http://www.w3.org/2000/svg"
   xmlns:sodipodi="http://sodipodi.sourceforge.net/DTD/sodipodi-0.dtd"
   xmlns:inkscape="http://www.inkscape.org/namespaces/inkscape"
   width="70mm"
   height="70mm"
   viewBox="0 0 248.03135 248.03149"
   id="svg4334"
   version="1.1"
   inkscape:version="0.91 r13725"
   sodipodi:docname="radical sphere.svg"
   inkscape:export-filename="/Users/westworld/Desktop/radical-sphere.png"
   inkscape:export-xdpi="189.37141"
   inkscape:export-ydpi="189.37141">
  <defs
     id="defs4336" />
  <sodipodi:namedview
     id="base"
     pagecolor="#ffffff"
     bordercolor="#666666"
     borderopacity="1.0"
     inkscape:pageopacity="0.0"
     inkscape:pageshadow="2"
     inkscape:zoom="1.979899"
     inkscape:cx="133.52471"
     inkscape:cy="123.4663"
     inkscape:document-units="px"
     inkscape:current-layer="layer1"
     showgrid="false"
     inkscape:window-width="1394"
     inkscape:window-height="856"
     inkscape:window-x="46"
     inkscape:window-y="0"
     inkscape:window-maximized="1" />
  <metadata
     id="metadata4339">
    <rdf:RDF>
      <cc:Work
         rdf:about="">
        <dc:format>image/svg+xml</dc:format>
        <dc:type
           rdf:resource="http://purl.org/dc/dcmitype/StillImage" />
        <dc:title />
      </cc:Work>
    </rdf:RDF>
  </metadata>
  <g
     inkscape:label="Layer 1"
     inkscape:groupmode="layer"
     id="layer1"
     transform="translate(0,-804.33071)">
    <g
       style="display:inline"
       transform="matrix(-0.99711463,-0.07591057,0.07591057,-0.99711463,362.02439,1464.2417)"
       id="g4448">
      <g
         id="g4221">
        <g
           transform="translate(-1.331596e-6,1.0137478e-7)"
           id="g4289"
           style="display:inline">
          <path
             inkscape:connector-curvature="0"
             style="opacity:0.147;fill:#00ffcc;fill-opacity:1;stroke:none;stroke-width:2.28488684;stroke-miterlimit:4;stroke-dasharray:none;stroke-opacity:1"
             d="m 268.20312,407.51953 a 113.86353,113.86353 0 0 0 -80.15234,37.94531 113.86353,113.86353 0 0 0 -28.70508,69.06641 118.81413,118.81413 0 0 0 39.54297,90.39453 118.81413,118.81413 0 0 0 79.86524,30.03125 113.86353,113.86353 0 0 0 79.19921,-37.85937 113.86353,113.86353 0 0 0 -9.13476,-160.76758 113.86353,113.86353 0 0 0 -80.61524,-28.81055 z"
             id="path4291" />
          <path
             inkscape:connector-curvature="0"
             style="opacity:0.147;fill:#000000;fill-opacity:1;stroke:none;stroke-width:2.18554401;stroke-miterlimit:4;stroke-dasharray:none;stroke-opacity:1"
             d="m 263.41211,417.46484 a 108.91295,108.91295 0 0 0 -76.66797,36.29688 108.91295,108.91295 0 0 0 -27.4375,65.90625 118.81413,118.81413 0 0 0 39.58203,85.25781 118.81413,118.81413 0 0 0 75.59375,29.99805 108.91295,108.91295 0 0 0 74.77735,-36.1211 108.91295,108.91295 0 0 0 -8.73829,-153.77929 108.91295,108.91295 0 0 0 -77.10937,-27.5586 z"
             id="path4293" />
          <path
             inkscape:connector-curvature="0"
             id="path4295"
             d="m 189.35723,437.16844 a 118.81413,118.81413 0 0 1 167.75799,-9.5317 118.81413,118.81413 0 0 1 9.5317,167.75798 118.81413,118.81413 0 0 1 -167.75799,9.53171 118.81413,118.81413 0 0 1 -9.5317,-167.75799 z"
             style="opacity:0.147;fill:#000000;fill-opacity:1;stroke:none;stroke-width:2.38422966;stroke-miterlimit:4;stroke-dasharray:none;stroke-opacity:1" />
          <path
             style="opacity:0.147;fill:#0000ff;fill-opacity:1;stroke:none;stroke-width:2.38422966;stroke-miterlimit:4;stroke-dasharray:none;stroke-opacity:1"
             d="m 189.35723,437.16844 a 118.81413,118.81413 0 0 1 167.75799,-9.5317 118.81413,118.81413 0 0 1 9.5317,167.75798 118.81413,118.81413 0 0 1 -167.75799,9.53171 118.81413,118.81413 0 0 1 -9.5317,-167.75799 z"
             id="path4297"
             inkscape:connector-curvature="0" />
          <path
             inkscape:connector-curvature="0"
             style="opacity:0.147;fill:#000000;fill-opacity:1;stroke:none;stroke-width:1.98685837;stroke-miterlimit:4;stroke-dasharray:none;stroke-opacity:1"
             d="m 253.83008,437.35742 a 99.011772,99.011772 0 0 0 -69.69922,32.9961 99.011772,99.011772 0 0 0 -24.43945,55.25 118.81413,118.81413 0 0 0 39.19726,79.32226 118.81413,118.81413 0 0 0 69.65821,29.69141 99.011772,99.011772 0 0 0 63.32617,-32.40821 99.011772,99.011772 0 0 0 -7.94336,-139.79882 99.011772,99.011772 0 0 0 -70.09961,-25.05274 z"
             id="path4299" />
          <path
             inkscape:connector-curvature="0"
             style="opacity:0.147;fill:#c83737;fill-opacity:1;stroke:none;stroke-width:2.08620119;stroke-miterlimit:4;stroke-dasharray:none;stroke-opacity:1"
             d="m 258.62109,427.41211 a 103.96236,103.96236 0 0 0 -73.18359,34.64453 103.96236,103.96236 0 0 0 -25.98242,60.98242 118.81413,118.81413 0 0 0 39.43359,81.88672 118.81413,118.81413 0 0 0 71.79102,29.92188 103.96236,103.96236 0 0 0 69.88672,-34.3418 103.96236,103.96236 0 0 0 -8.33985,-146.78906 103.96236,103.96236 0 0 0 -73.60547,-26.30469 z"
             id="path4301" />
          <path
             inkscape:connector-curvature="0"
             style="opacity:0.147;fill:#37abc8;fill-opacity:1;stroke:none;stroke-width:1.88751543;stroke-miterlimit:4;stroke-dasharray:none;stroke-opacity:1"
             d="m 249.03711,447.30469 a 94.06118,94.06118 0 0 0 -66.21289,31.3457 94.06118,94.06118 0 0 0 -22.89453,49.51367 118.81413,118.81413 0 0 0 38.95898,76.76172 118.81413,118.81413 0 0 0 67.49805,29.45703 94.06118,94.06118 0 0 0 56.79297,-30.4707 94.06118,94.06118 0 0 0 -7.54688,-132.80859 94.06118,94.06118 0 0 0 -66.5957,-23.79883 z"
             id="path4303" />
          <path
             inkscape:connector-curvature="0"
             style="opacity:0.147;fill:#cc00ff;fill-opacity:1;stroke:none;stroke-width:1.78817248;stroke-miterlimit:4;stroke-dasharray:none;stroke-opacity:1"
             d="m 244.24609,457.25 a 89.110596,89.110596 0 0 0 -62.72851,29.69727 89.110596,89.110596 0 0 0 -21.30274,44.30859 118.81413,118.81413 0 0 0 38.67383,73.66992 118.81413,118.81413 0 0 0 64.16406,29.0957 89.110596,89.110596 0 0 0 51.4336,-28.40429 A 89.110596,89.110596 0 0 0 307.33594,479.79883 89.110596,89.110596 0 0 0 244.24609,457.25 Z"
             id="path4305" />
          <path
             inkscape:connector-curvature="0"
             style="opacity:0.147;fill:#d400aa;fill-opacity:1;stroke:none;stroke-width:1.68882954;stroke-miterlimit:4;stroke-dasharray:none;stroke-opacity:1"
             d="m 239.45508,467.19727 a 84.160004,84.160004 0 0 0 -59.24219,28.04492 84.160004,84.160004 0 0 0 -19.56641,39.21289 118.81413,118.81413 0 0 0 38.24219,70.4707 118.81413,118.81413 0 0 0 60.82422,28.73438 84.160004,84.160004 0 0 0 46.08008,-26.33985 84.160004,84.160004 0 0 0 -6.75195,-118.82812 84.160004,84.160004 0 0 0 -59.58594,-21.29492 z"
             id="path4307" />
          <path
             inkscape:connector-curvature="0"
             style="opacity:0.147;fill:#0066ff;fill-opacity:1;stroke:none;stroke-width:1.5894866;stroke-miterlimit:4;stroke-dasharray:none;stroke-opacity:1"
             d="m 234.66406,477.14258 a 79.209412,79.209412 0 0 0 -55.75781,26.39648 79.209412,79.209412 0 0 0 -17.72656,33.65039 118.81413,118.81413 0 0 0 37.70898,67.73633 118.81413,118.81413 0 0 0 58.20899,28.22266 79.209412,79.209412 0 0 0 40,-24.125 79.209412,79.209412 0 0 0 -6.35352,-111.83789 79.209412,79.209412 0 0 0 -56.08008,-20.04297 z"
             id="path4309" />
          <path
             inkscape:connector-curvature="0"
             style="opacity:0.147;fill:#0b2228;fill-opacity:1;stroke:none;stroke-width:1.49014378;stroke-miterlimit:4;stroke-dasharray:none;stroke-opacity:1"
             d="m 229.87305,487.08789 a 74.258827,74.258827 0 0 0 -52.27344,24.74805 74.258827,74.258827 0 0 0 -15.79102,28.58789 118.81413,118.81413 0 0 0 37.08008,64.50195 118.81413,118.81413 0 0 0 54.95117,27.53711 74.258827,74.258827 0 0 0 34.56446,-21.73633 74.258827,74.258827 0 0 0 -5.95703,-104.84765 74.258827,74.258827 0 0 0 -52.57422,-18.79102 z"
             id="path4311" />
          <path
             inkscape:connector-curvature="0"
             style="opacity:0.147;fill:#00ccff;fill-opacity:1;stroke:none;stroke-width:1.39080083;stroke-miterlimit:4;stroke-dasharray:none;stroke-opacity:1"
             d="m 225.08203,497.03516 a 69.308235,69.308235 0 0 0 -48.78906,23.09765 69.308235,69.308235 0 0 0 -13.81055,23.76172 118.81413,118.81413 0 0 0 36.40625,61.03125 118.81413,118.81413 0 0 0 51.69336,26.84961 69.308235,69.308235 0 0 0 29.12891,-19.34375 69.308235,69.308235 0 0 0 -5.5586,-97.85937 69.308235,69.308235 0 0 0 -49.07031,-17.53711 z"
             id="path4313" />
          <path
             inkscape:connector-curvature="0"
             style="opacity:0.147;fill:#ff0000;fill-opacity:1;stroke:none;stroke-width:1.29145801;stroke-miterlimit:4;stroke-dasharray:none;stroke-opacity:1"
             d="m 220.28906,506.98047 a 64.357651,64.357651 0 0 0 -45.30273,21.44726 64.357651,64.357651 0 0 0 -11.60156,18.77539 118.81413,118.81413 0 0 0 35.5039,57.72266 118.81413,118.81413 0 0 0 48.07031,26.00391 64.357651,64.357651 0 0 0 24.0586,-16.79492 64.357651,64.357651 0 0 0 -5.16211,-90.86915 64.357651,64.357651 0 0 0 -45.56641,-16.28515 z"
             id="path4315" />
          <path
             inkscape:connector-curvature="0"
             style="opacity:0.147;fill:#ffd5d5;fill-opacity:1;stroke:none;stroke-width:1.19211507;stroke-miterlimit:4;stroke-dasharray:none;stroke-opacity:1"
             d="m 215.49805,516.92773 a 59.407063,59.407063 0 0 0 -41.81836,19.79688 59.407063,59.407063 0 0 0 -9.25,13.95312 118.81413,118.81413 0 0 0 34.45898,54.24805 118.81413,118.81413 0 0 0 44.73047,24.94336 59.407063,59.407063 0 0 0 18.70508,-14.03125 59.407063,59.407063 0 0 0 -4.76563,-83.87891 59.407063,59.407063 0 0 0 -42.06054,-15.03125 z"
             id="path4317" />
          <path
             inkscape:connector-curvature="0"
             style="opacity:0.147;fill:#ff5555;fill-opacity:1;stroke:none;stroke-width:1.09277213;stroke-miterlimit:4;stroke-dasharray:none;stroke-opacity:1"
             d="m 210.70703,526.87305 a 54.456474,54.456474 0 0 0 -38.33398,18.14843 54.456474,54.456474 0 0 0 -6.76367,9.57618 118.81413,118.81413 0 0 0 33.27929,50.32812 118.81413,118.81413 0 0 0 40.88086,23.71875 54.456474,54.456474 0 0 0 13.86133,-11.10351 54.456474,54.456474 0 0 0 -4.36914,-76.88868 54.456474,54.456474 0 0 0 -38.55469,-13.77929 z"
             id="path4319" />
          <path
             inkscape:connector-curvature="0"
             style="opacity:0.147;fill:#800000;fill-opacity:1;stroke:none;stroke-width:0.99342918;stroke-miterlimit:4;stroke-dasharray:none;stroke-opacity:1"
             d="m 205.91602,536.82031 a 49.505886,49.505886 0 0 0 -34.84961,16.49805 49.505886,49.505886 0 0 0 -4,5.22656 118.81413,118.81413 0 0 0 31.82226,46.38086 118.81413,118.81413 0 0 0 36.78125,22.33399 49.505886,49.505886 0 0 0 9.26758,-8.01368 49.505886,49.505886 0 0 0 -3.9707,-69.90039 49.505886,49.505886 0 0 0 -35.05078,-12.52539 z"
             id="path4321" />
          <path
             inkscape:connector-curvature="0"
             style="opacity:0.147;fill:#800080;fill-opacity:1;stroke:none;stroke-width:0.89408624;stroke-miterlimit:4;stroke-dasharray:none;stroke-opacity:1"
             d="m 201.125,546.76562 a 44.555298,44.555298 0 0 0 -31.36523,14.84766 44.555298,44.555298 0 0 0 -0.95118,1.14453 118.81413,118.81413 0 0 0 30.08008,42.16797 118.81413,118.81413 0 0 0 32.61133,20.53125 44.555298,44.555298 0 0 0 4.74414,-4.50781 44.555298,44.555298 0 0 0 -3.57422,-62.91016 44.555298,44.555298 0 0 0 -31.54492,-11.27344 z"
             id="path4323" />
          <path
             inkscape:connector-curvature="0"
             style="opacity:0.147;fill:#000080;fill-opacity:1;stroke:none;stroke-width:0.7947433;stroke-miterlimit:4;stroke-dasharray:none;stroke-opacity:1"
             d="m 196.33203,556.71289 a 39.604706,39.604706 0 0 0 -25.50976,10.79688 118.81413,118.81413 0 0 0 28.0664,37.41601 118.81413,118.81413 0 0 0 27.90039,18.49805 39.604706,39.604706 0 0 0 0.76172,-0.77149 39.604706,39.604706 0 0 0 -3.17773,-55.91992 39.604706,39.604706 0 0 0 -28.04102,-10.01953 z"
             id="path4325" />
          <path
             inkscape:connector-curvature="0"
             style="opacity:0.147;fill:#00ffff;fill-opacity:1;stroke:none;stroke-width:0.69540042;stroke-miterlimit:4;stroke-dasharray:none;stroke-opacity:1"
             d="m 191.54102,566.6582 a 34.654118,34.654118 0 0 0 -17.96875,5.98047 118.81413,118.81413 0 0 0 25.3164,32.28711 118.81413,118.81413 0 0 0 22.75195,15.79492 34.654118,34.654118 0 0 0 -5.56445,-45.29297 34.654118,34.654118 0 0 0 -24.53515,-8.76953 z"
             id="path4327" />
          <path
             inkscape:connector-curvature="0"
             style="opacity:0.147;fill:#ff0000;fill-opacity:1;stroke:none;stroke-width:0.59605753;stroke-miterlimit:4;stroke-dasharray:none;stroke-opacity:1"
             d="m 186.75,576.60352 a 29.703531,29.703531 0 0 0 -9.75391,2.12695 118.81413,118.81413 0 0 0 21.89258,26.19531 118.81413,118.81413 0 0 0 16.65821,12.40234 29.703531,29.703531 0 0 0 -7.76758,-33.20703 29.703531,29.703531 0 0 0 -21.0293,-7.51757 z"
             id="path4329" />
          <path
             inkscape:connector-curvature="0"
             style="opacity:0.147;fill:#00ff00;fill-opacity:1;stroke:none;stroke-width:0.49671459;stroke-miterlimit:4;stroke-dasharray:none;stroke-opacity:1"
             d="m 182.25781,586.55273 a 118.81413,118.81413 0 0 0 16.63086,18.37305 118.81413,118.81413 0 0 0 8.83008,7.01758 24.752943,24.752943 0 0 0 -8.23437,-19.12891 24.752943,24.752943 0 0 0 -17.22657,-6.26172 z"
             id="path4331" />
        </g>
        <path
           id="path4450"
           d="m 268.20312,407.51953 a 113.86353,113.86353 0 0 0 -80.15234,37.94531 113.86353,113.86353 0 0 0 -28.70508,69.06641 118.81413,118.81413 0 0 0 39.54297,90.39453 118.81413,118.81413 0 0 0 79.86524,30.03125 113.86353,113.86353 0 0 0 79.19921,-37.85937 113.86353,113.86353 0 0 0 -9.13476,-160.76758 113.86353,113.86353 0 0 0 -80.61524,-28.81055 z"
           style="opacity:0.147;fill:#00ffcc;fill-opacity:1;stroke:none;stroke-width:2.28488684;stroke-miterlimit:4;stroke-dasharray:none;stroke-opacity:1"
           inkscape:connector-curvature="0" />
        <path
           id="path4452"
           d="m 263.41211,417.46484 a 108.91295,108.91295 0 0 0 -76.66797,36.29688 108.91295,108.91295 0 0 0 -27.4375,65.90625 118.81413,118.81413 0 0 0 39.58203,85.25781 118.81413,118.81413 0 0 0 75.59375,29.99805 108.91295,108.91295 0 0 0 74.77735,-36.1211 108.91295,108.91295 0 0 0 -8.73829,-153.77929 108.91295,108.91295 0 0 0 -77.10937,-27.5586 z"
           style="opacity:0.147;fill:#000000;fill-opacity:1;stroke:none;stroke-width:2.18554401;stroke-miterlimit:4;stroke-dasharray:none;stroke-opacity:1"
           inkscape:connector-curvature="0" />
        <path
           style="opacity:0.147;fill:#000000;fill-opacity:1;stroke:none;stroke-width:2.38422966;stroke-miterlimit:4;stroke-dasharray:none;stroke-opacity:1"
           d="m 189.35723,437.16844 a 118.81413,118.81413 0 0 1 167.75799,-9.5317 118.81413,118.81413 0 0 1 9.5317,167.75798 118.81413,118.81413 0 0 1 -167.75799,9.53171 118.81413,118.81413 0 0 1 -9.5317,-167.75799 z"
           id="path4454"
           inkscape:connector-curvature="0" />
        <path
           inkscape:connector-curvature="0"
           id="path4456"
           d="m 189.35723,437.16844 a 118.81413,118.81413 0 0 1 167.75799,-9.5317 118.81413,118.81413 0 0 1 9.5317,167.75798 118.81413,118.81413 0 0 1 -167.75799,9.53171 118.81413,118.81413 0 0 1 -9.5317,-167.75799 z"
           style="opacity:0.147;fill:#0000ff;fill-opacity:1;stroke:none;stroke-width:2.38422966;stroke-miterlimit:4;stroke-dasharray:none;stroke-opacity:1" />
        <path
           id="path4458"
           d="m 253.83008,437.35742 a 99.011772,99.011772 0 0 0 -69.69922,32.9961 99.011772,99.011772 0 0 0 -24.43945,55.25 118.81413,118.81413 0 0 0 39.19726,79.32226 118.81413,118.81413 0 0 0 69.65821,29.69141 99.011772,99.011772 0 0 0 63.32617,-32.40821 99.011772,99.011772 0 0 0 -7.94336,-139.79882 99.011772,99.011772 0 0 0 -70.09961,-25.05274 z"
           style="opacity:0.147;fill:#000000;fill-opacity:1;stroke:none;stroke-width:1.98685837;stroke-miterlimit:4;stroke-dasharray:none;stroke-opacity:1"
           inkscape:connector-curvature="0" />
        <path
           id="path4460"
           d="m 258.62109,427.41211 a 103.96236,103.96236 0 0 0 -73.18359,34.64453 103.96236,103.96236 0 0 0 -25.98242,60.98242 118.81413,118.81413 0 0 0 39.43359,81.88672 118.81413,118.81413 0 0 0 71.79102,29.92188 103.96236,103.96236 0 0 0 69.88672,-34.3418 103.96236,103.96236 0 0 0 -8.33985,-146.78906 103.96236,103.96236 0 0 0 -73.60547,-26.30469 z"
           style="opacity:0.147;fill:#c83737;fill-opacity:1;stroke:none;stroke-width:2.08620119;stroke-miterlimit:4;stroke-dasharray:none;stroke-opacity:1"
           inkscape:connector-curvature="0" />
        <path
           id="path4462"
           d="m 249.03711,447.30469 a 94.06118,94.06118 0 0 0 -66.21289,31.3457 94.06118,94.06118 0 0 0 -22.89453,49.51367 118.81413,118.81413 0 0 0 38.95898,76.76172 118.81413,118.81413 0 0 0 67.49805,29.45703 94.06118,94.06118 0 0 0 56.79297,-30.4707 94.06118,94.06118 0 0 0 -7.54688,-132.80859 94.06118,94.06118 0 0 0 -66.5957,-23.79883 z"
           style="opacity:0.147;fill:#37abc8;fill-opacity:1;stroke:none;stroke-width:1.88751543;stroke-miterlimit:4;stroke-dasharray:none;stroke-opacity:1"
           inkscape:connector-curvature="0" />
        <path
           id="path4464"
           d="m 244.24609,457.25 a 89.110596,89.110596 0 0 0 -62.72851,29.69727 89.110596,89.110596 0 0 0 -21.30274,44.30859 118.81413,118.81413 0 0 0 38.67383,73.66992 118.81413,118.81413 0 0 0 64.16406,29.0957 89.110596,89.110596 0 0 0 51.4336,-28.40429 A 89.110596,89.110596 0 0 0 307.33594,479.79883 89.110596,89.110596 0 0 0 244.24609,457.25 Z"
           style="opacity:0.147;fill:#cc00ff;fill-opacity:1;stroke:none;stroke-width:1.78817248;stroke-miterlimit:4;stroke-dasharray:none;stroke-opacity:1"
           inkscape:connector-curvature="0" />
        <path
           id="path4466"
           d="m 239.45508,467.19727 a 84.160004,84.160004 0 0 0 -59.24219,28.04492 84.160004,84.160004 0 0 0 -19.56641,39.21289 118.81413,118.81413 0 0 0 38.24219,70.4707 118.81413,118.81413 0 0 0 60.82422,28.73438 84.160004,84.160004 0 0 0 46.08008,-26.33985 84.160004,84.160004 0 0 0 -6.75195,-118.82812 84.160004,84.160004 0 0 0 -59.58594,-21.29492 z"
           style="opacity:0.147;fill:#d400aa;fill-opacity:1;stroke:none;stroke-width:1.68882954;stroke-miterlimit:4;stroke-dasharray:none;stroke-opacity:1"
           inkscape:connector-curvature="0" />
        <path
           id="path4468"
           d="m 234.66406,477.14258 a 79.209412,79.209412 0 0 0 -55.75781,26.39648 79.209412,79.209412 0 0 0 -17.72656,33.65039 118.81413,118.81413 0 0 0 37.70898,67.73633 118.81413,118.81413 0 0 0 58.20899,28.22266 79.209412,79.209412 0 0 0 40,-24.125 79.209412,79.209412 0 0 0 -6.35352,-111.83789 79.209412,79.209412 0 0 0 -56.08008,-20.04297 z"
           style="opacity:0.147;fill:#0066ff;fill-opacity:1;stroke:none;stroke-width:1.5894866;stroke-miterlimit:4;stroke-dasharray:none;stroke-opacity:1"
           inkscape:connector-curvature="0" />
        <path
           id="path4470"
           d="m 229.87305,487.08789 a 74.258827,74.258827 0 0 0 -52.27344,24.74805 74.258827,74.258827 0 0 0 -15.79102,28.58789 118.81413,118.81413 0 0 0 37.08008,64.50195 118.81413,118.81413 0 0 0 54.95117,27.53711 74.258827,74.258827 0 0 0 34.56446,-21.73633 74.258827,74.258827 0 0 0 -5.95703,-104.84765 74.258827,74.258827 0 0 0 -52.57422,-18.79102 z"
           style="opacity:0.147;fill:#0b2228;fill-opacity:1;stroke:none;stroke-width:1.49014378;stroke-miterlimit:4;stroke-dasharray:none;stroke-opacity:1"
           inkscape:connector-curvature="0" />
        <path
           id="path4472"
           d="m 225.08203,497.03516 a 69.308235,69.308235 0 0 0 -48.78906,23.09765 69.308235,69.308235 0 0 0 -13.81055,23.76172 118.81413,118.81413 0 0 0 36.40625,61.03125 118.81413,118.81413 0 0 0 51.69336,26.84961 69.308235,69.308235 0 0 0 29.12891,-19.34375 69.308235,69.308235 0 0 0 -5.5586,-97.85937 69.308235,69.308235 0 0 0 -49.07031,-17.53711 z"
           style="opacity:0.147;fill:#00ccff;fill-opacity:1;stroke:none;stroke-width:1.39080083;stroke-miterlimit:4;stroke-dasharray:none;stroke-opacity:1"
           inkscape:connector-curvature="0" />
        <path
           id="path4474"
           d="m 220.28906,506.98047 a 64.357651,64.357651 0 0 0 -45.30273,21.44726 64.357651,64.357651 0 0 0 -11.60156,18.77539 118.81413,118.81413 0 0 0 35.5039,57.72266 118.81413,118.81413 0 0 0 48.07031,26.00391 64.357651,64.357651 0 0 0 24.0586,-16.79492 64.357651,64.357651 0 0 0 -5.16211,-90.86915 64.357651,64.357651 0 0 0 -45.56641,-16.28515 z"
           style="opacity:0.147;fill:#ff0000;fill-opacity:1;stroke:none;stroke-width:1.29145801;stroke-miterlimit:4;stroke-dasharray:none;stroke-opacity:1"
           inkscape:connector-curvature="0" />
        <path
           id="path4476"
           d="m 215.49805,516.92773 a 59.407063,59.407063 0 0 0 -41.81836,19.79688 59.407063,59.407063 0 0 0 -9.25,13.95312 118.81413,118.81413 0 0 0 34.45898,54.24805 118.81413,118.81413 0 0 0 44.73047,24.94336 59.407063,59.407063 0 0 0 18.70508,-14.03125 59.407063,59.407063 0 0 0 -4.76563,-83.87891 59.407063,59.407063 0 0 0 -42.06054,-15.03125 z"
           style="opacity:0.147;fill:#ffd5d5;fill-opacity:1;stroke:none;stroke-width:1.19211507;stroke-miterlimit:4;stroke-dasharray:none;stroke-opacity:1"
           inkscape:connector-curvature="0" />
        <path
           id="path4478"
           d="m 210.70703,526.87305 a 54.456474,54.456474 0 0 0 -38.33398,18.14843 54.456474,54.456474 0 0 0 -6.76367,9.57618 118.81413,118.81413 0 0 0 33.27929,50.32812 118.81413,118.81413 0 0 0 40.88086,23.71875 54.456474,54.456474 0 0 0 13.86133,-11.10351 54.456474,54.456474 0 0 0 -4.36914,-76.88868 54.456474,54.456474 0 0 0 -38.55469,-13.77929 z"
           style="opacity:0.147;fill:#ff5555;fill-opacity:1;stroke:none;stroke-width:1.09277213;stroke-miterlimit:4;stroke-dasharray:none;stroke-opacity:1"
           inkscape:connector-curvature="0" />
        <path
           id="path4480"
           d="m 205.91602,536.82031 a 49.505886,49.505886 0 0 0 -34.84961,16.49805 49.505886,49.505886 0 0 0 -4,5.22656 118.81413,118.81413 0 0 0 31.82226,46.38086 118.81413,118.81413 0 0 0 36.78125,22.33399 49.505886,49.505886 0 0 0 9.26758,-8.01368 49.505886,49.505886 0 0 0 -3.9707,-69.90039 49.505886,49.505886 0 0 0 -35.05078,-12.52539 z"
           style="opacity:0.147;fill:#800000;fill-opacity:1;stroke:none;stroke-width:0.99342918;stroke-miterlimit:4;stroke-dasharray:none;stroke-opacity:1"
           inkscape:connector-curvature="0" />
        <path
           id="path4482"
           d="m 201.125,546.76562 a 44.555298,44.555298 0 0 0 -31.36523,14.84766 44.555298,44.555298 0 0 0 -0.95118,1.14453 118.81413,118.81413 0 0 0 30.08008,42.16797 118.81413,118.81413 0 0 0 32.61133,20.53125 44.555298,44.555298 0 0 0 4.74414,-4.50781 44.555298,44.555298 0 0 0 -3.57422,-62.91016 44.555298,44.555298 0 0 0 -31.54492,-11.27344 z"
           style="opacity:0.147;fill:#800080;fill-opacity:1;stroke:none;stroke-width:0.89408624;stroke-miterlimit:4;stroke-dasharray:none;stroke-opacity:1"
           inkscape:connector-curvature="0" />
        <path
           id="path4484"
           d="m 196.33203,556.71289 a 39.604706,39.604706 0 0 0 -25.50976,10.79688 118.81413,118.81413 0 0 0 28.0664,37.41601 118.81413,118.81413 0 0 0 27.90039,18.49805 39.604706,39.604706 0 0 0 0.76172,-0.77149 39.604706,39.604706 0 0 0 -3.17773,-55.91992 39.604706,39.604706 0 0 0 -28.04102,-10.01953 z"
           style="opacity:0.147;fill:#000080;fill-opacity:1;stroke:none;stroke-width:0.7947433;stroke-miterlimit:4;stroke-dasharray:none;stroke-opacity:1"
           inkscape:connector-curvature="0" />
        <path
           id="path4486"
           d="m 191.54102,566.6582 a 34.654118,34.654118 0 0 0 -17.96875,5.98047 118.81413,118.81413 0 0 0 25.3164,32.28711 118.81413,118.81413 0 0 0 22.75195,15.79492 34.654118,34.654118 0 0 0 -5.56445,-45.29297 34.654118,34.654118 0 0 0 -24.53515,-8.76953 z"
           style="opacity:0.147;fill:#00ffff;fill-opacity:1;stroke:none;stroke-width:0.69540042;stroke-miterlimit:4;stroke-dasharray:none;stroke-opacity:1"
           inkscape:connector-curvature="0" />
        <path
           id="path4488"
           d="m 186.75,576.60352 a 29.703531,29.703531 0 0 0 -9.75391,2.12695 118.81413,118.81413 0 0 0 21.89258,26.19531 118.81413,118.81413 0 0 0 16.65821,12.40234 29.703531,29.703531 0 0 0 -7.76758,-33.20703 29.703531,29.703531 0 0 0 -21.0293,-7.51757 z"
           style="opacity:0.147;fill:#ff0000;fill-opacity:1;stroke:none;stroke-width:0.59605753;stroke-miterlimit:4;stroke-dasharray:none;stroke-opacity:1"
           inkscape:connector-curvature="0" />
        <path
           id="path4490"
           d="m 182.25781,586.55273 a 118.81413,118.81413 0 0 0 16.63086,18.37305 118.81413,118.81413 0 0 0 8.83008,7.01758 24.752943,24.752943 0 0 0 -8.23437,-19.12891 24.752943,24.752943 0 0 0 -17.22657,-6.26172 z"
           style="opacity:0.147;fill:#00ff00;fill-opacity:1;stroke:none;stroke-width:0.49671459;stroke-miterlimit:4;stroke-dasharray:none;stroke-opacity:1"
           inkscape:connector-curvature="0" />
      </g>
    </g>
  </g>
</svg>
