<?xml version="1.0" encoding="UTF-8" standalone="no"?>
<!DOCTYPE svg PUBLIC "-//W3C//DTD SVG 1.1//EN" "http://www.w3.org/Graphics/SVG/1.1/DTD/svg11.dtd">

<svg width="100%"
    height="100%" viewBox="0 0 38 38" version="1.1" xmlns="http://www.w3.org/2000/svg"
    xmlns:xlink="http://www.w3.org/1999/xlink" xml:space="preserve" xmlns:serif="http://www.serif.com/"
    style="fill-rule:evenodd;clip-rule:evenodd;stroke-linejoin:round;stroke-miterlimit:2;">
    <rect id="Artboard2" x="0" y="0" width="37.956" height="37.956" style="fill:none;" />
    <g>
        <path
            d="M20.758,3.592c7.631,-0 13.07,7.084 12.137,15.81c-0.933,8.726 -7.886,15.811 -15.518,15.811c-7.631,-0 -13.07,-7.085 -12.137,-15.811c0.933,-8.726 7.887,-15.81 15.518,-15.81Z" />
        <path
            d="M22.676,2.799c1.997,0.241 3.74,1.014 5.263,2.27c1.979,1.631 3.331,3.712 4.291,6.069c0.834,2.05 1.289,4.19 1.467,6.386c0.124,1.535 0.032,3.067 -0.197,4.596c-0.349,2.329 -1.132,4.487 -2.414,6.46c-1.167,1.797 -2.671,3.262 -4.454,4.447c-1.85,1.231 -3.875,2.05 -6.035,2.536c-0.981,0.22 -1.976,0.341 -2.981,0.421c-1.553,0.124 -3.077,0.017 -4.567,-0.42c-3.562,-1.043 -6.182,-3.254 -7.957,-6.493c-0.793,-1.445 -1.298,-2.994 -1.546,-4.616c-0.22,-1.432 -0.224,-2.872 -0.064,-4.319c0.274,-2.471 1.026,-4.786 2.172,-6.976c1.188,-2.273 2.669,-4.338 4.607,-6.034c2.298,-2.013 4.902,-3.468 7.918,-4.105c1.476,-0.311 2.969,-0.352 4.497,-0.222m-12.79,9.053c-0.99,1.331 -1.821,2.753 -2.451,4.289c-0.182,0.445 -0.306,0.842 -0.178,1.391c0.312,1.333 0.446,2.707 0.652,4.064c0.067,0.44 0.138,0.879 0.217,1.382c0.378,-0.256 0.701,-0.468 1.016,-0.69c0.512,-0.361 1.02,-0.732 1.657,-0.846c0.656,-0.117 1.155,0.296 1.173,0.963c0.014,0.495 -0.092,0.978 -0.152,1.466c-0.057,0.453 -0.121,0.906 -0.107,1.365c0.123,0.04 0.204,-0.011 0.285,-0.05c0.656,-0.315 1.316,-0.623 1.966,-0.951c0.712,-0.36 1.191,-0.174 1.469,0.579c0.301,0.818 0.604,1.635 0.928,2.443c0.132,0.327 0.266,0.661 0.479,0.962c0.144,-0.073 0.219,-0.185 0.3,-0.288c0.608,-0.777 1.056,-1.659 1.607,-2.474c0.583,-0.862 1.427,-0.908 2.057,-0.082c0.331,0.435 0.56,0.929 0.776,1.428c0.169,0.389 0.333,0.781 0.498,1.168c0.18,-0.045 0.251,-0.165 0.34,-0.26c0.86,-0.912 1.61,-1.914 2.396,-2.887c0.434,-0.538 1.025,-0.641 1.608,-0.277c0.51,0.318 0.934,0.735 1.343,1.167c0.224,0.237 0.446,0.475 0.69,0.734c0.251,-0.286 0.451,-0.566 0.614,-0.874c0.345,-0.652 0.691,-1.304 1.034,-1.958c0.185,-0.355 0.446,-0.591 0.871,-0.563c0.178,0.011 0.269,-0.061 0.302,-0.228c0.065,-0.321 0.133,-0.641 0.196,-0.963c0.247,-1.264 0.271,-2.544 0.252,-3.826c-0.001,-0.046 0.005,-0.107 -0.1,-0.109c-0.538,0.986 -1.27,1.802 -2.278,2.362c-0.398,0.221 -0.799,0.417 -1.238,0.532c-0.407,0.108 -0.824,0.153 -1.242,0.204c-0.724,0.089 -1.435,0.033 -2.125,-0.19c-1.341,-0.434 -2.173,-1.386 -2.633,-2.685c-0.463,-1.308 -0.59,-2.677 -0.666,-4.048c-0.065,-1.179 0.021,-2.357 0.198,-3.524c0.164,-1.087 0.39,-2.165 0.877,-3.159c0.519,-1.06 1.18,-1.986 2.485,-2.152c0.011,-0.002 0.019,-0.029 0.045,-0.069c-1.386,-0.699 -2.847,-0.992 -4.38,-0.798c-1.717,0.218 -3.277,0.897 -4.744,1.789c-2.395,1.455 -4.302,3.436 -6.037,5.663m0.095,12.984c0.015,-0.337 0.146,-0.669 0.082,-1.039c-0.233,0.098 -0.391,0.228 -0.558,0.344c-0.388,0.27 -0.783,0.532 -1.232,0.686c-0.913,0.314 -1.552,-0.048 -1.772,-0.983c-0.087,-0.37 -0.122,-0.747 -0.162,-1.124c-0.042,-0.403 -0.097,-0.804 -0.146,-1.206c-0.051,0.17 -0.018,0.334 -0.033,0.493c-0.079,0.803 0.012,1.595 0.152,2.383c0.569,3.216 2.116,5.813 4.882,7.615c1.463,0.953 3.078,1.484 4.825,1.582c0.872,0.048 1.738,-0.009 2.606,-0.115c1.777,-0.217 3.477,-0.684 5.098,-1.44c1.693,-0.789 3.183,-1.861 4.445,-3.244c0.086,-0.094 0.189,-0.18 0.216,-0.337c-0.43,-0.003 -0.681,-0.28 -0.937,-0.55c-0.438,-0.461 -0.88,-0.917 -1.31,-1.385c-0.191,-0.208 -0.333,-0.188 -0.489,0.031c-0.137,0.192 -0.285,0.376 -0.436,0.557c-0.88,1.053 -1.716,2.148 -2.814,2.998c-0.648,0.502 -1.269,0.328 -1.545,-0.434c-0.234,-0.646 -0.476,-1.289 -0.734,-1.925c-0.085,-0.209 -0.138,-0.448 -0.322,-0.603c-0.129,0.039 -0.162,0.145 -0.217,0.228c-0.286,0.437 -0.557,0.886 -0.859,1.313c-0.355,0.502 -0.724,0.998 -1.282,1.306c-0.782,0.432 -1.391,0.285 -1.866,-0.465c-0.448,-0.705 -0.742,-1.483 -1.052,-2.253c-0.152,-0.376 -0.256,-0.774 -0.487,-1.136c-0.109,0.045 -0.205,0.078 -0.295,0.123c-0.817,0.407 -1.634,0.813 -2.449,1.224c-0.793,0.4 -1.434,0.013 -1.436,-0.874c-0.002,-0.574 0.067,-1.144 0.127,-1.77m17.453,-13.579c-0.272,-0.609 -0.567,-1.205 -0.937,-1.762c-0.261,-0.394 -0.545,-0.771 -0.899,-1.087c-0.249,-0.221 -0.334,-0.208 -0.481,0.081c-0.101,0.2 -0.194,0.407 -0.263,0.621c-0.309,0.949 -0.473,1.924 -0.551,2.919c-0.13,1.667 -0.04,3.315 0.366,4.938c0.242,0.969 0.797,1.354 1.798,1.285c0.307,-0.021 0.606,-0.09 0.907,-0.149c0.373,-0.074 0.619,-0.288 0.798,-0.613c0.26,-0.475 0.323,-0.996 0.327,-1.517c0.013,-1.636 -0.415,-3.178 -1.065,-4.716"
            style="fill:#fff;fill-rule:nonzero;" />
        <path
            d="M6.193,21.514c-0.053,-0.444 0.672,-4.646 1.014,-4.514c0.253,1.211 0.526,3.375 0.713,4.601c0.067,0.44 0.138,0.88 0.217,1.382c0.378,-0.256 0.701,-0.468 1.016,-0.69c0.512,-0.361 1.02,-0.731 1.657,-0.845c0.655,-0.118 1.154,0.295 1.173,0.963c0.014,0.495 -0.092,0.978 -0.153,1.465c-0.056,0.454 -0.12,0.906 -0.107,1.365c0.124,0.04 0.205,-0.011 0.286,-0.05c0.656,-0.315 1.316,-0.623 1.965,-0.951c0.713,-0.36 1.192,-0.174 1.47,0.58c0.301,0.817 0.603,1.634 0.928,2.443c0.131,0.327 0.266,0.66 0.479,0.961c0.143,-0.073 0.219,-0.184 0.3,-0.288c0.608,-0.777 1.056,-1.659 1.607,-2.474c0.583,-0.862 1.427,-0.907 2.056,-0.082c0.332,0.435 0.561,0.929 0.777,1.428c0.168,0.39 0.333,0.781 0.498,1.169c0.18,-0.046 0.25,-0.166 0.34,-0.261c0.86,-0.911 1.61,-1.914 2.396,-2.887c0.434,-0.538 1.025,-0.641 1.608,-0.277c0.509,0.318 0.933,0.735 1.343,1.167c0.224,0.237 0.446,0.475 0.689,0.734c0.251,-0.286 0.452,-0.566 0.614,-0.874c0.346,-0.652 0.683,-1.254 1.001,-1.92c0.404,-0.846 0.975,-0.522 1.091,-0.647c0.351,-0.377 -2.16,5.761 -2.787,5.439c-0.43,-0.003 -0.67,-0.275 -0.926,-0.545c-0.438,-0.461 -0.881,-0.917 -1.311,-1.385c-0.19,-0.207 -0.333,-0.187 -0.489,0.031c-0.136,0.192 -0.284,0.376 -0.435,0.557c-0.881,1.054 -1.716,2.149 -2.814,2.999c-0.648,0.501 -1.269,0.327 -1.545,-0.435c-0.234,-0.646 -0.476,-1.289 -0.734,-1.925c-0.085,-0.209 -0.138,-0.448 -0.322,-0.603c-0.129,0.04 -0.162,0.145 -0.217,0.228c-0.286,0.438 -0.557,0.886 -0.859,1.313c-0.356,0.502 -0.724,0.998 -1.282,1.306c-0.782,0.432 -1.391,0.285 -1.867,-0.465c-0.447,-0.705 -0.741,-1.483 -1.052,-2.253c-0.151,-0.376 -0.255,-0.774 -0.486,-1.136c-0.109,0.045 -0.205,0.078 -0.296,0.123c-0.816,0.407 -1.633,0.813 -2.448,1.224c-0.794,0.4 -1.434,0.013 -1.437,-0.874c-0.001,-0.574 0.068,-1.144 0.128,-1.77c0.015,-0.337 0.146,-0.669 0.082,-1.038c-0.233,0.097 -0.391,0.227 -0.558,0.343c-0.388,0.27 -0.783,0.532 -1.232,0.687c-0.913,0.313 -1.553,-0.049 -1.772,-0.983c-0.088,-0.371 -0.224,-1.538 -0.319,-2.336Z"
            style="fill:#9f1f38;fill-rule:nonzero;" />
        <path
            d="M14.417,16.292c-0.412,0.472 -0.792,0.943 -1.235,1.36c-0.324,0.305 -0.707,0.302 -1.096,0.246c-0.247,-0.035 -0.367,-0.295 -0.295,-0.584c0.122,-0.49 0.415,-0.891 0.709,-1.284c0.4,-0.533 0.815,-1.055 1.234,-1.574c0.194,-0.24 0.21,-0.456 0.043,-0.724c-0.242,-0.391 -0.517,-0.766 -0.641,-1.221c-0.095,-0.344 -0.142,-0.709 0.159,-0.94c0.314,-0.241 0.647,-0.05 0.938,0.14c0.347,0.227 0.623,0.534 0.889,0.846c0.144,0.168 0.251,0.157 0.402,0.011c0.487,-0.47 0.952,-0.964 1.498,-1.371c0.149,-0.112 0.31,-0.197 0.472,-0.286c0.201,-0.11 0.42,-0.176 0.603,-0.012c0.176,0.158 0.109,0.382 0.037,0.577c-0.193,0.527 -0.514,0.979 -0.847,1.423c-0.258,0.345 -0.505,0.699 -0.784,1.026c-0.15,0.176 -0.135,0.311 -0.036,0.493c0.329,0.603 0.65,1.21 0.964,1.821c0.189,0.365 0.32,0.755 0.415,1.155c0.103,0.438 -0.02,0.764 -0.324,0.903c-0.369,0.168 -0.878,0.051 -1.109,-0.272c-0.431,-0.602 -0.73,-1.283 -1.126,-1.906c-0.288,-0.451 -0.284,-0.453 -0.645,-0.068c-0.07,0.075 -0.14,0.15 -0.225,0.241Z"
            style="fill:#fff;fill-rule:nonzero;" />
    </g>
</svg>