<?xml version="1.0" encoding="UTF-8" standalone="no"?>
<!-- Created with Inkscape (http://www.inkscape.org/) -->

<svg
   xmlns:dc="http://purl.org/dc/elements/1.1/"
   xmlns:cc="http://creativecommons.org/ns#"
   xmlns:rdf="http://www.w3.org/1999/02/22-rdf-syntax-ns#"
   xmlns:svg="http://www.w3.org/2000/svg"
   xmlns="http://www.w3.org/2000/svg"
   xmlns:xlink="http://www.w3.org/1999/xlink"
   xmlns:sodipodi="http://sodipodi.sourceforge.net/DTD/sodipodi-0.dtd"
   xmlns:inkscape="http://www.inkscape.org/namespaces/inkscape"
   width="700"
   height="700"
   viewBox="0 0 700 700"
   id="svg2"
   version="1.1"
   inkscape:version="0.91 r13725"
   sodipodi:docname="Sai Enterprises.svg">
  <defs
     id="defs4">
    <linearGradient
       inkscape:collect="always"
       id="linearGradient4177">
      <stop
         style="stop-color:#0e232e;stop-opacity:1;"
         offset="0"
         id="stop4179" />
      <stop
         style="stop-color:#0e232e;stop-opacity:0;"
         offset="1"
         id="stop4181" />
    </linearGradient>
    <radialGradient
       inkscape:collect="always"
       xlink:href="#linearGradient4177"
       id="radialGradient4183"
       cx="900"
       cy="152.36221"
       fx="900"
       fy="152.36221"
       r="280"
       gradientUnits="userSpaceOnUse" />
    <filter
       inkscape:collect="always"
       style="color-interpolation-filters:sRGB"
       id="filter4221"
       x="-0.1248"
       width="1.2496001"
       y="-0.1248"
       height="1.2496001">
      <feGaussianBlur
         inkscape:collect="always"
         stdDeviation="29.12"
         id="feGaussianBlur4223" />
    </filter>
    <radialGradient
       inkscape:collect="always"
       xlink:href="#linearGradient4177"
       id="radialGradient4263"
       gradientUnits="userSpaceOnUse"
       cx="900"
       cy="152.36221"
       fx="900"
       fy="152.36221"
       r="280" />
  </defs>
  <sodipodi:namedview
     id="base"
     pagecolor="#ffffff"
     bordercolor="#666666"
     borderopacity="1.0"
     inkscape:pageopacity="0.0"
     inkscape:pageshadow="2"
     inkscape:zoom="0.70710678"
     inkscape:cx="112.16166"
     inkscape:cy="430.8053"
     inkscape:document-units="px"
     inkscape:current-layer="g4265"
     showgrid="false"
     units="px"
     inkscape:window-width="1394"
     inkscape:window-height="856"
     inkscape:window-x="46"
     inkscape:window-y="0"
     inkscape:window-maximized="1"
     inkscape:snap-bbox="true"
     inkscape:snap-bbox-edge-midpoints="true"
     inkscape:snap-bbox-midpoints="true"
     inkscape:bbox-nodes="true" />
  <metadata
     id="metadata7">
    <rdf:RDF>
      <cc:Work
         rdf:about="">
        <dc:format>image/svg+xml</dc:format>
        <dc:type
           rdf:resource="http://purl.org/dc/dcmitype/StillImage" />
        <dc:title />
      </cc:Work>
    </rdf:RDF>
  </metadata>
  <g
     inkscape:label="Layer 1"
     inkscape:groupmode="layer"
     id="layer1"
     transform="translate(0,-352.36222)">
    <g
       id="g4265"
       transform="translate(-550.00002,549.99998)">
      <rect
         y="-127.63778"
         x="620"
         height="560"
         width="560"
         id="rect4261"
         style="opacity:0.98900003;fill:#ff4141;fill-opacity:0.75294118;stroke:url(#radialGradient4263);stroke-width:3;stroke-linecap:round;stroke-linejoin:round;stroke-miterlimit:4;stroke-dasharray:none;stroke-opacity:0.99607843;filter:url(#filter4221)" />
      <rect
         style="opacity:0.98900003;fill:#ff4141;fill-opacity:0.75294118;stroke:url(#radialGradient4183);stroke-width:3;stroke-linecap:round;stroke-linejoin:round;stroke-miterlimit:4;stroke-dasharray:none;stroke-opacity:0.99607843;filter:url(#filter4221)"
         id="rect4175"
         width="560"
         height="560"
         x="620"
         y="-127.63778" />
      <rect
         y="-127.63776"
         x="620"
         height="560"
         width="560"
         id="rect4136"
         style="opacity:0.98900003;fill:#dc0000;fill-opacity:0.75294118;stroke:none;stroke-width:3;stroke-linecap:round;stroke-linejoin:round;stroke-miterlimit:4;stroke-dasharray:none;stroke-opacity:0.99607843" />
      <g
         transform="translate(0.44737202,3.6881415)"
         id="text4138"
         style="font-style:normal;font-weight:normal;font-size:40px;line-height:125%;font-family:sans-serif;letter-spacing:0px;word-spacing:0px;fill:#ffffff;fill-opacity:1;stroke:#ffffff;stroke-width:10;stroke-linecap:butt;stroke-linejoin:miter;stroke-miterlimit:4;stroke-dasharray:none;stroke-opacity:1">
        <g
           transform="translate(0,-18)"
           id="g4170">
          <path
             d="m 758.32227,108.11221 q 0,-24.249997 12.25,-34.999997 12.25,-10.75 39.75,-10.75 19.25,0 31,10 11.75,10 17,30.499997 l -23.25,17.5 -12.25,0 27,-20.25 q -5.25,-16.749997 -15.25,-23.499997 -9.75,-6.75 -24.25,-6.75 -10,0 -17,1.25 -6.75,1.25 -13.75,5 -6.75,3.5 -10.25,11.5 -3.5,8 -3.5,20.499997 0,11 10,19.5 10.25,8.5 24.75,14.5 14.5,6 29,12.25 14.75,6.25 24.75,16 10.25,9.75 10.25,22.5 0,25 -12.5,37.25 -12.25,12.25 -42.25,12.25 -24.5,0 -38.5,-9.75 -14,-10 -19.25,-30.75 l 7,-3 q 5,20.25 17,28.25 12.25,7.75 33.75,7.75 24,0 35.5,-9.25 11.75,-9.25 11.75,-32.75 0,-11 -10.25,-19.5 -10,-8.5 -24.75,-14.5 -14.5,-6 -29,-12.25 -14.5,-6.25 -24.75,-16 -10,-9.75 -10,-22.5 z"
             style="font-style:normal;font-variant:normal;font-weight:500;font-stretch:normal;font-size:250px;font-family:Megrim;-inkscape-font-specification:'Megrim Medium';fill:#ffffff;fill-opacity:1;stroke:#ffffff;stroke-width:10;stroke-miterlimit:4;stroke-dasharray:none;stroke-opacity:1"
             id="path4141"
             inkscape:connector-curvature="0" />
          <path
             d="m 917.18674,232.36221 83.02226,0 -53.00002,-145.749997 -55.75,153.249997 -8,0 63.75,-175.249997 63.75002,175.249997 -96.75002,0 z"
             style="font-style:normal;font-variant:normal;font-weight:500;font-stretch:normal;font-size:250px;font-family:Megrim;-inkscape-font-specification:'Megrim Medium';fill:#ffffff;fill-opacity:1;stroke:#ffffff;stroke-width:10;stroke-miterlimit:4;stroke-dasharray:none;stroke-opacity:1"
             id="path4143"
             inkscape:connector-curvature="0"
             sodipodi:nodetypes="ccccccccc" />
          <path
             d="m 1047.9277,239.86221 -7.5,0 0,-174.999997 7.5,0 0,174.999997 z"
             style="font-style:normal;font-variant:normal;font-weight:500;font-stretch:normal;font-size:250px;font-family:Megrim;-inkscape-font-specification:'Megrim Medium';fill:#ffffff;fill-opacity:1;stroke:#ffffff;stroke-width:10;stroke-miterlimit:4;stroke-dasharray:none;stroke-opacity:1"
             id="path4145"
             inkscape:connector-curvature="0" />
        </g>
      </g>
      <g
         transform="matrix(0.88888213,0,0,0.88888213,118.02369,-52.131086)"
         id="text4136"
         style="font-style:normal;font-weight:normal;font-size:40px;line-height:125%;font-family:sans-serif;letter-spacing:0px;word-spacing:0px;fill:#ffffff;fill-opacity:1;stroke:none;stroke-width:1px;stroke-linecap:butt;stroke-linejoin:miter;stroke-opacity:1">
        <path
           inkscape:connector-curvature="0"
           id="path4148"
           style="font-style:normal;font-variant:normal;font-weight:600;font-stretch:normal;font-size:70px;font-family:'Avenir Next';-inkscape-font-specification:'Avenir Next Semi-Bold'"
           d="m 708.52616,368.42636 32.83,0 0,7.7 -24.01,0 0,12.6 22.75,0 0,7.42 -22.75,0 0,14 25.27,0 0,7.84 -34.09,0 0,-49.56 z" />
        <path
           inkscape:connector-curvature="0"
           id="path4150"
           style="font-style:normal;font-variant:normal;font-weight:600;font-stretch:normal;font-size:70px;font-family:'Avenir Next';-inkscape-font-specification:'Avenir Next Semi-Bold'"
           d="m 750.89913,384.38636 7.98,0 0,5.39 0.14,0 q 1.12,-2.52 3.85,-4.41 2.8,-1.96 6.58,-1.96 3.29,0 5.6,1.19 2.38,1.12 3.85,3.01 1.54,1.89 2.24,4.34 0.7,2.45 0.7,5.04 l 0,21 -8.4,0 0,-18.62 q 0,-1.47 -0.21,-3.08 -0.21,-1.61 -0.91,-2.87 -0.7,-1.33 -1.96,-2.17 -1.19,-0.84 -3.22,-0.84 -2.03,0 -3.5,0.84 -1.47,0.77 -2.45,2.03 -0.91,1.26 -1.4,2.94 -0.49,1.61 -0.49,3.29 l 0,18.48 -8.4,0 0,-33.6 z" />
        <path
           inkscape:connector-curvature="0"
           id="path4152"
           style="font-style:normal;font-variant:normal;font-weight:600;font-stretch:normal;font-size:70px;font-family:'Avenir Next';-inkscape-font-specification:'Avenir Next Semi-Bold'"
           d="m 786.81132,391.10636 0,-6.72 5.88,0 0,-9.73 8.26,0 0,9.73 8.4,0 0,6.72 -8.4,0 0,15.61 q 0,2.24 0.77,3.71 0.84,1.47 3.64,1.47 0.84,0 1.82,-0.14 0.98,-0.21 1.75,-0.56 l 0.28,6.58 q -1.12,0.42 -2.66,0.63 -1.54,0.28 -2.94,0.28 -3.36,0 -5.46,-0.91 -2.1,-0.98 -3.36,-2.59 -1.19,-1.68 -1.68,-3.78 -0.42,-2.17 -0.42,-4.62 l 0,-15.68 -5.88,0 z" />
        <path
           inkscape:connector-curvature="0"
           id="path4154"
           style="font-style:normal;font-variant:normal;font-weight:600;font-stretch:normal;font-size:70px;font-family:'Avenir Next';-inkscape-font-specification:'Avenir Next Semi-Bold'"
           d="m 839.2271,397.82636 q 0,-1.61 -0.49,-3.08 -0.42,-1.47 -1.4,-2.59 -0.98,-1.12 -2.52,-1.75 -1.47,-0.7 -3.5,-0.7 -3.78,0 -6.44,2.31 -2.59,2.24 -2.87,5.81 l 17.22,0 z m 8.4,3.78 q 0,0.56 0,1.12 0,0.56 -0.07,1.12 l -25.55,0 q 0.14,1.82 0.91,3.36 0.84,1.47 2.17,2.59 1.33,1.05 3.01,1.68 1.68,0.63 3.5,0.63 3.15,0 5.32,-1.12 2.17,-1.19 3.57,-3.22 l 5.6,4.48 q -4.97,6.72 -14.42,6.72 -3.92,0 -7.21,-1.19 -3.29,-1.26 -5.74,-3.5 -2.38,-2.24 -3.78,-5.46 -1.33,-3.29 -1.33,-7.42 0,-4.06 1.33,-7.35 1.4,-3.36 3.78,-5.67 2.38,-2.38 5.6,-3.64 3.29,-1.33 7.07,-1.33 3.5,0 6.44,1.19 3.01,1.12 5.18,3.43 2.17,2.24 3.36,5.67 1.26,3.36 1.26,7.91 z" />
        <path
           inkscape:connector-curvature="0"
           id="path4156"
           style="font-style:normal;font-variant:normal;font-weight:600;font-stretch:normal;font-size:70px;font-family:'Avenir Next';-inkscape-font-specification:'Avenir Next Semi-Bold'"
           d="m 855.76241,384.38636 8.05,0 0,5.6 0.14,0 q 1.4,-2.94 3.92,-4.76 2.52,-1.82 5.88,-1.82 0.49,0 1.05,0.07 0.56,0 0.98,0.14 l 0,7.7 q -0.84,-0.21 -1.47,-0.28 -0.56,-0.07 -1.12,-0.07 -2.87,0 -4.62,1.05 -1.75,1.05 -2.73,2.52 -0.98,1.47 -1.33,3.01 -0.35,1.54 -0.35,2.45 l 0,17.99 -8.4,0 0,-33.6 z" />
        <path
           sodipodi:nodetypes="cccsccscssscccscccccccscscssccscccssscs"
           inkscape:connector-curvature="0"
           id="path4158"
           style="font-style:normal;font-variant:normal;font-weight:600;font-stretch:normal;font-size:70px;font-family:'Avenir Next';-inkscape-font-specification:'Avenir Next Semi-Bold'"
           d="m 889.37882,384.38636 0,4.69 0.21,0 c 0.42,-0.65333 0.95667,-1.30667 1.61,-1.96 0.7,-0.7 1.54,-1.30667 2.52,-1.82 0.98,-0.56 2.07667,-1.00333 3.29,-1.33 1.26,-0.37333 2.66,-0.56 4.2,-0.56 2.38,0 4.57333,0.46667 6.58,1.4 2.00667,0.88667 3.73333,2.12333 5.18,3.71 1.44667,1.58667 2.56667,3.45333 3.36,5.6 0.79333,2.14667 1.19,4.45667 1.19,6.93 0,2.47333 -0.39667,4.80667 -1.19,7 -0.74667,2.14667 -1.84333,4.03667 -3.29,5.67 -1.4,1.58667 -3.12667,2.87 -5.18,3.85 -2.00667,0.93333 -4.29333,1.4 -6.86,1.4 -2.38,0 -4.57333,-0.49 -6.58,-1.47 -1.96,-0.98 -3.47667,-2.31 -4.55,-3.99 l -0.14,0 0,131.44692 -8.4,0 0,-160.56692 z m 19.6,16.66 c 0,-1.30667 -0.21,-2.59 -0.63,-3.85 -0.37333,-1.30667 -0.95667,-2.47333 -1.75,-3.5 -0.79333,-1.02667 -1.79667,-1.84333 -3.01,-2.45 -1.21333,-0.65333 -2.63667,-0.98 -4.27,-0.98 -1.54,0 -2.91667,0.32667 -4.13,0.98 -1.21333,0.65333 -2.26333,1.49333 -3.15,2.52 -0.84,1.02667 -1.49333,2.19333 -1.96,3.5 -0.42,1.30667 -0.63,2.61333 -0.63,3.92 0,1.30667 0.21,2.61333 0.63,3.92 0.46667,1.26 1.12,2.40333 1.96,3.43 0.88667,1.02667 1.93667,1.86667 3.15,2.52 1.21333,0.60667 2.59,0.91 4.13,0.91 1.63333,0 3.05667,-0.32667 4.27,-0.98 1.21333,-0.65333 2.21667,-1.49333 3.01,-2.52 0.79333,-1.02667 1.37667,-2.19333 1.75,-3.5 0.42,-1.30667 0.63,-2.61333 0.63,-3.92 z" />
        <path
           inkscape:connector-curvature="0"
           id="path4160"
           style="font-style:normal;font-variant:normal;font-weight:600;font-stretch:normal;font-size:70px;font-family:'Avenir Next';-inkscape-font-specification:'Avenir Next Semi-Bold'"
           d="m 925.62569,384.38636 8.05,0 0,5.6 0.14,0 q 1.4,-2.94 3.92,-4.76 2.52,-1.82 5.88,-1.82 0.49,0 1.05,0.07 0.56,0 0.98,0.14 l 0,7.7 q -0.84,-0.21 -1.47,-0.28 -0.56,-0.07 -1.12,-0.07 -2.87,0 -4.62,1.05 -1.75,1.05 -2.73,2.52 -0.98,1.47 -1.33,3.01 -0.35,1.54 -0.35,2.45 l 0,17.99 -8.4,0 0,-33.6 z" />
        <path
           inkscape:connector-curvature="0"
           id="path4162"
           style="font-style:normal;font-variant:normal;font-weight:600;font-stretch:normal;font-size:70px;font-family:'Avenir Next';-inkscape-font-specification:'Avenir Next Semi-Bold'"
           d="m 951.3321,384.38636 8.4,0 0,33.6 -8.4,0 0,-33.6 z m -1.19,-11.41 q 0,-2.03 1.47,-3.5 1.54,-1.54 3.85,-1.54 2.31,0 3.85,1.47 1.61,1.4 1.61,3.57 0,2.17 -1.61,3.64 -1.54,1.4 -3.85,1.4 -2.31,0 -3.85,-1.47 -1.47,-1.54 -1.47,-3.57 z" />
        <path
           inkscape:connector-curvature="0"
           id="path4164"
           style="font-style:normal;font-variant:normal;font-weight:600;font-stretch:normal;font-size:70px;font-family:'Avenir Next';-inkscape-font-specification:'Avenir Next Semi-Bold'"
           d="m 988.33257,393.34636 q -1.12,-1.47 -3.08,-2.52 -1.96,-1.12 -4.27,-1.12 -2.03,0 -3.71,0.84 -1.68,0.84 -1.68,2.8 0,1.96 1.82,2.8 1.89,0.77 5.46,1.61 1.89,0.42 3.78,1.12 1.96,0.7 3.5,1.89 1.61,1.12 2.59,2.87 0.98,1.68 0.98,4.13 0,3.08 -1.19,5.25 -1.12,2.1 -3.08,3.43 -1.89,1.33 -4.48,1.89 -2.52,0.63 -5.25,0.63 -3.92,0 -7.63,-1.4 -3.71,-1.47 -6.16,-4.13 l 5.53,-5.18 q 1.4,1.82 3.64,3.01 2.24,1.19 4.97,1.19 0.91,0 1.82,-0.21 0.98,-0.21 1.75,-0.63 0.84,-0.49 1.33,-1.26 0.49,-0.77 0.49,-1.89 0,-2.1 -1.96,-3.01 -1.89,-0.91 -5.74,-1.82 -1.89,-0.42 -3.71,-1.05 -1.75,-0.7 -3.15,-1.75 -1.4,-1.12 -2.24,-2.73 -0.84,-1.61 -0.84,-3.99 0,-2.8 1.12,-4.83 1.19,-2.03 3.08,-3.29 1.89,-1.33 4.27,-1.96 2.38,-0.63 4.9,-0.63 3.64,0 7.07,1.26 3.5,1.26 5.53,3.85 l -5.46,4.83 z" />
        <path
           inkscape:connector-curvature="0"
           id="path4166"
           style="font-style:normal;font-variant:normal;font-weight:600;font-stretch:normal;font-size:70px;font-family:'Avenir Next';-inkscape-font-specification:'Avenir Next Semi-Bold'"
           d="m 1024.481,397.82636 q 0,-1.61 -0.49,-3.08 -0.42,-1.47 -1.4,-2.59 -0.98,-1.12 -2.52,-1.75 -1.47,-0.7 -3.5,-0.7 -3.78,0 -6.44,2.31 -2.59,2.24 -2.87,5.81 l 17.22,0 z m 8.4,3.78 q 0,0.56 0,1.12 0,0.56 -0.07,1.12 l -25.55,0 q 0.14,1.82 0.91,3.36 0.84,1.47 2.17,2.59 1.33,1.05 3.01,1.68 1.68,0.63 3.5,0.63 3.15,0 5.32,-1.12 2.17,-1.19 3.57,-3.22 l 5.6,4.48 q -4.97,6.72 -14.42,6.72 -3.92,0 -7.21,-1.19 -3.29,-1.26 -5.74,-3.5 -2.38,-2.24 -3.78,-5.46 -1.32999,-3.29 -1.32999,-7.42 0,-4.06 1.32999,-7.35 1.4,-3.36 3.78,-5.67 2.38,-2.38 5.6,-3.64 3.29,-1.33 7.07,-1.33 3.5,0 6.44,1.19 3.01,1.12 5.18,3.43 2.17,2.24 3.36,5.67 1.26,3.36 1.26,7.91 z" />
        <path
           inkscape:connector-curvature="0"
           id="path4168"
           style="font-style:normal;font-variant:normal;font-weight:600;font-stretch:normal;font-size:70px;font-family:'Avenir Next';-inkscape-font-specification:'Avenir Next Semi-Bold'"
           d="m 1059.4263,393.34636 q -1.12,-1.47 -3.08,-2.52 -1.96,-1.12 -4.27,-1.12 -2.03,0 -3.71,0.84 -1.68,0.84 -1.68,2.8 0,1.96 1.82,2.8 1.89,0.77 5.46,1.61 1.89,0.42 3.78,1.12 1.96,0.7 3.5,1.89 1.61,1.12 2.59,2.87 0.98,1.68 0.98,4.13 0,3.08 -1.19,5.25 -1.12,2.1 -3.08,3.43 -1.89,1.33 -4.48,1.89 -2.52,0.63 -5.25,0.63 -3.92,0 -7.63,-1.4 -3.71,-1.47 -6.16,-4.13 l 5.53,-5.18 q 1.4,1.82 3.64,3.01 2.24,1.19 4.97,1.19 0.91,0 1.82,-0.21 0.98,-0.21 1.75,-0.63 0.84,-0.49 1.33,-1.26 0.49,-0.77 0.49,-1.89 0,-2.1 -1.96,-3.01 -1.89,-0.91 -5.74,-1.82 -1.89,-0.42 -3.71,-1.05 -1.75,-0.7 -3.15,-1.75 -1.4,-1.12 -2.24,-2.73 -0.84,-1.61 -0.84,-3.99 0,-2.8 1.12,-4.83 1.19,-2.03 3.08,-3.29 1.89,-1.33 4.27,-1.96 2.38,-0.63 4.9,-0.63 3.64,0 7.07,1.26 3.5,1.26 5.53,3.85 l -5.46,4.83 z" />
      </g>
    </g>
  </g>
</svg>
