<?xml version="1.0" encoding="UTF-8" standalone="no"?>
<!DOCTYPE svg PUBLIC "-//W3C//DTD SVG 1.1//EN" "http://www.w3.org/Graphics/SVG/1.1/DTD/svg11.dtd">
<svg width="100%"
    height="100%" viewBox="0 0 38 38" version="1.1" xmlns="http://www.w3.org/2000/svg"
    xmlns:xlink="http://www.w3.org/1999/xlink" xml:space="preserve" xmlns:serif="http://www.serif.com/"
    style="fill-rule:evenodd;clip-rule:evenodd;stroke-linejoin:round;stroke-miterlimit:2;">
    <rect id="Artboard2" x="0" y="0" width="37.956" height="37.956" style="fill:none;" />
    <path
        d="M18.002,22.215l-4.227,12.37l-10.405,-31.215l31.215,10.405l-12.651,3.904l11.682,11.681l-4.235,4.234l-11.379,-11.379Z" />
    <path
        d="M18.002,22.215l-4.227,12.37l-10.405,-31.215l31.215,10.405l-12.651,3.904l11.682,11.681l-4.235,4.234l-11.379,-11.379Zm1.061,-1.06c-0.366,-0.366 -0.895,-0.518 -1.4,-0.401c-0.504,0.117 -0.913,0.486 -1.08,0.976l-2.79,8.165c-0,-0 -8.051,-24.153 -8.051,-24.153c0,0 23.934,7.978 23.934,7.978c0,0 -8.184,2.525 -8.184,2.525c-0.503,0.155 -0.887,0.562 -1.014,1.073c-0.126,0.51 0.024,1.049 0.395,1.421l10.621,10.621c0,0 -2.113,2.113 -2.113,2.113c0,0 -10.318,-10.318 -10.318,-10.318Z"
        style="fill:#fff;" />
</svg>