<?xml version="1.0" encoding="UTF-8" standalone="no"?>
<!-- Created with Inkscape (http://www.inkscape.org/) -->

<svg
   xmlns:dc="http://purl.org/dc/elements/1.1/"
   xmlns:cc="http://creativecommons.org/ns#"
   xmlns:rdf="http://www.w3.org/1999/02/22-rdf-syntax-ns#"
   xmlns:svg="http://www.w3.org/2000/svg"
   xmlns="http://www.w3.org/2000/svg"
   xmlns:sodipodi="http://sodipodi.sourceforge.net/DTD/sodipodi-0.dtd"
   xmlns:inkscape="http://www.inkscape.org/namespaces/inkscape"
   width="500"
   height="500"
   viewBox="0 0 500.00014 500"
   id="svg2"
   version="1.1"
   inkscape:version="0.91 r13725"
   sodipodi:docname="venketesh.svg">
  <defs
     id="defs4" />
  <sodipodi:namedview
     id="base"
     pagecolor="#ffffff"
     bordercolor="#666666"
     borderopacity="1.0"
     inkscape:pageopacity="0.0"
     inkscape:pageshadow="2"
     inkscape:zoom="0.7071068"
     inkscape:cx="239.98395"
     inkscape:cy="223.11391"
     inkscape:document-units="px"
     inkscape:current-layer="g4240"
     showgrid="false"
     inkscape:snap-bbox="true"
     inkscape:window-width="1394"
     inkscape:window-height="856"
     inkscape:window-x="46"
     inkscape:window-y="0"
     inkscape:window-maximized="1"
     inkscape:snap-others="false"
     inkscape:snap-intersection-paths="false"
     inkscape:object-paths="false"
     inkscape:bbox-paths="true"
     inkscape:snap-bbox-midpoints="false"
     inkscape:snap-grids="false"
     inkscape:snap-to-guides="true"
     inkscape:bbox-nodes="true"
     inkscape:snap-nodes="false"
     inkscape:snap-bbox-edge-midpoints="false"
     units="px" />
  <metadata
     id="metadata7">
    <rdf:RDF>
      <cc:Work
         rdf:about="">
        <dc:format>image/svg+xml</dc:format>
        <dc:type
           rdf:resource="http://purl.org/dc/dcmitype/StillImage" />
        <dc:title></dc:title>
      </cc:Work>
    </rdf:RDF>
  </metadata>
  <g
     inkscape:label="Layer 1"
     inkscape:groupmode="layer"
     id="layer1"
     transform="translate(0,-552.36213)">
    <g
       id="g4240"
       transform="translate(-109.60528,-53.149669)">
      <g
         id="g4158"
         transform="matrix(1.8434469,0,0,1.8434469,-174.57151,-852.73446)">
        <path
           sodipodi:nodetypes="cccccccssc"
           inkscape:connector-curvature="0"
           d="m 293.15827,811.8084 c 117.14883,50.67483 42.9529,89.21148 -19.60496,172.00469 l 21.83172,-113.9404 c -13.1271,-0.55009 -22.42349,-0.5643 -34.47345,-0.5643 l -31.43019,175.46271 c 10.59616,0.2053 25.74557,0.08 35.2362,0.025 L 415.72695,843.42274 c 0,0 -3.48605,-1.19029 -8.95286,-1.06416 -2.89994,0.0669 -7.75819,4.96149 -9.86685,3.79372 -30.37128,-16.81947 -51.38427,-32.68659 -103.74897,-34.3439 z"
           id="path4238"
           style="opacity:0.76499999;fill:#000dc6;fill-opacity:0.94509804;stroke:none" />
        <path
           style="opacity:0.76499999;fill:#d8fcfc;fill-opacity:1;stroke:none"
           d="m 195.2446,869.30839 -31.43019,175.46271 6.58686,0 31.43019,-175.46271 z"
           id="path4158"
           inkscape:connector-curvature="0" />
        <path
           style="opacity:0.76499999;fill:#74e0fc;fill-opacity:1;stroke:none"
           d="m 208.38751,869.30839 -31.4302,175.46271 6.58686,0 31.43019,-175.46271 z"
           id="path4156"
           inkscape:connector-curvature="0" />
        <path
           style="opacity:0.76499999;fill:#bcecfc;fill-opacity:1;stroke:none"
           d="m 201.81668,869.30839 -31.43017,175.46271 6.58685,0 31.43018,-175.46271 z"
           id="path4154"
           inkscape:connector-curvature="0" />
        <path
           style="opacity:0.76499999;fill:#0cc8fc;fill-opacity:1;stroke:none"
           d="m 214.9624,869.30839 -31.43019,175.46271 6.58685,0 31.43019,-175.46271 z"
           id="path4150"
           inkscape:connector-curvature="0" />
        <path
           style="opacity:0.76499999;fill:#00a0f0;fill-opacity:1;stroke:none"
           d="m 221.49391,869.30839 -31.43019,175.46271 6.58686,0 31.43019,-175.46271 z"
           id="path4148"
           inkscape:connector-curvature="0" />
        <path
           style="opacity:0.76499999;fill:#0064e0;fill-opacity:1;stroke:none"
           d="m 228.05118,869.30839 -31.43019,175.46271 6.58686,0 31.43019,-175.46271 z"
           id="path4146"
           inkscape:connector-curvature="0" />
        <path
           style="opacity:0.76499999;fill:#0038d4;fill-opacity:1;stroke:none"
           d="m 234.62326,869.30839 -31.43019,175.46271 6.58686,0 31.43019,-175.46271 z"
           id="path4144"
           inkscape:connector-curvature="0" />
        <path
           style="opacity:0.76499999;fill:#0024d0;fill-opacity:1;stroke:none"
           d="m 241.19407,869.30839 -31.43018,175.46271 6.58685,0 31.43019,-175.46271 z"
           id="path4142"
           inkscape:connector-curvature="0" />
        <path
           style="opacity:0.76499999;fill:#0010cc;fill-opacity:1;stroke:none"
           d="m 247.79495,869.30839 -31.43019,175.46271 6.58686,0 31.43019,-175.46271 z"
           id="path4140"
           inkscape:connector-curvature="0" />
        <path
           style="opacity:0.76499999;fill:#0000ac;fill-opacity:1;stroke:none"
           d="m 254.36851,869.30839 -31.43019,175.46271 6.58685,0 31.43019,-175.46271 z"
           id="rect4136"
           inkscape:connector-curvature="0" />
        <path
           inkscape:connector-curvature="0"
           id="path4218"
           d="m 201.81815,869.30839 -31.43019,175.46271 6.58686,0 31.43019,-175.46271 z"
           style="opacity:0.76499999;fill:#d8fcfc;fill-opacity:1;stroke:none" />
        <path
           inkscape:connector-curvature="0"
           id="path4220"
           d="m 214.96106,869.30839 -31.4302,175.46271 6.58686,0 31.43019,-175.46271 z"
           style="opacity:0.76499999;fill:#74e0fc;fill-opacity:1;stroke:none" />
        <path
           inkscape:connector-curvature="0"
           id="path4222"
           d="m 208.39023,869.30839 -31.43017,175.46271 6.58685,0 31.43018,-175.46271 z"
           style="opacity:0.76499999;fill:#bcecfc;fill-opacity:1;stroke:none" />
        <path
           inkscape:connector-curvature="0"
           id="path4224"
           d="m 221.53595,869.30839 -31.43019,175.46271 6.58685,0 31.43019,-175.46271 z"
           style="opacity:0.76499999;fill:#0cc8fc;fill-opacity:1;stroke:none" />
        <path
           inkscape:connector-curvature="0"
           id="path4226"
           d="m 228.06746,869.30839 -31.43019,175.46271 6.58686,0 31.43019,-175.46271 z"
           style="opacity:0.76499999;fill:#00a0f0;fill-opacity:1;stroke:none" />
        <path
           inkscape:connector-curvature="0"
           id="path4228"
           d="m 234.62473,869.30839 -31.43019,175.46271 6.58686,0 31.43019,-175.46271 z"
           style="opacity:0.76499999;fill:#0064e0;fill-opacity:1;stroke:none" />
        <path
           inkscape:connector-curvature="0"
           id="path4230"
           d="m 241.19681,869.30839 -31.43019,175.46271 6.58686,0 31.43019,-175.46271 z"
           style="opacity:0.76499999;fill:#0038d4;fill-opacity:1;stroke:none" />
        <path
           inkscape:connector-curvature="0"
           id="path4232"
           d="m 247.76762,869.30839 -31.43018,175.46271 6.58685,0 31.43019,-175.46271 z"
           style="opacity:0.76499999;fill:#0024d0;fill-opacity:1;stroke:none" />
        <path
           inkscape:connector-curvature="0"
           id="path4234"
           d="m 254.3685,869.30839 -31.43019,175.46271 6.58686,0 31.43019,-175.46271 z"
           style="opacity:0.76499999;fill:#0010cc;fill-opacity:1;stroke:none" />
        <path
           inkscape:connector-curvature="0"
           id="path4265"
           transform="translate(109.60528,751.18107)"
           d="m 196.55273,57.251953 c 4.27396,1.848778 8.24327,3.685811 11.98438,5.513672 35.06615,5.153275 53.74999,18.35154 78.76562,32.205078 2.10866,1.16777 6.9653,-3.726069 9.86524,-3.792969 -2.89994,0.0669 -8.63489,4.667129 -10.61524,3.292969 -33.24627,-23.069464 -37.63531,-35.56144 -90,-37.21875 z"
           style="opacity:0.76499999;fill:#0ac1fa;fill-opacity:0.94509804;stroke:none" />
        <path
           style="opacity:0.76499999;fill:#000dc6;fill-opacity:0.94509804;stroke:none"
           id="path4155"
           d="m 293.15827,811.8084 c 117.14883,50.67483 42.9529,89.21148 -19.60496,172.00469 l 21.83172,-113.9404 c -13.1271,-0.55009 -22.42349,-0.5643 -34.47345,-0.5643 l -31.43019,175.46271 c 10.59616,0.2053 25.74557,0.08 35.2362,0.025 L 415.72695,843.42274 c 0,0 -3.48605,-1.19029 -8.95286,-1.06416 -2.89994,0.0669 -7.75819,4.96149 -9.86685,3.79372 -30.37128,-16.81947 -51.38427,-32.68659 -103.74897,-34.3439 z"
           inkscape:connector-curvature="0"
           sodipodi:nodetypes="cccccccssc" />
        <path
           sodipodi:nodetypes="cccccccssc"
           inkscape:connector-curvature="0"
           d="m 293.15827,811.8084 c 117.14883,50.67483 42.9529,89.21148 -19.60496,172.00469 l 21.83172,-113.9404 c -13.1271,-0.55009 -22.42349,-0.5643 -34.47345,-0.5643 l -31.43019,175.46271 c 10.59616,0.2053 25.74557,0.08 35.2362,0.025 L 415.72695,843.42274 c 0,0 -3.48605,-1.19029 -8.95286,-1.06416 -2.89994,0.0669 -7.75819,4.96149 -9.86685,3.79372 -30.37128,-16.81947 -51.38427,-32.68659 -103.74897,-34.3439 z"
           id="path4157"
           style="opacity:0.76499999;fill:#000dc6;fill-opacity:0.94509804;stroke:none" />
        <path
           style="opacity:0.76499999;fill:#002fc6;fill-opacity:0.94509804;stroke:none"
           id="path4159"
           d="m 293.15827,811.8084 c 117.14883,50.67483 42.9529,89.21148 -19.60496,172.00469 l 21.83172,-113.9404 c -13.1271,-0.55009 -22.42349,-0.5643 -34.47345,-0.5643 l -31.43019,175.46271 c 10.59616,0.2053 25.74557,0.08 35.2362,0.025 L 415.72695,843.42274 c 0,0 -3.48605,-1.19029 -8.95286,-1.06416 -2.89994,0.0669 -7.75819,4.96149 -9.86685,3.79372 -30.37128,-16.81947 -51.38427,-32.68659 -103.74897,-34.3439 z"
           inkscape:connector-curvature="0"
           sodipodi:nodetypes="cccccccssc" />
      </g>
    </g>
  </g>
</svg>
